SplineFontDB: 3.2
FontName: KelmscottMono
FullName: Kelmscott Mono
FamilyName: Kelmscott Mono
Weight: Medium
Copyright: Copyright (c) Calvin Jubilee, 2025. All rights reserved. Inspured by Morris Troy, and Morris Roman. Aided by the work of Dieter Steffmann who digitized Morris Black Roman in 2002.
Version: 2.0
ItalicAngle: 0
UnderlinePosition: -133
UnderlineWidth: 20
Ascent: 800
Descent: 200
InvalidEm: 0
sfntRevision: 0x0001199a
LayerCount: 2
Layer: 0 0 "Back" 1
Layer: 1 0 "Fore" 0
XUID: [1021 240 756357125 3540044]
StyleMap: 0x0040
FSType: 0
OS2Version: 4
OS2_WeightWidthSlopeOnly: 1
OS2_UseTypoMetrics: 0
CreationTime: 1013623052
ModificationTime: 1762116903
PfmFamily: 81
TTFWeight: 400
TTFWidth: 5
LineGap: 48
VLineGap: 0
Panose: 0 0 0 0 0 0 0 0 0 0
OS2TypoAscent: 664
OS2TypoAOffset: 0
OS2TypoDescent: -195
OS2TypoDOffset: 0
OS2TypoLinegap: 48
OS2WinAscent: 854
OS2WinAOffset: 0
OS2WinDescent: 209
OS2WinDOffset: 0
HheadAscent: 664
HheadAOffset: 0
HheadDescent: -195
HheadDOffset: 0
OS2SubXSize: 650
OS2SubYSize: 600
OS2SubXOff: 0
OS2SubYOff: 75
OS2SupXSize: 650
OS2SupYSize: 600
OS2SupXOff: 0
OS2SupYOff: 350
OS2StrikeYSize: 20
OS2StrikeYPos: 279
OS2CapHeight: 650
OS2XHeight: 447
OS2Vendor: 'DST '
OS2CodePages: 00000001.00000000
OS2UnicodeRanges: 800000af.4000004a.00000000.00000000
MarkAttachClasses: 1
DEI: 91125
LangName: 1033 "" "" "" "FontForge 2.0 : Kelmscott Mono : 22-5-2025" "" "1.0" "" "" "" "Calvin Jubilee" "A blackletter for the text editor. Inspired by Morris Tory and Morris Roman. Built for legibilitiy in the IDE." "" "http://calvin.ooo"
Encoding: UnicodeBmp
UnicodeInterp: none
NameList: AGL For New Fonts
DisplaySize: -48
AntiAlias: 1
FitToEm: 0
WinInfo: 0 22 8
BeginPrivate: 3
BlueValues 31 [-21 0 454 472 604 622 648 657]
OtherBlues 11 [-200 -188]
BlueShift 2 10
EndPrivate
BeginChars: 65537 441

StartChar: .notdef
Encoding: 65536 -1 0
Width: 550
GlyphClass: 1
Flags: MW
HStem: 0 50<100 450 100 500> 483 50<100 450 100 100>
VStem: 50 50<50 50 50 483> 450 50<50 483 483 483>
LayerCount: 2
Fore
SplineSet
50 0 m 1
 50 533 l 1
 500 533 l 1
 500 0 l 1
 50 0 l 1
100 50 m 1
 450 50 l 1
 450 483 l 1
 100 483 l 1
 100 50 l 1
EndSplineSet
Validated: 1
EndChar

StartChar: exclam
Encoding: 33 33 34
Width: 550
GlyphClass: 1
Flags: W
LayerCount: 2
Fore
SplineSet
239.5 355.5 m 0
 241.833007812 377.833007812 243 401.833007812 243 427.5 c 0
 243 453.166992188 238.333007812 512.666992188 229 606 c 1
 345 654 l 1
 341.666992188 541.333007812 340 468.833007812 340 436.5 c 0
 340 404.166992188 336 362.666992188 328 312 c 0
 320 261.333007812 315.333007812 220.333007812 314 189 c 1
 234 196 l 1
 236 288 l 2
 236 310.666992188 237.166992188 333.166992188 239.5 355.5 c 0
340 62 m 0
 340 56.6669921875 332.166992188 45 316.5 27 c 0
 300.833007812 9 289 -2 281 -6 c 1
 233 30.6669921875 208 56 206 70 c 1
 240 116.666992188 263 140 275 140 c 0
 287 140 300.833007812 130 316.5 110 c 0
 332.166992188 90 340 74 340 62 c 0
EndSplineSet
Validated: 524289
EndChar

StartChar: quotedbl
Encoding: 34 34 35
Width: 550
GlyphClass: 1
Flags: W
LayerCount: 2
Fore
SplineSet
399.890625 610.23828125 m 0
 400.629882812 610.079101562 403.005859375 592.701171875 407.01953125 558.103515625 c 0
 411.033203125 523.505859375 415.693359375 483.8046875 421 439.000976562 c 1
 395.666992188 439.000976562 378.166992188 443.16796875 368.5 451.500976562 c 0
 358.833007812 459.833984375 350.639648438 479.71484375 343.918945312 511.143554688 c 2
 322.860351562 613.614257812 l 1
 324.322265625 624.143554688 l 2
 325.532226562 624.435546875 327.17578125 624.58203125 329.252929688 624.58203125 c 0
 335.967773438 624.58203125 347.216796875 623.0546875 363 620 c 0
 383.666992188 616 395.963867188 612.74609375 399.890625 610.23828125 c 0
141.008789062 622.74609375 m 2
 142.034179688 623.068359375 143.333984375 623.23046875 144.905273438 623.23046875 c 0
 147.41015625 623.23046875 150.608398438 622.821289062 154.5 622.001953125 c 0
 160.833007812 620.668945312 171.666015625 618.8359375 186.999023438 616.502929688 c 0
 202.33203125 614.169921875 211.499023438 611.669921875 214.499023438 609.002929688 c 0
 217.499023438 606.3359375 220.787109375 588.303710938 224.36328125 554.90625 c 0
 227.939453125 521.508789062 232.12890625 482.189453125 236.931640625 436.948242188 c 1
 208.920898438 441.78515625 l 2
 197.08984375 443.828125 187.645507812 448.041992188 180.586914062 454.42578125 c 0
 173.528320312 460.809570312 166.868164062 479.25 160.606445312 509.747070312 c 2
 139.447265625 610.806640625 l 1
 141.008789062 622.74609375 l 2
EndSplineSet
Validated: 524289
EndChar

StartChar: numbersign
Encoding: 35 35 36
Width: 550
GlyphClass: 1
Flags: W
LayerCount: 2
Fore
SplineSet
235 240 m 1
 255 358 l 1
 333 358 l 1
 314 238 l 1
 235 240 l 1
222 156 m 1
 301.002929688 155.997070312 l 1
 277.385742188 14.8046875 l 2
 277.231445312 13.6015625 277.154296875 12.490234375 277.154296875 11.4697265625 c 0
 277.154296875 6.3759765625 279.0703125 3.5498046875 282.903320312 2.9921875 c 0
 283.833007812 2.890625 284.8359375 2.83984375 285.912109375 2.83984375 c 0
 291.861328125 2.83984375 300.057617188 4.392578125 310.500976562 7.4970703125 c 0
 322.833984375 11.1640625 334.000976562 14.3310546875 344.000976562 16.998046875 c 0
 354.000976562 19.6650390625 359.40234375 24.41015625 360.204101562 31.2333984375 c 0
 360.725585938 31.6767578125 366.991210938 73.931640625 379.000976562 157.998046875 c 1
 494.000976562 157.998046875 l 2
 501.333984375 157.998046875 505.000976562 160.331054688 505.000976562 164.998046875 c 0
 505.000976562 170.998046875 502.333984375 179.831054688 497.000976562 191.498046875 c 0
 491.66796875 203.165039062 487.000976562 213.83203125 483.000976562 223.499023438 c 0
 479.000976562 233.166015625 473.66796875 237.999023438 467.000976562 237.999023438 c 2
 394.000976562 237.999023438 l 1
 414.000976562 357.999023438 l 1
 524.000976562 357.999023438 l 2
 531.333984375 357.999023438 535.000976562 360.33203125 535.000976562 364.999023438 c 0
 535.000976562 370.999023438 532.333984375 379.83203125 527.000976562 391.499023438 c 0
 521.66796875 403.166015625 517.012695312 413.805664062 513.03515625 423.41796875 c 0
 509.012695312 433.138671875 503.66796875 437.999023438 497.000976562 437.999023438 c 0
 496.267578125 438.666015625 473.600585938 439.032226562 429 439.098632812 c 1
 450.043945312 582.282226562 l 2
 450.220703125 583.486328125 450.309570312 584.555664062 450.309570312 585.491210938 c 0
 450.309570312 588.755859375 449.232421875 590.387695312 447.078125 590.387695312 c 0
 446.470703125 590.387695312 445.778320312 590.2578125 445 589.998046875 c 0
 415 580.665039062 388.047851562 567.727539062 364.14453125 551.185546875 c 1
 346 439.098632812 l 1
 265 439.098632812 l 1
 291.471679688 584.26953125 l 2
 291.59765625 584.958984375 291.66015625 585.603515625 291.66015625 586.203125 c 0
 291.66015625 589.529296875 289.724609375 591.46875 285.853515625 592.021484375 c 0
 285.735351562 592.038085938 285.602539062 592.046875 285.455078125 592.046875 c 0
 279.897460938 592.046875 253.448242188 580.055664062 206.107421875 556.073242188 c 1
 186.999023438 439.098632812 l 1
 41.9990234375 438.999023438 l 2
 37.33203125 438.99609375 34.9990234375 436.829101562 34.9990234375 432.497070312 c 0
 34.9990234375 428.165039062 50.33203125 403.33203125 80.9990234375 357.999023438 c 1
 172.999023438 357.999023438 l 1
 172.999023438 356.666015625 166.999023438 316.999023438 154.999023438 238.999023438 c 1
 107.999023438 239.666015625 72.58203125 239.999023438 48.7490234375 239.999023438 c 0
 24.916015625 239.999023438 12.666015625 239.666015625 11.9990234375 238.999023438 c 0
 7.33203125 238.999023438 4.9990234375 236.83203125 4.9990234375 232.499023438 c 0
 4.9990234375 228.166015625 20.33203125 203.333007812 50.9990234375 158 c 1
 57.666015625 158 88.3330078125 157.333007812 143 156 c 1
 127 63.3330078125 118.9375 16.931640625 118.811523438 16.7958984375 c 0
 118.55859375 15.3408203125 118.432617188 14.01953125 118.432617188 12.8310546875 c 0
 118.432617188 8.14453125 120.3984375 5.5283203125 124.329101562 4.982421875 c 0
 125.205078125 4.8828125 126.15625 4.8330078125 127.182617188 4.8330078125 c 0
 132.9296875 4.8330078125 141.03515625 6.388671875 151.499023438 9.5 c 0
 163.83203125 13.1669921875 174.987304688 16.3310546875 184.96484375 18.9921875 c 0
 194.942382812 21.6533203125 200.497070312 26.396484375 201.629882812 33.22265625 c 0
 202.54296875 33.7412109375 209.333007812 74.6669921875 222 156 c 1
374.002929688 157.997070312 m 1024
EndSplineSet
Validated: 524297
EndChar

StartChar: dollar
Encoding: 36 36 37
Width: 550
GlyphClass: 1
Flags: W
LayerCount: 2
Fore
SplineSet
271 524 m 1
 210.333007812 515.333007812 179.999023438 488.666992188 179.999023438 444 c 0
 179.999023438 415.333007812 185.999023438 392 197.999023438 374 c 0
 212.666015625 353.333007812 233.333007812 343 260 343 c 2
 271 343 l 1
 271 524 l 1
330.999023438 40.0009765625 m 1
 361.666015625 44.0009765625 386.499023438 55.66796875 405.499023438 75.0009765625 c 0
 424.499023438 94.333984375 433.999023438 119.000976562 433.999023438 149.000976562 c 0
 433.999023438 212.333984375 407.666015625 244.000976562 354.999023438 244.000976562 c 0
 347.666015625 244.000976562 339.999023438 243.333984375 331.999023438 242.000976562 c 1
 330.999023438 40.0009765625 l 1
536.999023438 220.000976562 m 0
 536.999023438 164.000976562 516.833007812 114.334960938 476.5 71.001953125 c 0
 436.166992188 27.6689453125 387.666992188 1.3359375 331 -7.9970703125 c 1
 331 -133.997070312 l 2
 330.333007812 -135.997070312 320.5 -141.330078125 301.5 -149.997070312 c 0
 282.5 -158.6640625 271.333007812 -163.331054688 268 -163.998046875 c 0
 267.333007812 -163.331054688 267 -162.6640625 267 -161.997070312 c 0
 267 -156.6640625 267.666992188 -148.831054688 269 -138.498046875 c 0
 270.333007812 -128.165039062 271 -120.33203125 271 -114.999023438 c 2
 271 -9.9990234375 l 1
 189 -2.666015625 126 37.0009765625 82 109.000976562 c 0
 62 142.333984375 52 165.000976562 52 177.000976562 c 0
 52 185.66796875 55 190.000976562 61 190.000976562 c 0
 63.6669921875 190.000976562 76.1669921875 186.66796875 98.5 180.000976562 c 0
 120.833007812 173.333984375 135.666015625 169.666992188 142.999023438 169 c 0
 147.666015625 168.333007812 154.499023438 167.5 163.499023438 166.5 c 0
 172.499023438 165.5 176.999023438 159.333007812 176.999023438 148 c 0
 176.999023438 146 176.499023438 142.5 175.499023438 137.5 c 0
 174.499023438 132.5 173.999023438 128.666992188 173.999023438 126 c 0
 173.999023438 115.333007812 178.666015625 101.333007812 187.999023438 84 c 0
 202.666015625 59.3330078125 230.333007812 44.666015625 271 39.9990234375 c 1
 271 228.999023438 l 1
 233 218.999023438 209.666992188 213.999023438 201 213.999023438 c 0
 177.666992188 213.999023438 153.666992188 236.33203125 129 280.999023438 c 0
 106.333007812 321.666015625 95 354.666015625 95 379.999023438 c 0
 95 427.33203125 113 468.999023438 149 504.999023438 c 0
 182.333007812 537.666015625 223 559.333007812 271 570 c 1
 271 667 l 1
 281 673.666992188 301.333007812 686.666992188 332 706 c 1
 332 577 l 1
 402.666992188 575.666992188 453.666992188 558 485 524 c 0
 494.333007812 514 499 508.333007812 499 507 c 0
 499 502.333007812 495.166992188 498.333007812 487.5 495 c 0
 479.833007812 491.666992188 468 486.666992188 452 480 c 2
 423 463 l 2
 407 454.333007812 397.666992188 450 395 450 c 0
 393 450 386.166992188 460.333007812 374.5 481 c 0
 362.833007812 501.666992188 348.666015625 515.333984375 331.999023438 522.000976562 c 1
 331.999023438 355.000976562 l 1
 347.33203125 359.000976562 362.999023438 363.333984375 378.999023438 368.000976562 c 0
 399.666015625 373.333984375 414.999023438 376.000976562 424.999023438 376.000976562 c 0
 436.33203125 376.000976562 455.999023438 358.000976562 483.999023438 322.000976562 c 0
 519.33203125 276.66796875 536.999023438 242.66796875 536.999023438 220.000976562 c 0
EndSplineSet
Validated: 524289
EndChar

StartChar: percent
Encoding: 37 37 38
Width: 550
GlyphClass: 1
Flags: W
LayerCount: 2
Fore
SplineSet
544.0234375 579.890625 m 0
 544.0234375 576.765625 540.213867188 572.858398438 532.595703125 568.169921875 c 0
 522.047851562 561.918945312 516.48046875 558.403320312 515.89453125 557.622070312 c 0
 511.20703125 552.54296875 504.760742188 544.924804688 496.555664062 534.767578125 c 2
 367.34375 383.580078125 l 2
 316.362304688 322.635742188 237.837890625 231.805664062 131.771484375 111.08984375 c 0
 128.255859375 107.96484375 123.275390625 102.885742188 116.829101562 95.853515625 c 0
 113.8984375 92.337890625 110.821289062 88.919921875 107.598632812 85.5986328125 c 0
 104.375976562 82.2783203125 98.076171875 80.6181640625 88.7001953125 80.6181640625 c 2
 69.36328125 80.6181640625 l 1
 50.0244140625 80.6181640625 l 2
 35.9609375 80.6181640625 18.087890625 82.1806640625 -3.5947265625 85.3056640625 c 0
 -7.697265625 86.0869140625 -9.748046875 87.6494140625 -9.748046875 89.994140625 c 0
 -9.748046875 93.900390625 -6.232421875 97.611328125 0.7998046875 101.127929688 c 0
 6.07421875 103.86328125 11.6416015625 106.59765625 17.501953125 109.33203125 c 0
 19.259765625 110.895507812 23.361328125 115.778320312 29.8076171875 123.981445312 c 0
 33.9091796875 128.669921875 62.037109375 160.509765625 114.192382812 219.500976562 c 2
 420.083007812 563.482421875 l 2
 423.599609375 567.780273438 428.874023438 573.4453125 435.90625 580.477539062 c 0
 442.352539062 585.947265625 457.588867188 588.681640625 481.614257812 588.681640625 c 0
 523.220703125 588.681640625 544.0234375 585.750976562 544.0234375 579.890625 c 0
388.018554688 -1.4443359375 m 0
 360.671875 -1.1484375 336.619140625 11.3232421875 315.859375 35.970703125 c 0
 289.286132812 67.3232421875 275.892578125 94.0283203125 275.678710938 116.0859375 c 0
 275.892578125 130.028320312 277.259765625 143.108398438 279.780273438 155.326171875 c 0
 283.259765625 171.775390625 302.666015625 193.166992188 337.999023438 219.5 c 0
 373.33203125 245.833007812 399.572265625 259.048828125 416.71875 259.147460938 c 0
 429.572265625 259.048828125 445.015625 252.78125 463.048828125 240.345703125 c 0
 481.015625 228.114257812 496.322265625 209.993164062 508.96875 185.981445312 c 0
 521.655273438 161.993164062 528.079101562 139.51171875 528.239257812 118.538085938 c 0
 528.079101562 105.51171875 524.525390625 92.431640625 517.579101562 79.2978515625 c 0
 508.525390625 63.765625 489.119140625 44.962890625 459.359375 22.890625 c 0
 437.786132812 6.962890625 414.005859375 -1.1484375 388.018554688 -1.4443359375 c 0
375.946289062 177.71875 m 1
 375.981445312 177.905273438 375.735351562 177.91015625 375.2109375 177.728515625 c 0
 366.401367188 177.91015625 357.727539062 174.543945312 349.188476562 167.629882812 c 0
 340.39453125 160.543945312 335.935546875 152.900390625 335.811523438 144.69921875 c 0
 335.935546875 130.900390625 344.549804688 114.797851562 361.654296875 96.3916015625 c 0
 379.216796875 76.7978515625 394.723632812 67.625 408.173828125 68.873046875 c 0
 409.389648438 68.9580078125 410.44921875 68.931640625 411.352539062 68.7939453125 c 0
 421.783203125 68.931640625 431.466796875 71.607421875 440.403320312 76.822265625 c 0
 452.133789062 82.9404296875 458.01171875 91.5009765625 458.036132812 102.50390625 c 0
 458.01171875 128.833984375 448.9921875 146.057617188 430.977539062 154.17578125 c 0
 411.658203125 162.724609375 393.532226562 170.573242188 376.598632812 177.721679688 c 0
 376.19921875 177.90625 375.981445312 177.905273438 375.946289062 177.71875 c 1
132.016601562 427.557617188 m 0
 104.669921875 427.853515625 80.6171875 440.325195312 59.857421875 464.97265625 c 0
 33.2841796875 496.325195312 19.890625 523.030273438 19.6767578125 545.087890625 c 0
 19.890625 559.030273438 21.2578125 572.110351562 23.7783203125 584.328125 c 0
 27.2578125 600.77734375 46.6640625 622.168945312 81.9970703125 648.501953125 c 0
 117.330078125 674.834960938 143.5703125 688.05078125 160.716796875 688.149414062 c 0
 173.5703125 688.05078125 189.013671875 681.783203125 207.046875 669.34765625 c 0
 225.013671875 657.116210938 240.3203125 638.995117188 252.966796875 614.983398438 c 0
 265.653320312 590.995117188 272.077148438 568.513671875 272.237304688 547.540039062 c 0
 272.077148438 534.513671875 268.5234375 521.43359375 261.577148438 508.299804688 c 0
 252.5234375 492.767578125 233.1171875 473.96484375 203.357421875 451.892578125 c 0
 181.784179688 435.96484375 158.00390625 427.853515625 132.016601562 427.557617188 c 0
119.944335938 606.720703125 m 1
 119.979492188 606.907226562 119.732421875 606.912109375 119.208007812 606.73046875 c 0
 110.3984375 606.912109375 101.724609375 603.545898438 93.185546875 596.631835938 c 0
 84.3916015625 589.545898438 79.9326171875 581.90234375 79.80859375 573.701171875 c 0
 79.9326171875 559.90234375 88.546875 543.799804688 105.651367188 525.393554688 c 0
 122.546875 507.1328125 138.053710938 497.959960938 152.170898438 497.875 c 0
 153.38671875 497.959960938 154.446289062 497.93359375 155.349609375 497.795898438 c 0
 165.780273438 497.93359375 175.463867188 500.609375 184.400390625 505.82421875 c 0
 196.130859375 511.942382812 202.008789062 520.502929688 202.033203125 531.505859375 c 0
 202.008789062 549.8359375 192.989257812 567.059570312 174.974609375 583.177734375 c 0
 156.989257812 599.059570312 138.86328125 606.908203125 120.596679688 606.723632812 c 0
 120.197265625 606.908203125 119.979492188 606.907226562 119.944335938 606.720703125 c 1
EndSplineSet
Validated: 524321
EndChar

StartChar: ampersand
Encoding: 38 38 39
Width: 550
GlyphClass: 1
Flags: W
LayerCount: 2
Fore
SplineSet
331 236.5 m 0
 350.333007812 216.166992188 362.331054688 203.99609375 366.998046875 199.99609375 c 1
 377.665039062 217.99609375 387.998046875 236.99609375 397.998046875 256.99609375 c 0
 407.331054688 275.663085938 410.6640625 293.330078125 407.997070312 309.997070312 c 0
 405.330078125 326.6640625 396.663085938 350.6640625 381.99609375 381.997070312 c 0
 373.99609375 399.997070312 358.663085938 413.997070312 335.99609375 423.997070312 c 0
 321.329101562 430.6640625 313.99609375 435.331054688 313.99609375 437.998046875 c 0
 313.99609375 446.665039062 324.663085938 453.33203125 345.99609375 457.999023438 c 0
 360.663085938 461.33203125 374.99609375 464.999023438 388.99609375 468.999023438 c 0
 422.99609375 478.33203125 441.663085938 483.33203125 444.99609375 483.999023438 c 0
 456.329101562 485.999023438 468.99609375 489.999023438 482.99609375 495.999023438 c 0
 490.99609375 499.33203125 495.329101562 473.665039062 495.99609375 418.998046875 c 0
 496.663085938 342.331054688 481.663085938 272.6640625 450.99609375 209.997070312 c 0
 449.663085938 207.330078125 440.663085938 191.663085938 423.99609375 162.99609375 c 1
 428.663085938 151.663085938 444.330078125 140.663085938 470.997070312 129.99609375 c 0
 476.330078125 127.99609375 484.997070312 128.99609375 496.997070312 132.99609375 c 0
 511.6640625 138.329101562 520.6640625 140.49609375 523.997070312 139.49609375 c 0
 540.6640625 135.163085938 546.331054688 127.49609375 540.998046875 116.49609375 c 0
 522.331054688 77.49609375 512.6640625 57.49609375 511.997070312 56.49609375 c 0
 490.6640625 23.49609375 477.331054688 7.8291015625 471.998046875 9.49609375 c 0
 451.998046875 15.1630859375 432.331054688 27.330078125 412.998046875 45.9970703125 c 2
 366.998046875 90.9970703125 l 1
 276.998046875 9.9970703125 l 1
 250.998046875 1.9970703125 216.891601562 -1.669921875 174.678710938 -1.0029296875 c 0
 124.891601562 -0.3359375 83.3310546875 15.3310546875 49.998046875 45.998046875 c 0
 24.6650390625 69.3310546875 11.998046875 103.331054688 11.998046875 147.998046875 c 0
 11.998046875 177.331054688 14.998046875 199.998046875 20.998046875 215.998046875 c 0
 38.3310546875 263.998046875 66.3310546875 308.331054688 104.998046875 348.998046875 c 2
 119.998046875 363.998046875 l 1
 65.3310546875 426.665039062 37.998046875 479.665039062 37.998046875 522.998046875 c 0
 37.998046875 556.331054688 40.3310546875 576.498046875 44.998046875 583.498046875 c 0
 73.6650390625 627.831054688 87.83203125 650.331054688 87.4990234375 650.998046875 c 0
 87.166015625 651.665039062 125.333007812 667.998046875 202 699.998046875 c 1
 210 688.665039062 216.666992188 679.83203125 222 673.499023438 c 0
 227.333007812 667.166015625 245.333007812 644.333007812 276 605 c 0
 306.666992188 565.666992188 322 544.333984375 322 541.000976562 c 0
 322 536.333984375 320.166992188 531.666992188 316.5 527 c 0
 312.833007812 522.333007812 310.666015625 519.333007812 309.999023438 518 c 2
 211.999023438 372 l 1
 226.666015625 350 266.333007812 304.833007812 331 236.5 c 0
105.998046875 567.99609375 m 0
 89.998046875 535.329101562 99.33203125 499.997070312 133.999023438 461.997070312 c 2
 169.999023438 420.997070312 l 1
 197.999023438 459.997070312 l 2
 228.081054688 501.896484375 240.081054688 526.563476562 233.999023438 533.997070312 c 0
 175.33203125 611.330078125 132.665039062 622.663085938 105.998046875 567.99609375 c 0
318.999023438 144.997070312 m 1
 224.999023438 229.998046875 l 1
 172.999023438 302.998046875 l 1
 150.999023438 269.665039062 137.666015625 227.998046875 132.999023438 177.998046875 c 0
 132.33203125 169.998046875 134.33203125 154.998046875 138.999023438 132.998046875 c 0
 140.999023438 122.331054688 148.83203125 110.6640625 162.499023438 97.9970703125 c 0
 168.83203125 91.9970703125 176.34765625 88.1337890625 185.044921875 86.40625 c 0
 202.34765625 82.7998046875 217.999023438 82.6630859375 231.999023438 85.99609375 c 0
 258.666015625 92.6630859375 273.666015625 97.830078125 276.999023438 101.497070312 c 0
 290.999023438 115.830078125 304.999023438 130.330078125 318.999023438 144.997070312 c 1
EndSplineSet
Validated: 524321
EndChar

StartChar: quotesingle
Encoding: 39 39 40
Width: 550
GlyphClass: 1
Flags: W
LayerCount: 2
Fore
SplineSet
114 626 m 0
 114 616.666992188 104 597.666992188 84 569 c 2
 46 513 l 1
 28.6669921875 528.333007812 18 544 14 560 c 0
 14 566 20.6669921875 585.333007812 34 618 c 2
 59 678 l 1
 68 686 l 2
 68.6669921875 685.333007812 71.1669921875 682.5 75.5 677.5 c 0
 79.8330078125 672.5 86 665.333007812 94 656 c 0
 107.333007812 639.333007812 114 629.333007812 114 626 c 0
EndSplineSet
Validated: 524289
EndChar

StartChar: parenleft
Encoding: 40 40 41
Width: 550
GlyphClass: 1
Flags: W
LayerCount: 2
Fore
SplineSet
375 -37 m 1
 342.333007812 -13.6669921875 313.83203125 9.833984375 289.499023438 33.5009765625 c 0
 265.166015625 57.16796875 244.999023438 81.3349609375 228.999023438 106.001953125 c 0
 191.666015625 164.668945312 172.999023438 229.668945312 172.999023438 301.001953125 c 0
 172.999023438 385.668945312 189.33203125 456.668945312 221.999023438 514.001953125 c 0
 250.666015625 564.668945312 301.666015625 617.001953125 374.999023438 671.001953125 c 1
 339.666015625 611.001953125 314.333007812 556.001953125 299 506.001953125 c 0
 282.333007812 453.334960938 274 393.66796875 274 327.000976562 c 0
 274 282.333984375 279.666992188 238.000976562 291 194.000976562 c 0
 297.666992188 167.333984375 311.333984375 128.666992188 332.000976562 78 c 0
 342.66796875 51.3330078125 351.66796875 28.5 359.000976562 9.5 c 0
 366.333984375 -9.5 371.666992188 -25 375 -37 c 1
EndSplineSet
Validated: 524289
EndChar

StartChar: parenright
Encoding: 41 41 42
Width: 550
GlyphClass: 1
Flags: W
LayerCount: 2
Fore
SplineSet
382 294 m 0
 382 221.333007812 362.66796875 156.333984375 324.000976562 99.0009765625 c 0
 293.333984375 52.333984375 244.666992188 4.333984375 178 -44.9990234375 c 1
 184.666992188 -17.666015625 198.666992188 21.6669921875 220 73 c 0
 240.666992188 123.666992188 254.666992188 161.666992188 262 187 c 0
 273.333007812 228.333007812 279 273 279 321 c 0
 279 389 270.666992188 449 254 501 c 0
 246.666992188 525.666992188 236.5 551.666992188 223.5 579 c 0
 210.5 606.333007812 195.333007812 635 178 665 c 1
 248.666992188 613 299.666992188 560.333007812 331 507 c 0
 365 447.666992188 382 376.666992188 382 294 c 0
EndSplineSet
Validated: 524289
EndChar

StartChar: asterisk
Encoding: 42 42 43
Width: 550
GlyphClass: 1
Flags: W
LayerCount: 2
Fore
SplineSet
451 514 m 1
 311 463 l 1
 425 412 l 1
 412 330 l 1
 298 426 l 1
 311 302 l 1
 234 272 l 1
 260 419 l 1
 159 345 l 1
 94 397 l 1
 234 448 l 1
 120 498 l 1
 133 581 l 1
 247 485 l 1
 234 609 l 1
 311 639 l 1
 285 492 l 1
 386 566 l 1
 451 514 l 1
EndSplineSet
Validated: 1
EndChar

StartChar: plus
Encoding: 43 43 44
Width: 550
GlyphClass: 1
Flags: W
LayerCount: 2
Fore
SplineSet
465 288 m 1
 472 281.997070312 l 1
 466 267.997070312 449.666992188 241.330078125 423 201.997070312 c 1
 349 201.997070312 l 2
 348.333007812 200.6640625 348 167.331054688 348 101.998046875 c 0
 348 82.6650390625 334.333007812 72.998046875 307 72.998046875 c 0
 267.666992188 72.998046875 248 76.998046875 248 84.998046875 c 0
 248 97.6650390625 247.666992188 116.33203125 247 140.999023438 c 2
 247 196.999023438 l 2
 247 198.999023438 245.666992188 200.666015625 243 201.999023438 c 2
 126 201.999023438 l 2
 118 201.999023438 114 204.666015625 114 209.999023438 c 0
 114 215.999023438 117.666992188 226.999023438 125 242.999023438 c 0
 129 252.33203125 132.666992188 261.33203125 136 269.999023438 c 0
 142.666992188 281.999023438 149 287.999023438 155 287.999023438 c 2
 242 287.999023438 l 1
 246 291.999023438 l 1
 246 301.33203125 245.666992188 318.33203125 245 342.999023438 c 2
 245 393.999023438 l 2
 245 404.666015625 251.833007812 410.833007812 265.5 412.5 c 0
 279.166992188 414.166992188 292.666992188 415 306 415 c 0
 329.333007812 415 343 409.333007812 347 398 c 0
 348.333007812 392.666992188 349 384 349 372 c 0
 349 364 348.5 352 347.5 336 c 0
 346.5 320 346 308 346 300 c 0
 346 294 347 290 349 288 c 2
 465 288 l 1
EndSplineSet
Validated: 524289
EndChar

StartChar: comma
Encoding: 44 44 45
Width: 550
GlyphClass: 1
Flags: W
LayerCount: 2
Fore
SplineSet
399 74 m 0
 399 58.6669921875 375.333984375 23.6669921875 328.000976562 -31 c 0
 292.000976562 -73 260.66796875 -106.666992188 234.000976562 -132 c 0
 230.000976562 -135.333007812 226.333984375 -137 223.000976562 -137 c 0
 213.66796875 -137 209.000976562 -132 209.000976562 -122 c 0
 209.000976562 -113.333007812 224.000976562 -94 254.000976562 -64 c 0
 284.000976562 -34 299.000976562 -12.3330078125 299.000976562 1 c 0
 299.000976562 8.3330078125 293.000976562 17 281.000976562 27 c 2
 255.000976562 49 l 2
 246.333984375 56.3330078125 237.666992188 65.666015625 229 76.9990234375 c 0
 226.333007812 80.9990234375 225 83.666015625 225 84.9990234375 c 0
 225 86.33203125 225.666992188 87.9990234375 227 89.9990234375 c 0
 245 108.666015625 269.666992188 138.999023438 301 180.999023438 c 0
 303.666992188 185.666015625 306 187.999023438 308 187.999023438 c 0
 316 187.999023438 333.166992188 171.33203125 359.5 137.999023438 c 0
 385.833007812 104.666015625 399 83.3330078125 399 74 c 0
EndSplineSet
Validated: 524289
EndChar

StartChar: hyphen
Encoding: 45 45 46
AltUni2: 0000ad.ffffffff.0 0000ad.ffffffff.0
Width: 550
GlyphClass: 1
Flags: W
LayerCount: 2
Fore
SplineSet
491 299 m 0
 491 293 485.663085938 280.666992188 474.99609375 262 c 0
 462.329101562 239.333007812 455.329101562 225.666015625 453.99609375 220.999023438 c 0
 447.329101562 201.666015625 438.329101562 191.999023438 426.99609375 191.999023438 c 0
 421.663085938 191.999023438 414.330078125 192.33203125 404.997070312 192.999023438 c 0
 393.6640625 193.666015625 386.331054688 194.333007812 382.998046875 195 c 0
 356.331054688 195.666992188 326.998046875 196 294.998046875 196 c 2
 224.998046875 196 l 2
 193.665039062 195.333007812 170.33203125 195 154.999023438 195 c 0
 142.33203125 195 129.999023438 192.166992188 117.999023438 186.5 c 0
 105.999023438 180.833007812 98.666015625 178 95.9990234375 178 c 0
 85.33203125 178 79.9990234375 182 79.9990234375 190 c 0
 79.9990234375 192 84.666015625 205.333007812 93.9990234375 230 c 0
 104.666015625 257.333007812 110.333007812 272.333007812 111 275 c 0
 115.666992188 288.333007812 124 295 136 295 c 2
 281 295 l 2
 345.666992188 294.333007812 394 294 426 294 c 0
 434.666992188 294 444.5 296.5 455.5 301.5 c 0
 466.5 306.5 474.666992188 309 480 309 c 0
 487.333007812 309 491 305.666992188 491 299 c 0
EndSplineSet
Validated: 524289
EndChar

StartChar: period
Encoding: 46 46 47
Width: 550
GlyphClass: 1
Flags: W
LayerCount: 2
Fore
SplineSet
387 102 m 0
 387 98 379.666992188 89.33203125 365 75.9990234375 c 0
 355.666992188 67.33203125 346.666992188 58.33203125 338 48.9990234375 c 0
 329.333007812 39.666015625 321 29.9990234375 313 19.9990234375 c 0
 301 5.33203125 292 -2.0009765625 286 -2.0009765625 c 0
 283.333007812 -2.0009765625 276.333007812 5.666015625 265 20.9990234375 c 2
 243 49.9990234375 l 2
 234.333007812 57.33203125 226 64.9990234375 218 72.9990234375 c 0
 205.333007812 84.33203125 199 92.33203125 199 96.9990234375 c 0
 199 100.999023438 206.333007812 109.666015625 221 122.999023438 c 0
 231 131.666015625 240.333007812 140.833007812 249 150.5 c 0
 257.666992188 160.166992188 265.666992188 170 273 180 c 0
 285.666992188 196.666992188 293.666992188 205 297 205 c 0
 303 205 312.333007812 197.333007812 325 182 c 0
 333 172 341 161.666992188 349 151 c 0
 356.333007812 143 364 135 372 127 c 0
 382 116.333007812 387 108 387 102 c 0
EndSplineSet
Validated: 524289
EndChar

StartChar: slash
Encoding: 47 47 48
Width: 550
GlyphClass: 1
Flags: W
LayerCount: 2
Fore
SplineSet
603 692 m 0
 603 686.666992188 598.66796875 679.999023438 590.000976562 671.999023438 c 0
 578.000976562 661.33203125 571.66796875 655.33203125 571.000976562 653.999023438 c 0
 565.66796875 645.33203125 558.334960938 632.33203125 549.001953125 614.999023438 c 2
 402.001953125 356.999023438 l 2
 344.001953125 252.999023438 254.668945312 97.9990234375 134.001953125 -108.000976562 c 0
 130.001953125 -113.333984375 124.334960938 -122.000976562 117.001953125 -134.000976562 c 0
 113.668945312 -140.000976562 110.168945312 -145.833984375 106.501953125 -151.500976562 c 0
 102.834960938 -157.16796875 95.66796875 -160.000976562 85.0009765625 -160.000976562 c 2
 63.0009765625 -160.000976562 l 1
 41.0009765625 -160.000976562 l 2
 25.0009765625 -160.000976562 4.66796875 -157.333984375 -19.9990234375 -152.000976562 c 0
 -24.666015625 -150.66796875 -26.9990234375 -148.000976562 -26.9990234375 -144.000976562 c 0
 -26.9990234375 -137.333984375 -22.9990234375 -131.000976562 -14.9990234375 -125.000976562 c 0
 -8.9990234375 -120.333984375 -2.666015625 -115.666992188 4.0009765625 -111 c 0
 6.0009765625 -108.333007812 10.66796875 -100 18.0009765625 -86 c 0
 22.66796875 -78 54.66796875 -23.6669921875 114.000976562 77 c 2
 462.000976562 664 l 2
 466.000976562 671.333007812 472.000976562 681 480.000976562 693 c 0
 487.333984375 702.333007812 504.666992188 707 532 707 c 0
 579.333007812 707 603 702 603 692 c 0
EndSplineSet
Validated: 524289
EndChar

StartChar: zero
Encoding: 48 48 49
Width: 550
GlyphClass: 1
Flags: W
LayerCount: 2
Fore
SplineSet
479 272 m 0
 479 206.666992188 465 155.669921875 437 119.002929688 c 0
 417 93.669921875 375.333007812 62.669921875 312 26.0029296875 c 1
 289 7.0029296875 l 2
 279.666992188 0.3359375 270.666992188 -3.3310546875 262 -3.998046875 c 0
 206.666992188 -3.998046875 161 37.3349609375 125 120.001953125 c 0
 96.3330078125 186.001953125 82 250.668945312 82 314.001953125 c 0
 82 431.334960938 137.666992188 522.66796875 249 588.000976562 c 0
 271 601.333984375 286.333007812 608.666992188 295 610 c 0
 344.333007812 610 389 564 429 472 c 0
 462.333007812 394 479 327.333007812 479 272 c 0
422 238.002929688 m 0
 422 284.669921875 402 332.670898438 362 382.00390625 c 0
 320 433.336914062 276 459.00390625 230 459.00390625 c 0
 202 459.00390625 179.166992188 449.336914062 161.5 430.00390625 c 0
 143.833007812 410.670898438 135 386.00390625 135 356.00390625 c 0
 135 311.336914062 155.666992188 264.669921875 197 216.002929688 c 0
 237.666992188 168.002929688 280.666992188 144.002929688 326 144.002929688 c 0
 390 144.002929688 422 175.3359375 422 238.002929688 c 0
EndSplineSet
Validated: 524289
EndChar

StartChar: one
Encoding: 49 49 50
Width: 550
GlyphClass: 1
Flags: W
LayerCount: 2
Fore
SplineSet
121 431.099609375 m 0
 109.666992188 429.033203125 98.6669921875 426.666992188 88 424 c 1
 71 446 l 1
 332 604 l 1
 337 604 l 1
 331 299 l 2
 330.333007812 265 330.333007812 220 331 164 c 2
 331 125 l 2
 331 93.6669921875 338.473632812 78 353.420898438 78 c 2
 420 78 l 2
 426 78 433.666992188 80 443 84 c 0
 452.333007812 88 459 90 463 90 c 0
 469 90 472 87.3330078125 472 82 c 0
 472 77.3330078125 467.666992188 67.3330078125 459 52 c 0
 449 34.6669921875 443.333007812 24 442 20 c 0
 436.666992188 4 429.666992188 -4 421 -4 c 0
 417 -4 411.333007812 -3.6669921875 404 -3 c 0
 394.666992188 -2.3330078125 382 -2 366 -2 c 0
 346 -1.3330078125 304 -0.666015625 240 0.0009765625 c 0
 201.333007812 0.0009765625 161 -0.33203125 119 -0.9990234375 c 2
 103 -0.9990234375 l 2
 93 -0.9990234375 83.1669921875 -3.33203125 73.5 -7.9990234375 c 0
 63.8330078125 -12.666015625 58 -14.9990234375 56 -14.9990234375 c 0
 47.3330078125 -14.9990234375 43 -11.666015625 43 -4.9990234375 c 0
 43 -0.9990234375 46.6669921875 9.66796875 54 27.0009765625 c 0
 56.6669921875 33.66796875 61.333984375 45.66796875 68.0009765625 63.0009765625 c 0
 72.0009765625 73.66796875 78.66796875 79.0009765625 88.0009765625 79.0009765625 c 0
 102.000976562 79.0009765625 126.493164062 78.875 161.4765625 78.623046875 c 1
 206.0703125 86.9208984375 225.578125 113.379882812 220 158.000976562 c 0
 219.333007812 158.000976562 219 160.66796875 219 166.000976562 c 0
 216.333007812 267.333984375 215 327.666992188 215 347 c 0
 213 417.666992188 181.666992188 445.700195312 121 431.099609375 c 0
EndSplineSet
Validated: 524321
EndChar

StartChar: two
Encoding: 50 50 51
Width: 550
GlyphClass: 1
Flags: W
LayerCount: 2
Fore
SplineSet
401 305 m 0
 427 332.184570312 439.998046875 369.852539062 439.998046875 418.000976562 c 0
 439.998046875 471.333984375 416.998046875 516.666992188 370.998046875 554 c 0
 303.665039062 608.666992188 243.998046875 626 191.998046875 606 c 0
 147.331054688 588.666992188 117.331054688 564 101.998046875 532 c 2
 52.998046875 429 l 1
 52.998046875 429 l 1
 147.665039062 483 215.998046875 502.333007812 257.998046875 487 c 0
 307.331054688 469 328.331054688 428.666992188 320.998046875 366 c 0
 317.665039062 336.666992188 273.77734375 275.486328125 189.334960938 182.458984375 c 0
 133.111328125 120.153320312 103.263671875 87.419921875 99.7919921875 84.2587890625 c 0
 78.59765625 65.419921875 56.6669921875 45.333984375 34 24.0009765625 c 1
 34 -0.9990234375 l 1
 391 -0.9990234375 l 2
 427 -0.9990234375 473.333007812 45.66796875 530 139.000976562 c 1
 526 139.66796875 522.666992188 140.16796875 520 140.500976562 c 0
 517.333007812 140.833984375 515.333007812 141.000976562 514 141.000976562 c 2
 500 141.000976562 l 2
 484.666992188 141.000976562 467.5 140.000976562 448.5 138.000976562 c 0
 429.5 136.000976562 408.333007812 133.333984375 385 130.000976562 c 0
 315 120.000976562 271.333007812 115.000976562 254 115.000976562 c 2
 227 115.000976562 l 1
 263.666992188 154.333984375 321.666992188 217.666992188 401 305 c 0
EndSplineSet
Validated: 524325
EndChar

StartChar: three
Encoding: 51 51 52
Width: 550
GlyphClass: 1
Flags: W
LayerCount: 2
Fore
SplineSet
493 213 m 0
 493 155.666992188 470.001953125 105.66796875 424.001953125 63.0009765625 c 0
 378.668945312 20.333984375 327.001953125 -0.9990234375 269.001953125 -0.9990234375 c 0
 227.001953125 -0.9990234375 180.001953125 16.0009765625 128.001953125 50.0009765625 c 0
 74.001953125 86.0009765625 47.001953125 125.000976562 47.001953125 167.000976562 c 1
 69.001953125 167.000976562 l 1
 117.668945312 119.000976562 170.3359375 95.0009765625 227.002929688 95.0009765625 c 0
 256.3359375 95.0009765625 284.668945312 105.66796875 312.001953125 127.000976562 c 0
 338.668945312 149.000976562 352.001953125 175.000976562 352.001953125 205.000976562 c 0
 352.001953125 240.333984375 335.001953125 264.666992188 301.001953125 278 c 0
 283.668945312 284.666992188 251.001953125 288 203.001953125 288 c 1
 203.001953125 341 l 1
 233.001953125 341 261.001953125 345.666992188 287.001953125 355 c 0
 321.001953125 367.666992188 338.001953125 387 338.001953125 413 c 0
 338.001953125 432.333007812 324.334960938 448 297.001953125 460 c 0
 275.001953125 470 253.001953125 475 231.001953125 475 c 0
 200.334960938 475 169.66796875 468 139.000976562 454 c 1
 139.000976562 466 l 2
 139.000976562 477.333007812 148.000976562 504 166.000976562 546 c 0
 188.000976562 596.666992188 208.333984375 622 227.000976562 622 c 0
 268.333984375 622 313.666992188 604 363 568 c 0
 414.333007812 530 440 490.666992188 440 450 c 0
 440 433.333007812 432.666992188 414.666015625 418 393.999023438 c 2
 384 343.999023438 l 1
 454 288.999023438 l 2
 480 267.666015625 493 242.333007812 493 213 c 0
EndSplineSet
Validated: 524289
EndChar

StartChar: four
Encoding: 52 52 53
Width: 550
GlyphClass: 1
Flags: W
LayerCount: 2
Fore
SplineSet
513 291 m 1
 509 228 l 1
 459 214 l 1
 455 132 l 2
 452.333007812 78 456.333007812 34 467 0 c 1
 351 0 l 1
 349 209 l 1
 20 179 l 1
 436 593 l 1
 459 593 l 1
 459 291 l 1
 513 291 l 1
359 431 m 1
 168 257 l 1
 349 276 l 1
 359 431 l 1
EndSplineSet
Validated: 524321
EndChar

StartChar: five
Encoding: 53 53 54
Width: 550
GlyphClass: 1
Flags: W
LayerCount: 2
Fore
SplineSet
70 320 m 0
 66.7783203125 310.64453125 66.779296875 305.643554688 70.0009765625 304.999023438 c 0
 140.66796875 304.999023438 203.66796875 296.999023438 259.000976562 280.999023438 c 0
 345.000976562 255.666015625 388.000976562 221.666015625 388.000976562 178.999023438 c 0
 388.000976562 168.999023438 386.16796875 158.83203125 382.500976562 148.499023438 c 0
 378.833984375 138.166015625 373.666992188 128.666015625 367 119.999023438 c 0
 360.333007812 111.33203125 352.833007812 103.499023438 344.5 96.4990234375 c 0
 331.5 85.4990234375 321.333007812 79.33203125 314 77.9990234375 c 1
 121 205.999023438 l 1
 107 199.33203125 91 188.999023438 73 174.999023438 c 0
 53 160.33203125 38 146.999023438 28 134.999023438 c 1
 238 -11.0009765625 l 1
 312.666992188 24.33203125 367 56.33203125 401 84.9990234375 c 0
 465 138.999023438 497 185.666015625 497 224.999023438 c 0
 497 314.999023438 427.333007812 370.999023438 288 392.999023438 c 0
 256 397.666015625 224 402.499023438 192 407.499023438 c 0
 166 411.83203125 152.333007812 414.33203125 151 414.999023438 c 0
 164.333007812 451.666015625 173.666015625 475.999023438 178.999023438 487.999023438 c 1
 415.999023438 487.999023438 l 2
 474.666015625 487.999023438 503.999023438 523.666015625 503.999023438 594.999023438 c 2
 503.999023438 603.999023438 l 1
 482.666015625 598.666015625 451.333007812 596.666015625 410 597.999023438 c 0
 410 598.844726562 371.333007812 600.177734375 294 601.999023438 c 0
 215.333007812 604.666015625 173.375976562 605.654296875 168.12890625 604.963867188 c 0
 159.565429688 602.420898438 126.85546875 507.432617188 70 320 c 0
EndSplineSet
Validated: 524329
EndChar

StartChar: six
Encoding: 54 54 55
Width: 550
GlyphClass: 1
Flags: W
LayerCount: 2
Fore
SplineSet
524 246 m 0
 524 196.666992188 494.666992188 141.3359375 436 80.0029296875 c 0
 379.333007812 21.3359375 321.333007812 -7.9970703125 262 -7.9970703125 c 0
 206.666992188 -7.9970703125 153.666992188 25.669921875 103 93.0029296875 c 0
 53.6669921875 158.3359375 29 232.668945312 29 316.001953125 c 2
 29 327.001953125 l 2
 29 371.001953125 51 418.668945312 95 470.001953125 c 0
 129.666992188 510.668945312 170.666992188 546.668945312 218 578.001953125 c 0
 269.333007812 612.668945312 314.333007812 630.001953125 353 630.001953125 c 1
 371 613.001953125 l 1
 371 602.001953125 l 1
 334.333007812 590.001953125 289.333007812 557.668945312 236 505.001953125 c 0
 174.922851562 444.588867188 146.255859375 391.921875 149.999023438 347.000976562 c 2
 150.999023438 335.000976562 l 1
 175.666015625 358.333984375 201.333007812 381.666992188 228 405 c 0
 260 432.333007812 291.333007812 446 322 446 c 0
 384.666992188 446 434.666992188 423.333007812 472 378 c 0
 506.666992188 335.333007812 524 291.333007812 524 246 c 0
421 188.001953125 m 0
 421 226.001953125 410.000976562 260.001953125 388.000976562 290.001953125 c 0
 348.66796875 344.001953125 298.000976562 360.668945312 236.000976562 340.001953125 c 0
 212.66796875 332.001953125 195.000976562 320.668945312 183.000976562 306.001953125 c 0
 173.000976562 294.001953125 168.000976562 280.334960938 168.000976562 265.001953125 c 0
 168.000976562 231.001953125 176.000976562 202.001953125 192.000976562 178.001953125 c 0
 213.333984375 146.668945312 239.333984375 120.001953125 270.000976562 98.001953125 c 0
 289.630859375 83.4931640625 309.963867188 77.826171875 331.000976562 81.001953125 c 0
 366.333984375 85.6689453125 390.666992188 100.001953125 404 124.001953125 c 0
 415.333007812 143.05078125 421 164.383789062 421 188.001953125 c 0
EndSplineSet
Validated: 524321
EndChar

StartChar: seven
Encoding: 55 55 56
Width: 550
GlyphClass: 1
Flags: W
LayerCount: 2
Fore
SplineSet
103 478 m 2
 88.9990234375 467.999023438 l 1
 72.9990234375 457.999023438 l 2
 57.666015625 448.666015625 44.9990234375 443.333007812 34.9990234375 442 c 1
 44.9990234375 474 56.666015625 518 69.9990234375 574 c 0
 76.666015625 598.666992188 87.666015625 611 102.999023438 611 c 2
 221.999023438 613 l 2
 395.5390625 617.672851562 483.206054688 619.672851562 484.999023438 619 c 0
 511.666015625 619.666992188 524.999023438 614.666992188 524.999023438 604 c 0
 524.999023438 598 472.33203125 498.666992188 366.999023438 306 c 0
 261.666015625 113.333007812 204.333007812 13.3330078125 195 6 c 1
 84 6 l 1
 84 18 l 1
 411 505 l 1
 259.666992188 525.666992188 157 516.666992188 103 478 c 2
EndSplineSet
Validated: 524321
EndChar

StartChar: eight
Encoding: 56 56 57
Width: 550
GlyphClass: 1
Flags: W
LayerCount: 2
Fore
SplineSet
488 177 m 0
 488 154.333007812 457.333984375 117.331054688 396.000976562 65.998046875 c 0
 334.66796875 15.998046875 291.66796875 -9.001953125 267.000976562 -9.001953125 c 0
 242.333984375 -9.001953125 200.000976562 14.998046875 140.000976562 62.998046875 c 0
 80.0009765625 110.998046875 50.0009765625 146.331054688 50.0009765625 168.998046875 c 0
 50.0009765625 192.331054688 67.333984375 216.998046875 102.000976562 242.998046875 c 2
 182.000976562 302.998046875 l 1
 110.000976562 361.998046875 l 2
 78.0009765625 387.998046875 62.0009765625 410.665039062 62.0009765625 429.998046875 c 0
 62.0009765625 448.665039062 91.0009765625 482.665039062 149.000976562 531.998046875 c 0
 208.333984375 581.331054688 247.666992188 605.998046875 267 605.998046875 c 0
 289.666992188 605.998046875 329.666992188 581.665039062 387 532.998046875 c 0
 445 483.665039062 474 449.33203125 474 429.999023438 c 0
 474 413.999023438 456.333007812 390.33203125 421 358.999023438 c 2
 369 313.999023438 l 2
 369 309.999023438 379.333007812 300.666015625 400 285.999023438 c 0
 426 267.999023438 445.333007812 251.999023438 458 237.999023438 c 0
 478 216.666015625 488 196.333007812 488 177 c 0
369.000976562 396.998046875 m 0
 369.000976562 404.331054688 346.66796875 426.999023438 302.000976562 464.999023438 c 0
 258.66796875 503.666015625 232.66796875 522.999023438 224.000976562 522.999023438 c 0
 218.66796875 522.999023438 209.000976562 514.999023438 195.000976562 498.999023438 c 0
 181.000976562 482.999023438 174.000976562 471.999023438 174.000976562 465.999023438 c 0
 174.000976562 461.33203125 196.66796875 440.999023438 242.000976562 404.999023438 c 0
 282.000976562 372.999023438 310.000976562 351.999023438 326.000976562 341.999023438 c 1
 350.000976562 368.999023438 l 2
 362.66796875 382.33203125 369.000976562 391.665039062 369.000976562 396.998046875 c 0
376.000976562 136.999023438 m 0
 376.000976562 146.33203125 351.333984375 171.666015625 302.000976562 212.999023438 c 0
 256.000976562 250.999023438 230.000976562 269.999023438 224.000976562 269.999023438 c 0
 216.66796875 269.999023438 204.66796875 260.999023438 188.000976562 242.999023438 c 0
 172.000976562 226.999023438 163.333984375 214.666015625 162.000976562 205.999023438 c 0
 162.000976562 191.999023438 184.66796875 169.33203125 230.000976562 137.999023438 c 2
 318.000976562 78.9990234375 l 2
 324.000976562 78.9990234375 335.000976562 86.9990234375 351.000976562 102.999023438 c 0
 367.66796875 118.999023438 376.000976562 130.33203125 376.000976562 136.999023438 c 0
EndSplineSet
Validated: 524289
EndChar

StartChar: nine
Encoding: 57 57 58
Width: 550
GlyphClass: 1
Flags: W
LayerCount: 2
Fore
SplineSet
465 326 m 0
 465 236 431.668945312 160.66796875 365.001953125 100.000976562 c 0
 345.001953125 82.0009765625 314.001953125 62.0009765625 272.001953125 40.0009765625 c 0
 221.334960938 13.333984375 188.66796875 0.0009765625 174.000976562 0.0009765625 c 1
 164.66796875 4.66796875 159.66796875 11.66796875 159.000976562 21.0009765625 c 1
 165.000976562 28.0009765625 l 1
 232.000976562 74.0009765625 l 2
 253.333984375 88.66796875 273.333984375 108.66796875 292.000976562 134.000976562 c 0
 300.000976562 145.333984375 307.000976562 155.833984375 313.000976562 165.500976562 c 0
 329.000976562 194.500976562 339.000976562 227.333984375 343.000976562 264.000976562 c 2
 345.000976562 284.000976562 l 1
 344.000976562 284.000976562 l 1
 306.000976562 244.000976562 285.66796875 222.66796875 283.000976562 220.000976562 c 0
 246.333984375 190.000976562 204.333984375 175.000976562 157.000976562 175.000976562 c 0
 123.000976562 175.000976562 89.333984375 198.66796875 56.0009765625 246.000976562 c 0
 26.0009765625 288.66796875 11.0009765625 328.66796875 11.0009765625 366.000976562 c 0
 11.0009765625 414.71484375 35.66796875 468.381835938 85.0009765625 527.000976562 c 0
 141.66796875 594.333984375 207.66796875 628.333984375 283.000976562 629.000976562 c 0
 286.333984375 629.000976562 298.666992188 621.000976562 320 605.000976562 c 0
 342 589.000976562 362 570.500976562 380 549.500976562 c 0
 398 528.500976562 413.166992188 506.000976562 425.5 482.000976562 c 0
 437.833007812 458.000976562 447.5 432.66796875 454.5 406.000976562 c 0
 461.5 379.333984375 465 352.666992188 465 326 c 0
352.001953125 363.000976562 m 0
 350.668945312 397.66796875 330.668945312 434.330078125 292.001953125 472.997070312 c 0
 250.668945312 514.330078125 227.001953125 535.330078125 221.001953125 535.997070312 c 0
 170.334960938 540.6640625 137.001953125 526.331054688 121.001953125 492.998046875 c 0
 109.001953125 467.665039062 103.001953125 447.33203125 103.001953125 431.999023438 c 0
 103.001953125 367.999023438 130.334960938 321.33203125 185.001953125 291.999023438 c 0
 220.334960938 272.666015625 249.001953125 269.333007812 271.001953125 282 c 0
 292.334960938 294.666992188 311.001953125 308.333984375 327.001953125 323.000976562 c 0
 343.668945312 339.000976562 352.001953125 352.333984375 352.001953125 363.000976562 c 0
EndSplineSet
Validated: 524321
EndChar

StartChar: colon
Encoding: 58 58 59
Width: 550
GlyphClass: 1
Flags: W
LayerCount: 2
Fore
SplineSet
263 295 m 1
 257.666992188 299 231.333007812 325.33203125 184 373.999023438 c 1
 189.333007812 384.666015625 202 401.666015625 222 424.999023438 c 0
 240 446.33203125 251.333007812 463.665039062 256 476.998046875 c 1
 264 473.665039062 281.333007812 459.665039062 308 434.998046875 c 0
 334.666992188 410.331054688 348 395.331054688 348 389.998046875 c 0
 348 388.665039062 347.333007812 387.33203125 346 385.999023438 c 0
 328.666992188 364.666015625 301 334.333007812 263 295 c 1
258.999023438 12.9990234375 m 0
 256.33203125 12.9990234375 242.49609375 25.6669921875 217.49609375 51 c 0
 192.49609375 76.3330078125 179.663085938 90 178.99609375 92 c 0
 184.99609375 103.333007812 196.329101562 119.166015625 212.99609375 139.499023438 c 0
 229.663085938 159.83203125 241.330078125 175.999023438 247.997070312 187.999023438 c 0
 250.6640625 193.999023438 253.331054688 196.999023438 255.998046875 196.999023438 c 0
 258.665039062 196.999023438 274.33203125 183.666015625 302.999023438 156.999023438 c 0
 331.666015625 130.33203125 345.999023438 115.33203125 345.999023438 111.999023438 c 0
 345.999023438 107.999023438 333.999023438 92.9990234375 309.999023438 66.9990234375 c 0
 295.33203125 50.9990234375 280.665039062 35.33203125 265.998046875 19.9990234375 c 0
 262.665039062 15.33203125 260.33203125 12.9990234375 258.999023438 12.9990234375 c 0
EndSplineSet
Validated: 524289
EndChar

StartChar: semicolon
Encoding: 59 59 60
Width: 550
GlyphClass: 1
Flags: W
LayerCount: 2
Fore
SplineSet
350 432 m 0
 350 413.333007812 323.33203125 381.000976562 269.999023438 335.000976562 c 1
 264.666015625 339.66796875 238.333007812 366.000976562 191 414.000976562 c 1
 196.333007812 424.66796875 209 441.66796875 229 465.000976562 c 0
 247 486.333984375 258.333007812 503.666992188 263 517 c 1
 277.666992188 511 295 499 315 481 c 0
 338.333007812 461 350 444.666992188 350 432 c 0
349.999023438 126.000976562 m 0
 349.999023438 102.000976562 330.666015625 67.66796875 291.999023438 23.0009765625 c 2
 205.999023438 -70.9990234375 l 1
 196.666015625 -68.33203125 191.666015625 -66.9990234375 190.999023438 -66.9990234375 c 0
 186.999023438 -64.9990234375 184.999023438 -60.33203125 184.999023438 -52.9990234375 c 0
 184.999023438 -45.666015625 194.83203125 -28.166015625 214.499023438 -0.4990234375 c 0
 234.166015625 27.16796875 243.999023438 47.0009765625 243.999023438 59.0009765625 c 0
 243.999023438 71.0009765625 224.33203125 97.333984375 184.999023438 138.000976562 c 1
 192.33203125 150.66796875 205.499023438 167.500976562 224.499023438 188.500976562 c 0
 243.499023438 209.500976562 256.33203125 225.000976562 262.999023438 235.000976562 c 1
 274.999023438 231.000976562 292.499023438 214.833984375 315.499023438 186.500976562 c 0
 338.499023438 158.16796875 349.999023438 138.000976562 349.999023438 126.000976562 c 0
EndSplineSet
Validated: 524289
EndChar

StartChar: less
Encoding: 60 60 61
Width: 550
GlyphClass: 1
Flags: W
LayerCount: 2
Fore
SplineSet
354 458 m 0
 358 458 364.000976562 454.666015625 372.000976562 447.999023438 c 0
 380.000976562 441.33203125 384.000976562 436.33203125 384.000976562 432.999023438 c 0
 384.000976562 428.999023438 366.000976562 398.33203125 330.000976562 340.999023438 c 0
 299.333984375 292.999023438 277.333984375 259.666015625 264.000976562 240.999023438 c 1
 274.66796875 225.666015625 295.66796875 192.666015625 327.000976562 141.999023438 c 0
 362.333984375 85.9990234375 380.000976562 55.9990234375 380.000976562 51.9990234375 c 0
 380.000976562 48.666015625 375.833984375 44.3330078125 367.500976562 39 c 0
 359.16796875 33.6669921875 353.000976562 31 349.000976562 31 c 0
 345.66796875 31 267.66796875 102 115.000976562 244 c 1
 114.000976562 249 l 2
 114.000976562 251 119.16796875 255.5 129.500976562 262.5 c 0
 139.833984375 269.5 179.666992188 305 249 369 c 0
 313.666992188 428.333007812 348.666992188 458 354 458 c 0
EndSplineSet
Validated: 524289
EndChar

StartChar: equal
Encoding: 61 61 62
Width: 550
GlyphClass: 1
Flags: W
LayerCount: 2
Fore
SplineSet
492 211 m 0
 492 206.333007812 487.666015625 196.333007812 478.999023438 181 c 0
 468.999023438 163.666992188 463.33203125 153 461.999023438 149 c 0
 456.666015625 133 449.666015625 125 440.999023438 125 c 0
 436.999023438 125 431.33203125 125.333007812 423.999023438 126 c 0
 414.666015625 126.666992188 408.666015625 127 405.999023438 127 c 0
 384.666015625 128.333007812 345.999023438 129 289.999023438 129 c 0
 233.999023438 129 193.666015625 128.666992188 168.999023438 128 c 2
 112.999023438 128 l 2
 102.999023438 128 93.166015625 125.666992188 83.4990234375 121 c 0
 73.83203125 116.333007812 67.9990234375 114 65.9990234375 114 c 0
 57.33203125 114 52.9990234375 117.333007812 52.9990234375 124 c 0
 52.9990234375 128 56.666015625 138.666992188 63.9990234375 156 c 0
 66.666015625 162.666992188 71.3330078125 174.666992188 78 192 c 0
 82 202.666992188 88.6669921875 208 98 208 c 0
 164 208 222.666992188 207.666992188 274 207 c 2
 440 207 l 2
 446 207 453.666992188 209 463 213 c 0
 472.333007812 217 479 219 483 219 c 0
 489 219 492 216.333007812 492 211 c 0
491.999023438 371 m 0
 491.999023438 366.333007812 487.665039062 356.333007812 478.998046875 341 c 0
 468.998046875 323.666992188 463.331054688 313 461.998046875 309 c 0
 456.665039062 293 449.665039062 285 440.998046875 285 c 0
 436.998046875 285 431.331054688 285.333007812 423.998046875 286 c 0
 414.665039062 286.666992188 408.665039062 287 405.998046875 287 c 0
 384.665039062 288.333007812 345.998046875 289 289.998046875 289 c 0
 233.998046875 289 193.665039062 288.666992188 168.998046875 288 c 2
 112.998046875 288 l 2
 102.998046875 288 93.1650390625 285.666992188 83.498046875 281 c 0
 73.8310546875 276.333007812 67.998046875 274 65.998046875 274 c 0
 57.3310546875 274 52.998046875 277.333007812 52.998046875 284 c 0
 52.998046875 288 56.6650390625 298.666992188 63.998046875 316 c 0
 66.6650390625 322.666992188 71.33203125 334.666992188 77.9990234375 352 c 0
 81.9990234375 362.666992188 88.666015625 368 97.9990234375 368 c 0
 163.999023438 368 222.666015625 367.666992188 273.999023438 367 c 2
 439.999023438 367 l 2
 445.999023438 367 453.666015625 369 462.999023438 373 c 0
 472.33203125 377 478.999023438 379 482.999023438 379 c 0
 488.999023438 379 491.999023438 376.333007812 491.999023438 371 c 0
EndSplineSet
Validated: 524289
EndChar

StartChar: greater
Encoding: 62 62 63
Width: 550
GlyphClass: 1
Flags: W
LayerCount: 2
Fore
SplineSet
185 458 m 0
 190.333007812 458 225.333007812 428.333984375 290 369.000976562 c 0
 360 305.000976562 400 269.500976562 410 262.500976562 c 0
 420 255.500976562 425 251.000976562 425 249.000976562 c 2
 425 244.000976562 l 1
 271.666992188 102.000976562 193.333984375 31.0009765625 190.000976562 31.0009765625 c 0
 186.000976562 31.0009765625 179.833984375 33.66796875 171.500976562 39.0009765625 c 0
 163.16796875 44.333984375 159.000976562 48.6669921875 159.000976562 52 c 0
 159.000976562 56 176.66796875 86 212.000976562 142 c 0
 243.333984375 192.666992188 264.333984375 225.666992188 275.000976562 241 c 1
 262.333984375 259.666992188 240.333984375 293 209.000976562 341 c 0
 173.000976562 398.333007812 155.000976562 429 155.000976562 433 c 0
 155.000976562 436.333007812 159.16796875 441.333007812 167.500976562 448 c 0
 175.833984375 454.666992188 181.666992188 458 185 458 c 0
EndSplineSet
Validated: 524289
EndChar

StartChar: question
Encoding: 63 63 64
Width: 550
GlyphClass: 1
Flags: W
LayerCount: 2
Fore
SplineSet
221.279296875 163.008789062 m 1
 254.818359375 180.760742188 l 1
 273.397460938 184.868164062 l 1
 272.2734375 191.618164062 273.150390625 196.495117188 276.028320312 199.498046875 c 0
 284.913085938 247.611328125 328.45703125 293.052734375 406.661132812 335.823242188 c 0
 464.15234375 367.013671875 486.383789062 433.90234375 473.35546875 536.489257812 c 0
 466.458007812 590.083984375 438.205078125 631.885742188 388.595703125 661.89453125 c 0
 337.4921875 692.836914062 281.880859375 703.458984375 221.76171875 693.760742188 c 0
 175.895507812 686.486328125 137.490234375 668.73828125 106.545898438 640.517578125 c 0
 71.72265625 609.125 57.7919921875 570.541015625 64.75390625 524.766601562 c 0
 68.3037109375 503.356445312 80.6904296875 479.974609375 101.915039062 454.622070312 c 0
 126.057617188 426.703125 147.28125 413.796875 165.584960938 415.903320312 c 0
 175.77734375 417.190429688 195.590820312 452.63671875 225.024414062 522.241210938 c 1
 186.177734375 541.6328125 165.864257812 557.37890625 164.083984375 569.479492188 c 0
 162.030273438 580.39453125 168.556640625 594.895507812 183.662109375 612.983398438 c 0
 197.82421875 630.181640625 210.868164062 639.62109375 222.79296875 641.30078125 c 0
 252.407226562 645.86328125 279.23046875 633.823242188 303.262695312 605.180664062 c 0
 324.70703125 579.893554688 337.478515625 551.849609375 341.576171875 521.048828125 c 0
 350.725585938 452.002929688 328.334960938 388.659179688 274.404296875 331.017578125 c 0
 245.684570312 300.553710938 228.609375 265.100585938 223.178710938 224.659179688 c 1
 221.279296875 163.008789062 l 1
310 62.0009765625 m 0
 310 56.66796875 301.666992188 44.6689453125 285 26.001953125 c 0
 270.333007812 9.3349609375 259.666015625 -1.33203125 252.999023438 -5.9990234375 c 1
 202.33203125 32.66796875 176.999023438 58.0009765625 176.999023438 70.0009765625 c 1
 211.666015625 116.66796875 235.333007812 140.000976562 248 140.000976562 c 0
 258.666992188 140.000976562 271.666992188 130.000976562 287 110.000976562 c 0
 302.333007812 89.333984375 310 73.333984375 310 62.0009765625 c 0
EndSplineSet
Validated: 524329
EndChar

StartChar: at
Encoding: 64 64 65
Width: 550
GlyphClass: 1
Flags: W
LayerCount: 2
Fore
SplineSet
385.438476562 246.905273438 m 0
 383.146484375 249.634765625 380.673828125 252.788085938 378.036132812 256.361328125 c 2
 364.510742188 274.309570312 l 2
 362.056640625 277.583984375 360.827148438 279.29296875 360.822265625 279.4375 c 0
 359.470703125 281.333984375 359.09375 291.573242188 359.69140625 310.155273438 c 0
 356.559570312 394.088867188 357.994140625 438.704101562 363.995117188 444.001953125 c 0
 363.995117188 444.668945312 367.241210938 447.53515625 373.734375 452.600585938 c 0
 379.908203125 458.202148438 383.391601562 465.040039062 384.185546875 473.11328125 c 0
 385.374023438 480.263671875 377.586914062 489.665039062 360.82421875 501.317382812 c 1
 360.938476562 501.107421875 350.282226562 508.514648438 328.85546875 523.540039062 c 2
 269.21875 571.403320312 l 2
 264.403320312 570.46875 248.213867188 554.229492188 220.650390625 522.684570312 c 0
 195.547851562 494.229492188 178.743164062 474.287109375 170.236328125 462.856445312 c 0
 142.743164062 424.287109375 129.012695312 386.509765625 129.045898438 349.524414062 c 0
 129.012695312 321.176757812 138.439453125 286.418945312 157.326171875 245.25 c 0
 169.772460938 217.751953125 192.99609375 204.002929688 226.99609375 204.002929688 c 1
 244.329101562 212.669921875 257.42578125 223.05859375 266.286132812 235.168945312 c 0
 272.092773438 243.724609375 274.92578125 265.057617188 274.786132812 299.16796875 c 1
 270.259765625 298.390625 266.663085938 296.001953125 263.99609375 292.001953125 c 0
 246.663085938 268.668945312 228.525390625 278.44140625 209.583984375 321.319335938 c 0
 197.192382812 349.108398438 191.043945312 366.373046875 191.139648438 373.11328125 c 0
 191.043945312 391.706054688 195.962890625 413.643554688 205.895507812 438.92578125 c 0
 217.295898438 468.977539062 228.567382812 483.791992188 239.708984375 483.370117188 c 0
 244.567382812 483.125 254.404296875 476.001953125 269.219726562 462.000976562 c 0
 283.071289062 448.66796875 292.499023438 438.981445312 297.501953125 432.94140625 c 1
 297.83203125 368.315429688 297.83203125 330.538085938 297.501953125 319.609375 c 0
 297.165039062 301.204101562 296.926757812 280.723632812 296.787109375 258.16796875 c 0
 296.926757812 236.057617188 312.663085938 213.001953125 343.99609375 189.001953125 c 0
 344.663085938 185.001953125 372.330078125 187.334960938 426.997070312 196.001953125 c 0
 500.997070312 207.334960938 537.997070312 282.001953125 537.997070312 420.001953125 c 0
 537.997070312 502.001953125 513.6640625 570.334960938 464.997070312 625.001953125 c 0
 433.6640625 660.334960938 407.497070312 678.501953125 386.497070312 679.501953125 c 0
 357.497070312 680.501953125 342.6640625 681.001953125 341.997070312 681.001953125 c 0
 331.997070312 682.334960938 310.6640625 682.66796875 277.997070312 682.000976562 c 2
 231.997070312 680.000976562 l 2
 218.6640625 679.333984375 205.331054688 677.333984375 191.998046875 674.000976562 c 0
 164.665039062 667.333984375 135.665039062 648.666992188 104.998046875 618 c 0
 40.998046875 554 8.998046875 463.666992188 8.998046875 347 c 0
 8.998046875 227 48.6650390625 130.333007812 127.998046875 57 c 0
 172.665039062 15.6669921875 218.33203125 -5 264.999023438 -5 c 0
 287.666015625 -5 320.666015625 9.3330078125 363.999023438 38 c 0
 394.666015625 58.6669921875 409.999023438 73.6669921875 409.999023438 83 c 0
 409.999023438 91.6669921875 405.666015625 96 396.999023438 96 c 0
 393.666015625 96 389.666015625 95 384.999023438 93 c 0
 354.999023438 80.3330078125 334.33203125 74 322.999023438 74 c 0
 303.666015625 74 279.666015625 81.3330078125 250.999023438 96 c 0
 140.33203125 152.666992188 84.9990234375 251 84.9990234375 391 c 0
 84.9990234375 455 97.9990234375 507.666992188 123.999023438 549 c 0
 154.666015625 599 200.333007812 624 261 624 c 0
 323 624 373.666992188 596 413 540 c 0
 447.666992188 490.666992188 465 433 465 367 c 0
 465 339 461.666992188 313 455 289 c 0
 437 227 413.8125 212.96875 385.438476562 246.905273438 c 0
EndSplineSet
Validated: 524329
EndChar

StartChar: A
Encoding: 65 65 66
Width: 550
GlyphClass: 1
Flags: W
LayerCount: 2
Fore
SplineSet
368.303710938 548.741210938 m 2
 441 535 l 2
 461 531 478.333007812 545.333007812 493 578 c 2
 517 650 l 1
 171 650 l 2
 150.333007812 650 121.666015625 636 84.9990234375 608 c 0
 48.33203125 580 26.33203125 546.666992188 18.9990234375 508 c 1
 84.9990234375 545 l 2
 109.666015625 559 135.333007812 566 162 566 c 1
 7 2 l 1
 33 2 l 1
 40.3330078125 10.6669921875 46 16.1669921875 50 18.5 c 0
 62 25.5 68.5419921875 30.2939453125 69.625 32.8818359375 c 0
 74.5419921875 44.9609375 83.6669921875 74.833984375 97 122.500976562 c 0
 113 181.500976562 123.333007812 211.333984375 128 212.000976562 c 0
 246 212.000976562 309.42578125 211.66796875 318.278320312 211.000976562 c 1
 324.092773438 189.000976562 330 166.66796875 336 144.000976562 c 2
 378 0.0009765625 l 1
 538 0.0009765625 l 1
 511 46.0009765625 l 1
 415.666992188 381.333984375 368.1015625 548.9140625 368.303710938 548.741210938 c 2
137 284 m 1
 151 338.666992188 172.333007812 424.416992188 201 541.25 c 1
 205.666992188 541.75 221.666992188 542 249 542 c 1
 306 285 l 1
 137 284 l 1
EndSplineSet
Validated: 524329
EndChar

StartChar: B
Encoding: 66 66 67
Width: 550
GlyphClass: 1
Flags: W
LayerCount: 2
Fore
SplineSet
540 199 m 0
 540 149 507.000976562 99.6689453125 441.000976562 51.001953125 c 0
 379.66796875 6.3349609375 336.000976562 -15.998046875 310.000976562 -15.998046875 c 0
 289.333984375 -15.998046875 256.666992188 -11.3310546875 212 -1.998046875 c 0
 167.333007812 7.3349609375 138 12.001953125 124 12.001953125 c 0
 104.666992188 12.001953125 89 9.3349609375 77 4.001953125 c 0
 70.3330078125 1.3349609375 54 -5.33203125 28 -15.9990234375 c 1
 28 5.0009765625 l 1
 54 50.0009765625 l 2
 72 81.333984375 81 106.666992188 81 126 c 2
 81 410 l 2
 81 467.333007812 61 505 21 523 c 1
 21 546 l 1
 32.3330078125 548 49.3330078125 553.666992188 72 563 c 0
 124 585 157.333007812 598.666992188 172 604 c 0
 241.333007812 630 287 643 309 643 c 0
 337 643 369.666992188 632 407 610 c 0
 450.333007812 584 472 549.666992188 472 507 c 0
 472 478.708007812 460.666992188 455.708007812 438 438 c 2
 374 388 l 1
 481 309 l 2
 520.333007812 279.666992188 540 243 540 199 c 0
319.000976562 427.001953125 m 0
 346.333984375 454.334960938 360.000976562 481.001953125 360.000976562 507.001953125 c 0
 360.000976562 519.001953125 357.750976562 530.084960938 353.250976562 540.251953125 c 0
 347.750976562 552.084960938 341.66796875 562.334960938 335.000976562 571.001953125 c 0
 329.66796875 578.334960938 323.250976562 585.084960938 315.750976562 591.251953125 c 0
 310.583984375 595.751953125 302.000976562 598.001953125 290.000976562 598.001953125 c 0
 268.000976562 598.001953125 242.66796875 586.334960938 214.000976562 563.001953125 c 0
 191.482421875 543.794921875 180.482421875 513.461914062 181.000976562 472.001953125 c 2
 182.000976562 392.001953125 l 1
 184.000976562 313.001953125 l 1
 190.66796875 305.668945312 235.66796875 343.668945312 319.000976562 427.001953125 c 0
405.000976562 147.001953125 m 0
 400.333984375 177.668945312 386.333984375 213.668945312 363.000976562 255.001953125 c 0
 341.000976562 293.668945312 318.333984375 313.001953125 295.000976562 313.001953125 c 0
 281.66796875 313.001953125 258.334960938 301.668945312 225.001953125 279.001953125 c 0
 197.668945312 260.334960938 184.001953125 244.001953125 184.001953125 230.001953125 c 0
 184.001953125 165.334960938 191.001953125 121.334960938 205.001953125 98.001953125 c 0
 230.334960938 55.3349609375 267.66796875 34.001953125 317.000976562 34.001953125 c 0
 319.000976562 34.001953125 334.333984375 45.6689453125 363.000976562 69.001953125 c 0
 395.000976562 95.001953125 409.000976562 121.001953125 405.000976562 147.001953125 c 0
EndSplineSet
Validated: 524321
EndChar

StartChar: C
Encoding: 67 67 68
Width: 550
GlyphClass: 1
Flags: W
LayerCount: 2
Fore
SplineSet
531.150390625 172 m 1
 517.716796875 115.333007812 483.834960938 70.333984375 429.501953125 37.0009765625 c 0
 382.501953125 8.333984375 338.668945312 -5.9990234375 298.001953125 -5.9990234375 c 0
 228.668945312 -5.9990234375 164.71875 24.333984375 106.15234375 85.0009765625 c 0
 48.0517578125 146.333984375 18.91796875 220.333984375 18.7509765625 307.000976562 c 0
 18.91796875 399.000976562 49.0009765625 478.66796875 109.000976562 546.000976562 c 0
 168.333984375 612.66796875 235.767578125 646.000976562 311.30078125 646.000976562 c 0
 380.434570312 646.000976562 444.217773438 613.333984375 502.651367188 548.000976562 c 1
 482.217773438 528.66796875 464.009765625 512.16796875 448.026367188 498.500976562 c 0
 432.009765625 484.833984375 417.91796875 473.666992188 405.750976562 465 c 1
 374.583984375 545.666992188 336.133789062 586 290.400390625 586 c 0
 262.799804688 586 231.81640625 556.333007812 197.450195312 497 c 0
 161.150390625 434.333007812 142.93359375 378.666015625 142.799804688 329.999023438 c 0
 142.93359375 265.999023438 165.583984375 205.999023438 210.750976562 149.999023438 c 0
 251.583984375 99.33203125 292.067382812 73.9990234375 332.201171875 73.9990234375 c 0
 362.734375 73.9990234375 392.000976562 82.9990234375 420.000976562 100.999023438 c 0
 427.333984375 105.666015625 436.041992188 111.833007812 446.125 119.5 c 0
 456.041992188 127.166992188 467.283203125 136.666992188 479.849609375 148 c 0
 497.283203125 164 514.383789062 172 531.150390625 172 c 1
EndSplineSet
Validated: 524289
EndChar

StartChar: D
Encoding: 68 68 69
Width: 550
GlyphClass: 1
Flags: W
LayerCount: 2
Fore
SplineSet
517 322 m 0
 517 250.666992188 496.997070312 188.666015625 456.997070312 135.999023438 c 0
 426.330078125 94.666015625 401.997070312 65.9990234375 383.997070312 49.9990234375 c 0
 343.997070312 12.666015625 303.330078125 -6.0009765625 261.997070312 -6.0009765625 c 0
 258.6640625 -6.0009765625 238.997070312 -1.333984375 202.997070312 7.9990234375 c 0
 167.6640625 17.33203125 141.997070312 21.9990234375 125.997070312 21.9990234375 c 0
 121.997070312 21.9990234375 108.6640625 18.666015625 85.9970703125 11.9990234375 c 0
 63.330078125 5.33203125 46.9970703125 1.33203125 36.9970703125 -0.0009765625 c 1
 36.9970703125 13.33203125 44.330078125 39.9990234375 58.9970703125 79.9990234375 c 0
 62.9970703125 91.33203125 66.1640625 101.33203125 68.4970703125 109.999023438 c 0
 72.1640625 123.999023438 74.3310546875 131.666015625 74.998046875 132.999023438 c 0
 80.0029296875 145.154296875 82.669921875 163.154296875 82.998046875 186.999023438 c 2
 85.998046875 404.999023438 l 2
 86.6650390625 464.33203125 63.33203125 507.33203125 15.9990234375 533.999023438 c 1
 15.9990234375 554.999023438 l 1
 147.999023438 611.999023438 l 2
 211.33203125 639.33203125 251.999023438 652.999023438 269.999023438 652.999023438 c 0
 298.666015625 652.999023438 341.333007812 629.666015625 398 582.999023438 c 0
 422 562.999023438 451 521.33203125 485 457.999023438 c 0
 506.333007812 418.666015625 517 373.333007812 517 322 c 0
403.997070312 321.999023438 m 0
 403.997070312 452.666015625 369.6640625 538.33203125 300.997070312 578.999023438 c 0
 277.6640625 592.999023438 264.6640625 599.999023438 261.997070312 599.999023438 c 0
 250.6640625 599.999023438 234.997070312 588.666015625 214.997070312 565.999023438 c 0
 194.997070312 543.999023438 184.997070312 520.33203125 184.997070312 494.999023438 c 2
 184.997070312 178.999023438 l 2
 184.997070312 144.33203125 193.6640625 115.33203125 210.997070312 91.9990234375 c 0
 230.997070312 65.33203125 250.6640625 51.9990234375 269.997070312 51.9990234375 c 0
 298.6640625 51.9990234375 330.997070312 85.9990234375 366.997070312 153.999023438 c 0
 391.6640625 200.666015625 403.997070312 256.666015625 403.997070312 321.999023438 c 0
EndSplineSet
Validated: 524321
EndChar

StartChar: E
Encoding: 69 69 70
Width: 550
GlyphClass: 1
Flags: W
LayerCount: 2
Fore
SplineSet
519 174 m 2
 516.333007812 168.666992188 507.333007812 153.999023438 492 129.999023438 c 0
 431.333007812 35.33203125 365 -12.0009765625 293 -12.0009765625 c 0
 241.666992188 -12.0009765625 184.333984375 19.33203125 121.000976562 81.9990234375 c 0
 61.0009765625 141.999023438 31.0009765625 217.999023438 31.0009765625 309.999023438 c 0
 31.0009765625 389.999023438 64.0009765625 465.666015625 130.000976562 536.999023438 c 0
 196.000976562 608.33203125 250.333984375 645.33203125 293.000976562 647.999023438 c 1
 335.000976562 628.999023438 l 2
 342.333984375 625.666015625 352.500976562 620.999023438 365.500976562 614.999023438 c 0
 378.500976562 608.999023438 393.66796875 601.33203125 411.000976562 591.999023438 c 0
 422.333984375 585.33203125 432.000976562 580.499023438 440.000976562 577.499023438 c 2
 457.000976562 571.999023438 l 1
 510.000976562 594.999023438 l 1
 510.000976562 564.999023438 l 1
 474.000976562 530.999023438 430.333984375 498.33203125 379.000976562 466.999023438 c 1
 345.000976562 538.999023438 317.66796875 579.666015625 297.000976562 588.999023438 c 0
 271.000976562 600.999023438 237.66796875 575.999023438 197.000976562 513.999023438 c 0
 167.66796875 469.33203125 153.000976562 415.999023438 153.000976562 353.999023438 c 1
 239.66796875 367.999023438 300.000976562 374.999023438 334.000976562 374.999023438 c 0
 346.000976562 374.999023438 368.000976562 375.999023438 400.000976562 377.999023438 c 0
 426.000976562 379.33203125 448.66796875 380.33203125 468.000976562 380.999023438 c 0
 487.333984375 381.666015625 503.666992188 381.999023438 517 381.999023438 c 1
 505.666992188 369.999023438 481.666992188 341.33203125 445 295.999023438 c 0
 409.1875 252.891601562 378.520507812 234.891601562 352.999023438 241.999023438 c 0
 352.999023438 243.499023438 326.666015625 250.83203125 273.999023438 263.999023438 c 0
 250.666015625 270.666015625 233.999023438 274.833007812 223.999023438 276.5 c 0
 207.999023438 279.5 189.666015625 281 168.999023438 281 c 0
 163.666015625 281 158.333007812 280.333007812 153 279 c 1
 153 227 l 2
 153 193 173.666992188 150 215 98 c 0
 247.666992188 56.6669921875 277.666992188 36.6669921875 305 38 c 0
 321 38.6669921875 340 55.333984375 362 88.0009765625 c 0
 385.333007812 121.333984375 397 157.666992188 397 197 c 1
 519 197 l 1
 519 174 l 2
EndSplineSet
Validated: 524321
EndChar

StartChar: F
Encoding: 70 70 71
Width: 550
GlyphClass: 1
Flags: W
LayerCount: 2
Fore
SplineSet
285 439.099609375 m 1
 284.33203125 439.096679688 283.33203125 479.396484375 282 560 c 1
 283 567 l 1
 469 535 l 2
 489 531.666992188 506.333007812 546 521 578 c 2
 545 650 l 1
 169 650 l 2
 130.333007812 650 91.666015625 636 52.9990234375 608 c 0
 16.33203125 581.333007812 -5.66796875 548 -13.0009765625 508 c 1
 52.9990234375 545 l 2
 83.666015625 562.333007812 110.666015625 571.666015625 133.999023438 572.999023438 c 0
 145.999023438 571.666015625 155.999023438 565.999023438 163.999023438 555.999023438 c 1
 173.66015625 528.302734375 178.66015625 499.302734375 178.999023438 468.999023438 c 0
 178.999023438 447.666015625 179.118164062 436.999023438 179.356445312 436.999023438 c 1
 43.9990234375 436.999023438 l 1
 43.9990234375 370.999023438 l 1
 179.999023438 377.999023438 l 1
 180.999023438 289.999023438 l 1
 178.999023438 204.999023438 l 2
 178.999023438 191.666015625 178.166015625 179.833007812 176.499023438 169.5 c 0
 174.83203125 155.166992188 172.33203125 138.666992188 168.999023438 120 c 0
 166.999023438 108.666992188 164.499023438 96.1669921875 161.499023438 82.5 c 0
 158.499023438 68.8330078125 155.33203125 53.666015625 151.999023438 36.9990234375 c 0
 135.33203125 -45.0009765625 126.33203125 -87.66796875 124.999023438 -91.0009765625 c 2
 124.999023438 -115.000976562 l 1
 237.44921875 33.3798828125 292.116210938 164.046875 289 277 c 2
 286.322265625 374.053710938 l 1
 291.682617188 378.903320312 309.908203125 378.21875 341 372 c 2
 441 352 l 1
 441 352 l 1
 447.666992188 350 454 351.333007812 460 356 c 1
 486 433 l 1
 480 440 l 1
 350 438 285 437.700195312 285 439.099609375 c 1
EndSplineSet
Validated: 524325
EndChar

StartChar: G
Encoding: 71 71 72
Width: 550
GlyphClass: 1
Flags: W
LayerCount: 2
Fore
SplineSet
532.76953125 231 m 0
 532.922851562 163.666992188 509.529296875 104.666992188 462.588867188 54 c 0
 423.529296875 12 366.749023438 -9 292.249023438 -9 c 0
 240.749023438 -9 192.046875 8 146.143554688 42 c 0
 125.380859375 57.3330078125 106.454101562 74.3330078125 89.3642578125 93 c 0
 67.12109375 117 51.255859375 137.666992188 41.7685546875 155 c 0
 21.255859375 193.666992188 11.22265625 244.666992188 11.6689453125 308 c 0
 12.5556640625 403.333007812 42.900390625 484.666015625 102.704101562 551.999023438 c 0
 160.234375 617.33203125 232.322265625 649.999023438 318.96875 649.999023438 c 0
 382.322265625 649.999023438 451.362304688 624.33203125 526.088867188 572.999023438 c 1
 511.362304688 529.666015625 489.095703125 491.666015625 459.2890625 458.999023438 c 1
 459.09765625 487.362304688 446.000976562 514.6953125 419.999023438 540.999023438 c 0
 419.33203125 542.33203125 413.071289062 548.665039062 401.216796875 559.998046875 c 0
 391.73828125 568.665039062 382.135742188 575.665039062 372.409179688 580.998046875 c 0
 362.135742188 586.331054688 351.141601562 589.998046875 339.426757812 591.998046875 c 0
 327.141601562 593.998046875 313.642578125 594.998046875 298.928710938 594.998046875 c 0
 252.975585938 594.998046875 216.22265625 566.998046875 188.668945312 510.998046875 c 0
 153.555664062 440.331054688 136.143554688 379.998046875 136.43359375 329.998046875 c 0
 136.810546875 250.665039062 151.161132812 185.998046875 179.484375 135.998046875 c 0
 214.494140625 73.998046875 252.08203125 42.6650390625 292.249023438 41.998046875 c 0
 325.416015625 41.998046875 354.375976562 62.998046875 379.12890625 104.998046875 c 0
 399.708984375 138.998046875 410.17578125 186.331054688 410.529296875 246.998046875 c 0
 410.842773438 282.331054688 404.55078125 311.998046875 391.654296875 335.998046875 c 0
 375.217773438 367.998046875 361.288085938 383.998046875 349.865234375 383.998046875 c 0
 339.955078125 383.998046875 327.986328125 376.665039062 313.959960938 361.998046875 c 0
 299.3203125 346.665039062 292.083984375 333.33203125 292.250976562 321.999023438 c 0
 292.083984375 309.999023438 306.8359375 291.33203125 336.505859375 265.999023438 c 1
 302.8359375 201.999023438 281.9609375 169.999023438 273.880859375 169.999023438 c 0
 258.627929688 169.999023438 242.762695312 185.999023438 226.286132812 217.999023438 c 0
 212.095703125 246.666015625 204.859375 271.666015625 204.576171875 292.999023438 c 0
 204.192382812 336.999023438 220.614257812 372.999023438 253.840820312 400.999023438 c 0
 282.614257812 424.33203125 316.571289062 435.999023438 355.7109375 435.999023438 c 0
 417.904296875 435.999023438 462.4375 416.999023438 489.310546875 378.999023438 c 0
 517.770507812 337.666015625 532.256835938 288.333007812 532.76953125 231 c 0
EndSplineSet
Validated: 524321
EndChar

StartChar: H
Encoding: 72 72 73
Width: 550
GlyphClass: 1
Flags: W
LayerCount: 2
Fore
SplineSet
194 373 m 1
 362.853515625 373.001953125 l 1
 363.6171875 202.334960938 363.666015625 115.66796875 362.999023438 113.000976562 c 0
 363.029296875 58.3486328125 355.696289062 27.681640625 340.999023438 21.0009765625 c 1
 340.999023438 0.0009765625 l 1
 529.999023438 0.0009765625 l 1
 533.999023438 21.0009765625 l 1
 492.666015625 33.0009765625 471.999023438 58.66796875 471.999023438 98.0009765625 c 2
 471.999023438 570.000976562 l 2
 471.999023438 589.333984375 487.666015625 609.666992188 518.999023438 631 c 1
 518.999023438 654 l 1
 315.999023438 655 l 1
 315.999023438 632 l 1
 325.33203125 627.333007812 333.999023438 622 341.999023438 616 c 0
 349.999023438 610 356.666015625 602.666992188 361.999023438 594 c 1
 362.666015625 542.666992188 363.333007812 491.033203125 364 439.099609375 c 1
 251.333007812 439.033203125 194.897460938 439.033203125 194.693359375 439.099609375 c 1
 194.897460938 439.033203125 195 477.666992188 195 555 c 1
 230 653 l 1
 14 653 l 1
 55 612 l 2
 71 596 79 579.333007812 79 562 c 2
 82 290 l 1
 80 205 l 2
 79.7138671875 192.837890625 78.880859375 181.004882812 77.5 169.500976562 c 0
 75.8330078125 155.16796875 73.3330078125 138.66796875 70 120.000976562 c 0
 68 108.66796875 65.5 96.16796875 62.5 82.5009765625 c 0
 59.5 68.833984375 56.3330078125 53.6669921875 53 37 c 0
 36.3330078125 -45 27.3330078125 -87.6669921875 26 -91 c 2
 26 -115 l 1
 141.333007812 38.3330078125 198 169 196 277 c 2
 194 373 l 1
EndSplineSet
Validated: 524329
EndChar

StartChar: I
Encoding: 73 73 74
Width: 550
GlyphClass: 1
Flags: W
LayerCount: 2
Fore
SplineSet
188 644.293945312 m 2
 380.000976562 645.000976562 l 1
 467.000976562 644.000976562 l 2
 472.368164062 643.939453125 477.708984375 639.088867188 483.022460938 629.450195312 c 0
 487.0078125 622.484375 491.333984375 616.000976562 496.000976562 610.000976562 c 0
 502.000976562 602.66796875 505.000976562 593.000976562 505.000976562 581.000976562 c 0
 505.000976562 576.333984375 501.333984375 574.000976562 494.000976562 574.000976562 c 2
 394.51171875 574.000976562 l 1
 388.000976562 574.364257812 l 1
 370.000976562 571.000976562 l 2
 344.66796875 563.66796875 332.000976562 548.000976562 332.000976562 524.000976562 c 2
 332.000976562 477.000976562 l 1
 332.000976562 166.000976562 l 2
 332.000976562 138.66796875 332.333984375 125.000976562 333.000976562 125.000976562 c 1
 333.000976562 89.0009765625 338.000976562 71.333984375 348.000976562 72.0009765625 c 0
 363.333984375 72.66796875 374.666992188 73.0009765625 382 73.0009765625 c 2
 469 72.0009765625 l 2
 474.333007812 72.0009765625 479.673828125 67.150390625 485.021484375 57.4501953125 c 0
 489.006835938 50.484375 493.333007812 44.0009765625 498 38.0009765625 c 0
 504 30.66796875 507 21.0009765625 507 9.0009765625 c 0
 507 4.333984375 503.333007812 2.0009765625 496 2.0009765625 c 2
 63 2.0009765625 l 1
 34.3330078125 41.333984375 19 63.0009765625 17 67.0009765625 c 0
 14.3193359375 71.0224609375 16.65234375 73.0224609375 24 73.0009765625 c 0
 24.6669921875 73.66796875 72 73.5302734375 166 72.5888671875 c 1
 204.732421875 80.8779296875 221.732421875 108.681640625 217 156.000976562 c 0
 216.608398438 156.000976562 216.275390625 159.333984375 216 166.000976562 c 2
 215.834960938 170.000976562 l 1
 217 478.000976562 l 1
 217 501.000976562 l 2
 217 533.66796875 209 555.000976562 193 565.000976562 c 0
 187.666992188 568.333984375 180 570.666992188 170 572 c 2
 61 574 l 1
 32.3330078125 613.333007812 16.99609375 635.006835938 14.9892578125 639.021484375 c 0
 12.99609375 643.006835938 15.3330078125 645 22 645 c 0
 22.7802734375 645.665039062 78.11328125 645.4296875 188 644.293945312 c 2
EndSplineSet
Validated: 524321
EndChar

StartChar: J
Encoding: 74 74 75
Width: 550
GlyphClass: 1
Flags: W
LayerCount: 2
Fore
SplineSet
209.671875 64.734375 m 0
 182.557617188 73.578125 164.625976562 87 155.873046875 105 c 0
 135.29296875 145.666992188 124.826171875 193 124.47265625 247 c 0
 124.159179688 282.333007812 130.451171875 312 143.34765625 336 c 0
 159.784179688 368 173.713867188 384 185.13671875 384 c 0
 195.046875 384 207.015625 376.666992188 221.041992188 362 c 0
 235.681640625 346.666992188 242.91796875 333.333984375 242.750976562 322.000976562 c 0
 242.91796875 310.000976562 228.166015625 291.333984375 198.49609375 266.000976562 c 1
 232.166015625 202.000976562 253.041015625 170.000976562 261.12109375 170.000976562 c 0
 276.374023438 170.000976562 292.239257812 186.000976562 308.715820312 218.000976562 c 0
 322.90625 246.66796875 330.142578125 271.66796875 330.42578125 293.000976562 c 0
 330.809570312 337.000976562 314.387695312 373.000976562 281.161132812 401.000976562 c 0
 252.387695312 424.333984375 218.430664062 436.000976562 179.291015625 436.000976562 c 0
 137.09765625 436.000976562 96.2314453125 417.000976562 56.69140625 379.000976562 c 0
 25.564453125 349.66796875 10.078125 300.334960938 10.2314453125 231.001953125 c 0
 10.078125 155.001953125 35.0009765625 96.001953125 85.0009765625 54.001953125 c 0
 135.000976562 12.001953125 188.99609375 -8.64453125 246.986328125 -7.9384765625 c 0
 308.99609375 -6.64453125 369.66796875 23.3359375 429.000976562 82.0029296875 c 0
 490.333984375 143.3359375 521.000976562 212.668945312 521.000976562 290.001953125 c 0
 521.000976562 328.668945312 514.333984375 363.001953125 501.000976562 393.001953125 c 0
 493.000976562 411.001953125 471.16796875 439.668945312 435.500976562 479.001953125 c 0
 399.833984375 518.334960938 380.694335938 540.66796875 378.08203125 546.000976562 c 1
 422.694335938 540.66796875 451.666992188 537.000976562 465 535.000976562 c 0
 485.666992188 532.333984375 503 546.666992188 517 578 c 2
 541 650 l 1
 195 650 l 2
 156.333007812 650 117.666015625 636 78.9990234375 608 c 0
 42.33203125 581.333007812 20.33203125 548 12.9990234375 508 c 1
 78.9990234375 545 l 2
 108.999023438 561.666992188 136.666015625 570.666992188 161.999023438 572 c 2
 200.999023438 573 l 1
 210.999023438 573 l 1
 268.999023438 563 l 1
 346.999023438 472.333007812 387.33203125 393.666015625 389.999023438 326.999023438 c 0
 392.666015625 261.666015625 377.333007812 201.999023438 344 147.999023438 c 0
 312 96.666015625 280.333007812 67.666015625 249 60.9990234375 c 0
 243 59.666015625 238.666992188 59.3330078125 236 60 c 0
 226.666992188 61.3330078125 217.890625 62.9111328125 209.671875 64.734375 c 0
287.078125 553.260742188 m 1024
EndSplineSet
Validated: 524329
EndChar

StartChar: K
Encoding: 75 75 76
Width: 550
GlyphClass: 1
Flags: W
LayerCount: 2
Fore
SplineSet
541 0 m 1
 368.999023438 -0.0009765625 l 1
 393.666015625 27.33203125 405.999023438 57.6650390625 405.999023438 90.998046875 c 0
 405.999023438 134.331054688 379.666015625 188.331054688 326.999023438 252.998046875 c 0
 272.999023438 318.998046875 232.666015625 351.998046875 205.999023438 351.998046875 c 1
 198.999023438 347.998046875 l 1
 185.999023438 334.998046875 l 1
 166.999023438 313.998046875 l 1
 166.999023438 97.998046875 l 2
 166.999023438 89.2802734375 170.33203125 72.61328125 176.999023438 47.998046875 c 2
 189.999023438 -0.001953125 l 1
 22.9990234375 -0.001953125 l 1
 22.9990234375 21.998046875 l 1
 48.9990234375 38.6650390625 61.9990234375 56.33203125 61.9990234375 74.9990234375 c 2
 61.9990234375 560.999023438 l 2
 61.9990234375 582.999023438 44.9990234375 607.666015625 10.9990234375 634.999023438 c 1
 14.9990234375 653.999023438 l 1
 494.999023438 653.999023438 l 1
 494.999023438 634.999023438 l 1
 429.666015625 614.33203125 351.333007812 547.33203125 260 433.999023438 c 1
 284 417.33203125 308.166992188 399.999023438 332.5 381.999023438 c 0
 353.5 365.999023438 373.333007812 347.33203125 392 325.999023438 c 0
 423.693359375 289.521484375 453.360351562 240.188476562 481 178 c 0
 486.333007812 166 506.333007812 106.666992188 541 0 c 1
288.999023438 559.999023438 m 0
 288.999023438 602.666015625 264.83203125 623.999023438 216.499023438 623.999023438 c 0
 189.499023438 623.999023438 175.999023438 600.666015625 175.999023438 553.999023438 c 2
 175.999023438 413.999023438 l 1
 240.999023438 491.999023438 l 1
 272.999023438 523.999023438 288.999023438 546.666015625 288.999023438 559.999023438 c 0
EndSplineSet
Validated: 524289
EndChar

StartChar: L
Encoding: 76 76 77
Width: 550
GlyphClass: 1
Flags: W
LayerCount: 2
Fore
SplineSet
246 655.599609375 m 1
 220 655.200195312 207 601.333984375 207 494.000976562 c 0
 207 489.333984375 207.333007812 480.500976562 208 467.500976562 c 0
 209.333007812 433.833984375 210.333007812 400.000976562 211 366.000976562 c 0
 211.666992188 356.000976562 213 334.66796875 215 302.000976562 c 0
 215.666992188 296.66796875 216 291.66796875 216 287.000976562 c 2
 216 274.000976562 l 2
 216 210.000976562 202.157226562 155.563476562 174.470703125 110.688476562 c 1
 188 110.000976562 l 1
 534 110.000976562 l 1
 510 38.0009765625 l 1
 495.288085938 6.5712890625 477.955078125 -7.76171875 458 -4.9990234375 c 2
 198 31.0009765625 l 1
 180 31.0009765625 l 2
 146.094726562 31.0009765625 113.427734375 26.0009765625 81.9990234375 16.0009765625 c 2
 15.9990234375 -4.9990234375 l 1
 23.9990234375 16.333984375 38.283203125 37.34765625 58.8515625 58.0419921875 c 0
 83.6162109375 82.6806640625 95.9990234375 116 95.9990234375 158 c 2
 95.9990234375 447 l 2
 95.9990234375 486.333007812 84.9990234375 518 62.9990234375 542 c 0
 53.666015625 552.666992188 48.9990234375 559.666992188 48.9990234375 563 c 0
 48.9990234375 582.333007812 94.9990234375 612 186.999023438 652 c 0
 191.666015625 654 211.333007812 655.200195312 246 655.599609375 c 1
58.8525390625 58.0419921875 m 1024
EndSplineSet
Validated: 524321
EndChar

StartChar: M
Encoding: 77 77 78
Width: 550
GlyphClass: 1
Flags: W
LayerCount: 2
Fore
SplineSet
224 571 m 2
 234.000976562 542.999023438 l 1
 290.000976562 370.999023438 l 1
 354.000976562 576.999023438 l 1
 348.66796875 585.666015625 342.000976562 592.999023438 334.000976562 598.999023438 c 0
 326.000976562 604.999023438 317.333984375 610.33203125 308.000976562 614.999023438 c 1
 308.000976562 637.999023438 l 1
 548.000976562 637.999023438 l 1
 548.000976562 614.999023438 l 1
 516.66796875 593.666015625 501.000976562 573.333007812 501.000976562 554 c 2
 501.000976562 93 l 2
 501.000976562 53.6669921875 521.66796875 28 563.000976562 16 c 1
 559.000976562 -5 l 1
 370.000976562 -5 l 1
 370.000976562 16 l 1
 384.66796875 22.6669921875 392.000976562 53.333984375 392.000976562 108.000976562 c 2
 392.000976562 507.000976562 l 1
 377.000976562 507.000976562 l 1
 281.000976562 100.000976562 l 1
 266.000976562 100.000976562 l 1
 146.000976562 507.000976562 l 1
 131.000976562 507.000976562 l 1
 134.000976562 422.000976562 l 1
 138.000976562 277.000976562 l 2
 141.333984375 146.333984375 93.333984375 15.6669921875 -5.9990234375 -115 c 1
 -5.9990234375 -91 l 2
 -5.9990234375 -87 3.0009765625 -44.3330078125 21.0009765625 37 c 0
 24.333984375 53.6669921875 27.5009765625 68.833984375 30.5009765625 82.5009765625 c 0
 33.5009765625 96.16796875 36.0009765625 108.66796875 38.0009765625 120.000976562 c 0
 41.333984375 138.66796875 43.833984375 155.16796875 45.5009765625 169.500976562 c 0
 46.5009765625 177.833984375 47.333984375 189.666992188 48.0009765625 205 c 2
 50.0009765625 290 l 1
 48.0009765625 469 l 2
 47.466796875 516.798828125 37.466796875 555.465820312 18.0009765625 585 c 0
 10.66796875 595 4.16796875 605 -1.4990234375 615 c 0
 -7.166015625 625 -12.3330078125 635.333007812 -17 646 c 1
 140 646 l 2
 176 646 204 621 224 571 c 2
EndSplineSet
Validated: 524321
EndChar

StartChar: N
Encoding: 78 78 79
Width: 550
GlyphClass: 1
Flags: W
LayerCount: 2
Fore
SplineSet
405 190 m 1
 403 194.666992188 402.000976562 323.665039062 402.000976562 576.998046875 c 1
 396.66796875 585.665039062 390.000976562 592.998046875 382.000976562 598.998046875 c 0
 374.000976562 604.998046875 365.333984375 610.331054688 356.000976562 614.998046875 c 1
 356.000976562 637.998046875 l 1
 540.000976562 637.998046875 l 1
 540.000976562 614.998046875 l 1
 522.000976562 602.998046875 513.000976562 582.665039062 513.000976562 553.998046875 c 2
 513.000976562 92.998046875 l 2
 513.000976562 45.6650390625 520.333984375 19.998046875 535.000976562 15.998046875 c 1
 531.000976562 -5.001953125 l 1
 402.000976562 -6.001953125 l 1
 158.000976562 506.998046875 l 1
 143.000976562 506.998046875 l 1
 146.000976562 421.998046875 l 1
 150.000976562 276.998046875 l 2
 153.578125 147.3203125 105.578125 16.6533203125 6.0009765625 -115.001953125 c 1
 6.0009765625 -91.001953125 l 2
 7.333984375 -87.6689453125 16.333984375 -45.001953125 33.0009765625 36.998046875 c 0
 36.333984375 53.6650390625 39.5009765625 68.83203125 42.5009765625 82.4990234375 c 0
 45.5009765625 96.166015625 48.0009765625 108.666015625 50.0009765625 119.999023438 c 0
 53.333984375 138.666015625 55.833984375 155.166015625 57.5009765625 169.499023438 c 0
 59.16796875 182.499023438 60.0009765625 194.33203125 60.0009765625 204.999023438 c 2
 62.0009765625 289.999023438 l 1
 60.0009765625 468.999023438 l 2
 59.4365234375 519.525390625 49.4365234375 558.192382812 30.0009765625 585 c 0
 22.66796875 595 16.16796875 605 10.5009765625 615 c 0
 4.833984375 625 -0.3330078125 635.333007812 -5 646 c 1
 152 646 l 2
 190 646 218 621 236 571 c 2
 246 543 l 1
 405 190 l 1
EndSplineSet
Validated: 524321
EndChar

StartChar: O
Encoding: 79 79 80
Width: 550
GlyphClass: 1
Flags: W
LayerCount: 2
Fore
SplineSet
540 299 m 0
 540 239 504.66796875 172.666015625 434.000976562 99.9990234375 c 0
 363.333984375 27.33203125 311.666992188 -9.0009765625 279 -9.0009765625 c 0
 224.333007812 -9.0009765625 165 28.9990234375 101 104.999023438 c 0
 39 177.666015625 8 252.333007812 8 329 c 0
 8 399 42 470.666992188 110 544 c 0
 178 617.333007812 237 654 287 654 c 0
 335 654 390.333007812 613 453 531 c 0
 511 455 540 377.666992188 540 299 c 0
456.000976562 243.999023438 m 0
 456.000976562 309.33203125 425.66796875 373.331054688 365.000976562 435.998046875 c 0
 303.66796875 499.331054688 254.000976562 530.998046875 216.000976562 530.998046875 c 0
 191.333984375 530.998046875 165.000976562 518.998046875 137.000976562 494.998046875 c 0
 107.000976562 469.665039062 92.0009765625 434.998046875 92.0009765625 390.998046875 c 0
 92.0009765625 319.665039062 121.66796875 255.33203125 181.000976562 197.999023438 c 0
 239.66796875 141.33203125 289.000976562 112.999023438 329.000976562 112.999023438 c 0
 352.333984375 112.999023438 379.333984375 125.666015625 410.000976562 150.999023438 c 0
 440.66796875 175.666015625 456.000976562 206.666015625 456.000976562 243.999023438 c 0
EndSplineSet
Validated: 524289
EndChar

StartChar: P
Encoding: 80 80 81
Width: 550
GlyphClass: 1
Flags: W
LayerCount: 2
Fore
SplineSet
444 545 m 0
 496.666992188 495 523 420.333984375 523 321.000976562 c 0
 523 221.66796875 498.666992188 146.334960938 450 95.001953125 c 0
 388 29.001953125 337 -3.998046875 297 -3.998046875 c 0
 272.333007812 -3.998046875 249 3.6689453125 227 19.001953125 c 0
 217 25.6689453125 204.333007812 40.001953125 189 62.001953125 c 2
 175 85.001953125 l 1
 175 -47.6650390625 175.333007812 -114.33203125 176 -114.999023438 c 0
 176.173828125 -149.723632812 194.173828125 -173.056640625 230 -184.999023438 c 1
 230 -208.999023438 l 1
 71 -208.999023438 l 1
 71 331.000976562 l 2
 71 385.333984375 69.3330078125 421.666992188 66 440 c 0
 56.6669921875 482 42 508 22 518 c 1
 22 541 l 1
 200 613.666992188 296.5 650 311.5 650 c 0
 326.5 650 370.666992188 615 444 545 c 0
197 176.000976562 m 2
 199 144.000976562 213.999023438 113.999023438 241.999023438 85.9990234375 c 0
 253.33203125 74.666015625 267.33203125 68.666015625 283.999023438 67.9990234375 c 0
 308.666015625 67.9990234375 335.333007812 91.4990234375 364 138.499023438 c 0
 392.666992188 185.499023438 407 244.33203125 407 314.999023438 c 0
 407 385.666015625 389.833007812 448.833007812 355.5 504.5 c 0
 321.166992188 560.166992188 294 588 274 588 c 0
 259.333007812 588 238.333007812 574.333007812 211 547 c 0
 187.666992188 523.666992188 179 465.333984375 185 372.000976562 c 2
 197 176.000976562 l 2
EndSplineSet
Validated: 524321
EndChar

StartChar: Q
Encoding: 81 81 82
Width: 550
GlyphClass: 1
Flags: W
LayerCount: 2
Fore
SplineSet
34 -150 m 1
 40 -160.666992188 49.6640625 -172.666015625 62.9970703125 -185.999023438 c 1
 88.9970703125 -162.999023438 l 2
 98.330078125 -154.999023438 124.330078125 -153.33203125 166.997070312 -157.999023438 c 0
 172.330078125 -158.666015625 199.997070312 -163.666015625 249.997070312 -172.999023438 c 0
 273.330078125 -177.666015625 295.497070312 -181.166015625 316.497070312 -183.499023438 c 0
 337.497070312 -185.83203125 353.997070312 -186.999023438 365.997070312 -186.999023438 c 0
 387.997070312 -186.999023438 411.6640625 -178.666015625 436.997070312 -161.999023438 c 0
 449.380859375 -154.177734375 469.713867188 -128.510742188 497.997070312 -84.9990234375 c 2
 536.997070312 -24.9990234375 l 1
 536.997070312 5.0009765625 l 1
 512.997070312 15.0009765625 l 1
 488.330078125 -9.666015625 470.997070312 -25.666015625 460.997070312 -32.9990234375 c 0
 419.6640625 -59.666015625 394.331054688 -73.666015625 384.998046875 -74.9990234375 c 0
 351.045898438 -81.65625 332.712890625 -84.3232421875 329.999023438 -82.9990234375 c 0
 274.666015625 -90.9990234375 247.333007812 -77.666015625 248 -42.9990234375 c 0
 248.666992188 -8.9990234375 311.666992188 38.66796875 437 100.000976562 c 0
 507.666992188 134.66796875 543 198.34765625 543 291.040039062 c 0
 543 375.014648438 514 455.001953125 456 531.001953125 c 0
 393.333007812 613.001953125 338 654.001953125 290 654.001953125 c 0
 240 654.001953125 181 617.334960938 113 544.001953125 c 0
 45 470.668945312 11 399.001953125 11 329.001953125 c 0
 11 252.334960938 42 177.66796875 104 105.000976562 c 0
 128.666992188 76.333984375 169.666992188 46.6669921875 227 16 c 1
 34 -150 l 1
458.997070312 244.000976562 m 0
 458.997070312 206.66796875 443.6640625 175.668945312 412.997070312 151.001953125 c 0
 382.330078125 125.668945312 355.330078125 113.001953125 331.997070312 113.001953125 c 0
 291.997070312 113.001953125 242.6640625 141.334960938 183.997070312 198.001953125 c 0
 124.6640625 255.334960938 94.9970703125 319.66796875 94.9970703125 391.000976562 c 0
 94.9970703125 435.000976562 109.997070312 469.66796875 139.997070312 495.000976562 c 0
 167.997070312 519.000976562 194.330078125 531.000976562 218.997070312 531.000976562 c 0
 256.997070312 531.000976562 306.6640625 499.333984375 367.997070312 436.000976562 c 0
 428.6640625 373.333984375 458.997070312 309.333984375 458.997070312 244.000976562 c 0
EndSplineSet
Validated: 524329
EndChar

StartChar: R
Encoding: 82 82 83
Width: 550
GlyphClass: 1
Flags: W
LayerCount: 2
Fore
SplineSet
348 67 m 2
 288.000976562 231.994140625 l 2
 277.369140625 260.0234375 262.377929688 266.197265625 243.02734375 250.515625 c 0
 223.676757812 234.833984375 206.66796875 219.66015625 192.000976562 204.993164062 c 0
 179.333984375 192.438476562 173.000976562 176.438476562 173.000976562 156.993164062 c 0
 173.000976562 137.66015625 175.66796875 117.993164062 181.000976562 97.9931640625 c 0
 183.000976562 91.326171875 186.000976562 83.4931640625 190.000976562 74.4931640625 c 0
 194.000976562 65.4931640625 198.66796875 55.326171875 204.000976562 43.9931640625 c 0
 210.000976562 32.66015625 215.000976562 22.8271484375 219.000976562 14.494140625 c 0
 223.000976562 6.1611328125 226.000976562 -0.671875 228.000976562 -6.0048828125 c 1
 24.0009765625 -6.0048828125 l 1
 25.333984375 -3.337890625 28.333984375 1.3291015625 33.0009765625 7.99609375 c 0
 37.66796875 14.6630859375 44.0009765625 23.330078125 52.0009765625 33.9970703125 c 0
 64.66796875 50.6640625 71.0009765625 64.9970703125 71.0009765625 76.9970703125 c 2
 71.0009765625 449.997070312 l 2
 71.0009765625 483.997070312 53.0009765625 512.6640625 17.0009765625 535.997070312 c 1
 17.0009765625 558.997070312 l 1
 39.0009765625 560.997070312 88.333984375 578.997070312 165.000976562 612.997070312 c 0
 237.000976562 644.330078125 281.000976562 659.997070312 297.000976562 659.997070312 c 0
 336.333984375 659.997070312 376.666992188 647.330078125 418 621.997070312 c 0
 464.666992188 593.330078125 488 553.997070312 488 503.997070312 c 0
 488 461.997070312 468 424.6640625 428 391.997070312 c 2
 337 317.997070312 l 1
 367 240.6640625 383.333007812 199.331054688 386 193.998046875 c 0
 418.666992188 131.331054688 454.666992188 99.998046875 494 99.998046875 c 0
 501 103.498046875 509 108.498046875 518 114.998046875 c 0
 520.666992188 116.998046875 526.666992188 121.331054688 536 127.998046875 c 1
 543 109.998046875 l 1
 543.666992188 88.6650390625 538 66.33203125 526 42.9990234375 c 0
 516.666992188 24.9990234375 506.666992188 13.33203125 496 7.9990234375 c 0
 474 -3.333984375 457.306640625 -8.333984375 445.918945312 -7.0009765625 c 0
 395.306640625 -2.333984375 362.666992188 22.3330078125 348 67 c 2
375.000976562 496.994140625 m 0
 375.000976562 525.661132812 364.001953125 550.66015625 342.001953125 571.993164062 c 0
 327.334960938 586.66015625 308.66796875 594.327148438 286.000976562 594.994140625 c 0
 264.66796875 594.994140625 244.66796875 587.994140625 226.000976562 573.994140625 c 0
 196.66796875 551.994140625 182.000976562 528.661132812 182.000976562 503.994140625 c 2
 182.000976562 278.994140625 l 1
 216.000976562 308.994140625 250.66796875 337.994140625 286.000976562 365.994140625 c 0
 345.333984375 413.327148438 375.000976562 456.994140625 375.000976562 496.994140625 c 0
EndSplineSet
Validated: 524321
EndChar

StartChar: S
Encoding: 83 83 84
Width: 550
GlyphClass: 1
Flags: W
LayerCount: 2
Fore
SplineSet
534 218 m 0
 534 150 508.668945312 94.6650390625 458.001953125 51.998046875 c 0
 408.668945312 9.3310546875 349.001953125 -12.001953125 279.001953125 -12.001953125 c 0
 205.001953125 -12.001953125 138.668945312 15.998046875 80.001953125 71.998046875 c 0
 36.6689453125 113.331054688 15.001953125 177.6640625 15.001953125 264.997070312 c 1
 39.6689453125 254.330078125 63.1689453125 245.163085938 85.501953125 237.49609375 c 0
 107.834960938 229.829101562 129.334960938 223.329101562 150.001953125 217.99609375 c 1
 132.001953125 156.99609375 l 1
 125.334960938 117.663085938 137.66796875 87.6630859375 169.000976562 66.99609375 c 0
 203.66796875 44.99609375 240.334960938 33.99609375 279.001953125 33.99609375 c 0
 299.668945312 33.99609375 319.001953125 37.6630859375 337.001953125 44.99609375 c 0
 355.001953125 52.3291015625 370.501953125 62.3291015625 383.501953125 74.99609375 c 0
 396.501953125 87.6630859375 406.668945312 102.830078125 414.001953125 120.497070312 c 0
 421.334960938 138.1640625 425.001953125 157.6640625 425.001953125 178.997070312 c 0
 425.001953125 252.330078125 396.668945312 288.997070312 340.001953125 288.997070312 c 0
 316.001953125 288.997070312 282.334960938 283.6640625 239.001953125 272.997070312 c 0
 196.334960938 262.330078125 163.001953125 256.997070312 139.001953125 256.997070312 c 0
 107.001953125 256.997070312 80.001953125 283.6640625 58.001953125 336.997070312 c 0
 40.001953125 379.6640625 31.001953125 419.997070312 31.001953125 457.997070312 c 0
 31.001953125 515.997070312 54.3349609375 564.330078125 101.001953125 602.997070312 c 0
 145.668945312 640.330078125 197.001953125 658.997070312 255.001953125 658.997070312 c 0
 300.334960938 658.997070312 346.66796875 644.330078125 394.000976562 614.997070312 c 0
 441.333984375 585.6640625 473.333984375 551.331054688 490.000976562 511.998046875 c 1
 446.66796875 497.331054688 409.66796875 489.998046875 379.000976562 489.998046875 c 1
 365.000976562 572.665039062 321.000976562 613.998046875 247.000976562 613.998046875 c 0
 211.000976562 613.998046875 181.66796875 603.498046875 159.000976562 582.498046875 c 0
 136.333984375 561.498046875 125.000976562 532.998046875 125.000976562 496.998046875 c 0
 125.000976562 467.665039062 134.333984375 442.33203125 153.000976562 420.999023438 c 0
 172.333984375 399.666015625 196.000976562 388.999023438 224.000976562 388.999023438 c 0
 249.537109375 388.999023438 286.870117188 393.999023438 336 403.999023438 c 2
 449 426.999023438 l 1
 475.666992188 408.999023438 497 377.666015625 513 332.999023438 c 0
 527 293.666015625 534 255.333007812 534 218 c 0
EndSplineSet
Validated: 524321
EndChar

StartChar: T
Encoding: 84 84 85
Width: 550
GlyphClass: 1
Flags: W
LayerCount: 2
Fore
SplineSet
550 129 m 0
 550 97 515.997070312 65.0009765625 447.997070312 33.0009765625 c 0
 387.330078125 5.66796875 339.330078125 -7.9990234375 303.997070312 -7.9990234375 c 0
 225.997070312 -7.9990234375 156.6640625 22.0009765625 95.9970703125 82.0009765625 c 0
 34.6640625 143.333984375 3.9970703125 212.666992188 3.9970703125 290 c 0
 3.9970703125 326.666992188 10.6640625 361 23.9970703125 393 c 0
 31.9970703125 411 47.6640625 439.666992188 70.9970703125 479 c 0
 94.9970703125 518.333007812 110.6640625 547.333007812 117.997070312 566 c 1
 91.9970703125 566 66.6640625 559 41.9970703125 545 c 2
 -24.0029296875 508 l 1
 -16.669921875 548 5.330078125 581.333007812 41.9970703125 608 c 0
 78.6640625 636 117.331054688 650 157.998046875 650 c 2
 533.998046875 650 l 1
 509.998046875 578 l 1
 494.665039062 546 477.33203125 531.666992188 457.999023438 535 c 2
 173.999023438 573 l 1
 147.999023438 531 134.999023438 449 134.999023438 327 c 0
 134.999023438 257 150.33203125 197.333007812 180.999023438 148 c 0
 217.666015625 89.3330078125 268.666015625 60 333.999023438 60 c 0
 357.999023438 60 383.33203125 65.6669921875 409.999023438 77 c 0
 417.999023438 80.3330078125 427.499023438 85.166015625 438.499023438 91.4990234375 c 0
 449.499023438 97.83203125 462.33203125 105.33203125 476.999023438 113.999023438 c 0
 491.666015625 123.33203125 504.333007812 130.999023438 515 136.999023438 c 0
 525.666992188 142.999023438 534.666992188 147.666015625 542 150.999023438 c 1
 546 145.666015625 548.666992188 138.333007812 550 129 c 0
EndSplineSet
Validated: 524321
EndChar

StartChar: U
Encoding: 85 85 86
Width: 550
GlyphClass: 1
Flags: W
LayerCount: 2
Fore
SplineSet
257 634 m 1
 241 627.333007812 227.6640625 612.532226562 216.997070312 589.598632812 c 0
 165.6640625 475.19921875 138.997070312 393.561523438 136.997070312 344.686523438 c 0
 134.997070312 295.561523438 150.330078125 243.999023438 182.997070312 189.999023438 c 0
 218.330078125 130.666015625 248.330078125 100.999023438 272.997070312 100.999023438 c 0
 331.6640625 100.999023438 360.997070312 154.666015625 360.997070312 261.999023438 c 2
 360.997070312 554.999023438 l 1
 325.997070312 652.999023438 l 1
 541.997070312 652.999023438 l 1
 500.997070312 611.999023438 l 2
 484.997070312 595.999023438 476.997070312 579.33203125 476.997070312 561.999023438 c 2
 476.997070312 169.999023438 l 2
 476.997070312 113.999023438 497.330078125 80.666015625 537.997070312 69.9990234375 c 1
 537.997070312 46.9990234375 l 1
 496.997070312 9.9990234375 l 2
 480.330078125 -5.333984375 468.330078125 -13.0009765625 460.997070312 -13.0009765625 c 0
 442.997070312 -13.0009765625 424.997070312 -2.333984375 406.997070312 18.9990234375 c 0
 387.6640625 40.9990234375 377.331054688 54.9990234375 375.998046875 60.9990234375 c 1
 347.998046875 49.666015625 324.665039062 35.3330078125 305.998046875 18 c 0
 277.998046875 -8 259.331054688 -21 249.998046875 -21 c 0
 240.665039062 -21 213.33203125 -0.6669921875 167.999023438 40 c 0
 148.666015625 57.3330078125 130.333007812 77 113 99 c 0
 99 117 82.6669921875 142 64 174 c 0
 51.3330078125 196 34.3330078125 248.666992188 13 332 c 0
 1 380 15 428.666992188 55 478 c 2
 159 606 l 1
 131.666992188 612.666992188 110.666992188 616 96 616 c 0
 76.6669921875 616 59 612.666992188 43 606 c 1
 19 643 l 1
 51 653 l 1
 261 655.599609375 l 1
 257 634 l 1
EndSplineSet
Validated: 524321
EndChar

StartChar: V
Encoding: 86 86 87
Width: 550
GlyphClass: 1
Flags: W
LayerCount: 2
Fore
SplineSet
372 80 m 2
 368 70.6669921875 376.666992188 64.333984375 398 61.0009765625 c 0
 419.333007812 57.66796875 438 54.3349609375 454 51.001953125 c 1
 454 2.001953125 l 1
 144 2.001953125 l 1
 144 49.001953125 l 1
 204 55.001953125 231.333007812 66.3349609375 226 83.001953125 c 2
 123 461.001953125 l 2
 103.666992188 531.001953125 84.6669921875 565.668945312 66 565.001953125 c 0
 52.6669921875 564.334960938 42.6669921875 555.66796875 36 539.000976562 c 1
 27 559.000976562 l 2
 14.3330078125 586.333984375 20 612.333984375 44 637.000976562 c 0
 65.3330078125 658.333984375 89 666.534179688 115 661.600585938 c 0
 158.333007812 653.8671875 188 620.666992188 204 562 c 2
 309 198 l 1
 402 558 l 2
 407.333007812 576 396.666015625 589.333007812 369.999023438 598 c 0
 357.999023438 602 340.33203125 598.666992188 316.999023438 588 c 1
 307.999023438 606 l 1
 328.999023438 653 l 1
 515.999023438 656.01171875 l 1
 530.999023438 634 l 1
 517.666015625 616.666992188 505.333007812 597.666992188 494 577 c 1
 372 80 l 2
EndSplineSet
Validated: 524321
EndChar

StartChar: W
Encoding: 87 87 88
Width: 550
GlyphClass: 1
Flags: W
LayerCount: 2
Fore
SplineSet
532 46 m 1
 479.999023438 -10.001953125 l 1
 448.666015625 8.6650390625 427.333007812 33.33203125 416 63.9990234375 c 1
 412 57.9990234375 407.333007812 51.666015625 402 44.9990234375 c 0
 388.666992188 26.9990234375 375.333984375 10.33203125 362.000976562 -5.0009765625 c 1
 295.000976562 51.9990234375 l 1
 279.000976562 68.9990234375 l 1
 256.000976562 37.9990234375 l 2
 234.66796875 9.33203125 220.000976562 -3.0009765625 212.000976562 0.9990234375 c 0
 196.66796875 8.9990234375 169.500976562 30.83203125 130.500976562 66.4990234375 c 0
 108.166015625 88.0498046875 78.9990234375 126.8828125 43 182.999023438 c 0
 19.6669921875 219.666015625 8 266.333007812 8 323 c 0
 8 406.333007812 66.3330078125 489.666015625 183 572.999023438 c 0
 186.333007812 578.33203125 193.333007812 583.33203125 204 587.999023438 c 1
 159 587.999023438 l 2
 149 587.999023438 139 585.999023438 129 581.999023438 c 0
 125.666992188 580.666015625 109 575.666015625 79 566.999023438 c 0
 71.6669921875 564.999023438 59.6669921875 563.999023438 43 563.999023438 c 1
 43 647.999023438 l 1
 530 647.999023438 l 1
 529 604.999023438 l 1
 512.333007812 591.666015625 504 565.999023438 504 527.999023438 c 2
 504 526.999023438 l 1
 503 516.999023438 l 1
 503 481.999023438 l 1
 498 311.999023438 l 2
 494 166.666015625 505.333007812 85.3330078125 532 68 c 1
 532 46 l 1
403.999023438 206.998046875 m 2
 403.999023438 555.997070312 l 2
 400.666015625 567.330078125 397.666015625 578.663085938 394.999023438 589.99609375 c 1
 372.33203125 569.99609375 353.33203125 545.99609375 337.999023438 517.99609375 c 0
 314.666015625 473.99609375 302.999023438 423.99609375 302.999023438 367.99609375 c 0
 302.999023438 311.329101562 308.33203125 257.329101562 318.999023438 205.99609375 c 0
 330.33203125 150.663085938 344.999023438 112.330078125 362.999023438 90.9970703125 c 0
 369.666015625 82.9970703125 382.999023438 88.9970703125 402.999023438 108.997070312 c 0
 403.666015625 109.6640625 403.999023438 142.331054688 403.999023438 206.998046875 c 2
343.999023438 595.997070312 m 0
 343.999023438 595.330078125 341 594.997070312 335 594.997070312 c 0
 279.666992188 592.997070312 231.666992188 570.330078125 191 526.997070312 c 0
 133 466.997070312 103 406.6640625 101 345.997070312 c 0
 99.6669921875 295.330078125 111.666992188 247.497070312 137 202.497070312 c 0
 159.666992188 162.1640625 186.666992188 124.997070312 218 90.9970703125 c 1
 234.75 90.9970703125 243.75 95.9970703125 245 105.997070312 c 0
 246.333007812 106.6640625 247.333007812 114.6640625 248 129.997070312 c 1
 212 205.997070312 194 285.997070312 194 369.997070312 c 0
 194 415.716796875 211.666992188 458.716796875 247 498.997070312 c 0
 310.333007812 571.6640625 342.666015625 603.997070312 343.999023438 595.997070312 c 0
EndSplineSet
Validated: 524325
EndChar

StartChar: X
Encoding: 88 88 89
Width: 550
GlyphClass: 1
Flags: W
LayerCount: 2
Fore
SplineSet
582 51 m 1
 474.000976562 -24.9990234375 l 1
 404.66796875 20.333984375 358.334960938 56.0009765625 335.001953125 82.0009765625 c 0
 323.668945312 95.333984375 310.668945312 120.000976562 296.001953125 156.000976562 c 0
 288.001953125 176.000976562 280.501953125 192.833984375 273.501953125 206.500976562 c 0
 266.501953125 220.16796875 260.334960938 230.66796875 255.001953125 238.000976562 c 1
 198.001953125 121.000976562 l 2
 177.334960938 77.66796875 152.001953125 43.0009765625 122.001953125 17.0009765625 c 0
 89.3349609375 -11.666015625 49.3349609375 -25.9990234375 2.001953125 -25.9990234375 c 2
 -12.998046875 -25.9990234375 l 2
 -14.998046875 -25.33203125 -17.6650390625 -24.9990234375 -20.998046875 -24.9990234375 c 1
 -20.998046875 -0.9990234375 l 1
 33.6689453125 9.66796875 86.001953125 52.66796875 136.001953125 128.000976562 c 0
 175.334960938 188.000976562 205.001953125 253.000976562 225.001953125 323.000976562 c 1
 177.001953125 434.000976562 l 2
 140.334960938 518.66796875 83.66796875 561.000976562 7.0009765625 561.000976562 c 1
 70.333984375 619.66796875 106.666992188 649.000976562 116 649.000976562 c 0
 144.666992188 649.000976562 170 639.000976562 192 619.000976562 c 0
 206 607.000976562 222.333007812 585.333984375 241 554.000976562 c 0
 262.333007812 520.000976562 277.666015625 497.333984375 286.999023438 486.000976562 c 1
 289.666015625 489.333984375 295.166015625 499.166992188 303.499023438 515.5 c 0
 311.83203125 531.833007812 322.665039062 555 335.998046875 585 c 0
 357.998046875 633 377.998046875 657 395.998046875 657 c 0
 402.665039062 657 415.665039062 650.333007812 434.998046875 637 c 0
 453.665039062 624.333007812 468.998046875 618 480.998046875 618 c 0
 506.998046875 618 529.998046875 631 549.998046875 657 c 1
 573.998046875 657 l 1
 562.665039062 599 541.665039062 561 510.998046875 543 c 0
 489.665039062 531 448.33203125 525 386.999023438 525 c 0
 380.999023438 525 367.999023438 505.333007812 347.999023438 466 c 0
 327.999023438 426.666992188 317.999023438 402.666992188 317.999023438 394 c 0
 317.999023438 358.666992188 336.33203125 312.666992188 372.999023438 256 c 0
 388.33203125 232.666992188 403.83203125 211.166992188 419.499023438 191.5 c 0
 435.166015625 171.833007812 451.333007812 154 468 138 c 0
 512 96 550 75 582 75 c 1
 582 51 l 1
EndSplineSet
Validated: 524289
EndChar

StartChar: Y
Encoding: 89 89 90
Width: 550
GlyphClass: 1
Flags: W
LayerCount: 2
Fore
SplineSet
353 206 m 1
 353 152 353.66796875 125.001953125 355.000976562 125.001953125 c 1
 355.000976562 89.001953125 360.000976562 71.3349609375 370.000976562 72.001953125 c 0
 385.333984375 72.6689453125 396.666992188 73.001953125 404 73.001953125 c 2
 491 72.001953125 l 2
 496.333007812 72.001953125 501.673828125 67.1513671875 507.021484375 57.451171875 c 0
 511.006835938 50.4853515625 515.333007812 44.001953125 520 38.001953125 c 0
 526 30.6689453125 529 21.001953125 529 9.001953125 c 0
 529 4.3349609375 525.333007812 2.001953125 518 2.001953125 c 2
 105 2.001953125 l 1
 76.3330078125 41.3349609375 61 63.001953125 59 67.001953125 c 0
 56.201171875 71.2001953125 58.5341796875 73.2001953125 66 73.001953125 c 2
 179 70.001953125 l 2
 219.830078125 70.6708984375 239.830078125 96.337890625 239 147.001953125 c 2
 238 208.001953125 l 1
 122 461.001953125 l 2
 92 530.334960938 69.6669921875 564.66796875 55 564.000976562 c 0
 47.6669921875 564.000976562 40.6669921875 557.333984375 34 544.000976562 c 1
 28.5615234375 553.518554688 25.89453125 558.518554688 26 559.000976562 c 0
 12 585.66796875 17.6669921875 611.66796875 43 637.000976562 c 0
 62.3330078125 656.333984375 86 664.534179688 114 661.600585938 c 0
 145.333007812 657.8671875 175 624.666992188 203 562 c 2
 310 349 l 1
 401 558 l 2
 406.333007812 576 395.666015625 589.333007812 368.999023438 598 c 0
 356.999023438 602 339.33203125 598.666992188 315.999023438 588 c 1
 306.999023438 606 l 1
 327.999023438 653 l 1
 514.999023438 656.01171875 l 1
 529.999023438 634 l 1
 516.666015625 616.666992188 504.333007812 597.666992188 493 577 c 2
 353 206 l 1
EndSplineSet
Validated: 524321
EndChar

StartChar: Z
Encoding: 90 90 91
Width: 550
GlyphClass: 1
Flags: W
LayerCount: 2
Fore
SplineSet
535 155 m 1
 535.001953125 185.001953125 l 1
 511.001953125 185.001953125 l 2
 510.334960938 184.334960938 493.001953125 171.66796875 459.001953125 147.000976562 c 0
 421.668945312 120.333984375 391.668945312 107.000976562 369.001953125 107.000976562 c 0
 323.561523438 107.000976562 283.561523438 112.333984375 249.001953125 123.000976562 c 2
 168.001953125 148.000976562 l 1
 524.001953125 634.000976562 l 1
 524.001953125 664.000976562 l 1
 522.001953125 662.66796875 507.334960938 656.66796875 480.001953125 646.000976562 c 0
 446.001953125 632.66796875 421.001953125 626.000976562 405.001953125 626.000976562 c 0
 393.001953125 626.000976562 364.668945312 632.333984375 320.001953125 645.000976562 c 0
 276.001953125 657.66796875 241.334960938 664.000976562 216.001953125 664.000976562 c 0
 171.334960938 664.000976562 130.001953125 642.333984375 92.001953125 599.000976562 c 0
 59.3349609375 562.333984375 36.3349609375 519.666992188 23.001953125 471 c 1
 37.001953125 475 61.001953125 488.666992188 95.001953125 512 c 0
 122.334960938 531.333007812 149.66796875 541 177.000976562 541 c 0
 216.556640625 541 253.889648438 537 289.000976562 529 c 2
 368.000976562 511 l 1
 11.0009765625 22 l 1
 19.0009765625 7.3330078125 28.66796875 -4.6669921875 40.0009765625 -14 c 1
 78.0009765625 3 l 2
 108.000976562 16.3330078125 126.66796875 22.666015625 134.000976562 21.9990234375 c 0
 139.333984375 21.33203125 167.000976562 16.33203125 217.000976562 6.9990234375 c 0
 240.333984375 2.33203125 264.166992188 -1.16796875 288.5 -3.5009765625 c 0
 312.833007812 -5.833984375 331 -7.0009765625 343 -7.0009765625 c 0
 371.666992188 -7.0009765625 398.666992188 1.33203125 424 17.9990234375 c 0
 449.823242188 35.21484375 473.823242188 60.8818359375 496 95 c 2
 535 155 l 1
EndSplineSet
Validated: 524329
EndChar

StartChar: bracketleft
Encoding: 91 91 92
Width: 550
GlyphClass: 1
Flags: W
LayerCount: 2
Fore
SplineSet
383 726 m 0
 383 740 375.665039062 747 360.998046875 747 c 0
 350.998046875 747 335.998046875 746 315.998046875 744 c 0
 295.998046875 742 280.998046875 741 270.998046875 741 c 0
 262.998046875 741 252.331054688 742 238.998046875 744 c 0
 225.665039062 746 214.665039062 747 205.998046875 747 c 0
 173.331054688 747 156.998046875 736.333007812 156.998046875 715 c 0
 156.998046875 709.666992188 158.998046875 702 162.998046875 692 c 0
 166.998046875 682 168.998046875 674 168.998046875 668 c 0
 168.998046875 586 168.331054688 463 166.998046875 299 c 0
 165.665039062 135 164.998046875 12 164.998046875 -70 c 0
 164.998046875 -90 174.331054688 -100 192.998046875 -100 c 0
 204.998046875 -100 221.831054688 -99.6669921875 243.498046875 -99 c 0
 265.165039062 -98.3330078125 282.33203125 -98 294.999023438 -98 c 0
 299.666015625 -98 306.333007812 -98.5 315 -99.5 c 0
 323.666992188 -100.5 330.333984375 -101 335.000976562 -101 c 0
 360.333984375 -101 373.000976562 -91.3330078125 373.000976562 -72 c 0
 373.000976562 -60 362.833984375 -54 342.500976562 -54 c 0
 322.16796875 -54 308.66796875 -51 302.000976562 -45 c 0
 295.333984375 -39 291.333984375 -26.3330078125 290.000976562 -7 c 2
 290.000976562 27 l 2
 290.000976562 86.3330078125 290.333984375 188.333007812 291.000976562 333 c 0
 292.333984375 463 292.666992188 564.666992188 292 638 c 2
 292 642 l 2
 292 670.666992188 300 689.666992188 316 699 c 0
 322.666992188 703.666992188 337 707 359 709 c 0
 375 711 383 716.666992188 383 726 c 0
EndSplineSet
Validated: 524329
EndChar

StartChar: backslash
Encoding: 92 92 93
Width: 550
GlyphClass: 1
Flags: W
LayerCount: 2
Fore
SplineSet
-17 692 m 0
 -17 702 6.333984375 707 53.0009765625 707 c 0
 81.0009765625 707 98.66796875 702.333007812 106.000976562 693 c 2
 123.000976562 664 l 1
 472.000976562 77 l 2
 494.000976562 41 525.66796875 -13.3330078125 567.000976562 -86 c 0
 570.333984375 -92 575.333984375 -100.333007812 582.000976562 -111 c 0
 588.000976562 -115.666992188 594.500976562 -120.666992188 601.500976562 -126 c 0
 608.500976562 -131.333007812 612.000976562 -137.333007812 612.000976562 -144 c 0
 612.000976562 -148 609.66796875 -150.666992188 605.000976562 -152 c 0
 581.000976562 -157.333007812 561.000976562 -160 545.000976562 -160 c 2
 523.000976562 -160 l 1
 500.000976562 -160 l 2
 490.000976562 -160 483.16796875 -157.166992188 479.500976562 -151.5 c 0
 475.833984375 -145.833007812 472.166992188 -140 468.5 -134 c 0
 464.833007812 -128 459.333007812 -119.333007812 452 -108 c 0
 413.333007812 -44.6669921875 323.666015625 110.333007812 182.999023438 357 c 2
 35.9990234375 615 l 2
 31.9990234375 624.333007812 24.9990234375 637.333007812 14.9990234375 654 c 0
 13.666015625 655.333007812 7.3330078125 661.333007812 -4 672 c 0
 -12.6669921875 680 -17 686.666992188 -17 692 c 0
EndSplineSet
Validated: 524289
EndChar

StartChar: bracketright
Encoding: 93 93 94
Width: 550
GlyphClass: 1
Flags: W
LayerCount: 2
Fore
SplineSet
145 726 m 0
 145 716.666992188 153 711 169 709 c 0
 191 707 205.333007812 703.666992188 212 699 c 0
 228 689.666992188 236 670.666992188 236 642 c 2
 236 638 l 2
 235.333007812 564.666992188 235.666015625 463 236.999023438 333 c 0
 237.666015625 188.333007812 237.999023438 86.3330078125 237.999023438 27 c 0
 237.999023438 -5.6669921875 236.999023438 -25 234.999023438 -31 c 0
 228.999023438 -46.3330078125 212.999023438 -54 186.999023438 -54 c 0
 165.666015625 -54 154.999023438 -60 154.999023438 -72 c 0
 154.999023438 -91.3330078125 167.666015625 -101 192.999023438 -101 c 0
 196.999023438 -101 203.499023438 -100.5 212.499023438 -99.5 c 0
 221.499023438 -98.5 228.33203125 -98 232.999023438 -98 c 0
 245.666015625 -98 262.833007812 -98.3330078125 284.5 -99 c 0
 306.166992188 -99.6669921875 323 -100 335 -100 c 0
 353.666992188 -100 363 -90 363 -70 c 0
 363 12 362.333007812 135 361 299 c 0
 359.666992188 463 359 586 359 668 c 0
 359 674 361 682.166992188 365 692.5 c 0
 369 702.833007812 371 711 371 717 c 0
 371 737 354.666992188 747 322 747 c 0
 313.333007812 747 302.333007812 746 289 744 c 0
 275.666992188 742 265 741 257 741 c 0
 247 741 232 742 212 744 c 0
 192 746 177 747 167 747 c 0
 152.333007812 747 145 740 145 726 c 0
EndSplineSet
Validated: 524329
EndChar

StartChar: asciicircum
Encoding: 94 94 95
Width: 550
GlyphClass: 1
Flags: W
LayerCount: 2
Fore
SplineSet
440 470 m 0
 440 466.666992188 437.333984375 460.501953125 432.000976562 451.501953125 c 0
 426.66796875 442.501953125 422.66796875 438.001953125 420.000976562 438.001953125 c 0
 416.66796875 438.001953125 393.334960938 451.001953125 350.001953125 477.001953125 c 0
 309.334960938 501.668945312 284.001953125 517.668945312 274.001953125 525.001953125 c 1
 263.334960938 517.001953125 236.001953125 499.668945312 192.001953125 473.001953125 c 0
 145.334960938 443.668945312 120.66796875 429.001953125 118.000976562 429.001953125 c 0
 115.333984375 429.001953125 111.833984375 432.501953125 107.500976562 439.501953125 c 0
 103.16796875 446.501953125 101.000976562 451.334960938 101.000976562 454.001953125 c 0
 101.000976562 457.334960938 104.333984375 462.66796875 111.000976562 470.000976562 c 0
 116.333984375 475.333984375 171.666992188 534.666992188 277 648 c 0
 277.666992188 648 279 648.333007812 281 649 c 0
 282.333007812 649 286 644.333007812 292 635 c 0
 297.333007812 628.333007812 324.333007812 599 373 547 c 0
 417.666992188 499.666992188 440 474 440 470 c 0
EndSplineSet
Validated: 524289
EndChar

StartChar: underscore
Encoding: 95 95 96
Width: 550
GlyphClass: 1
Flags: W
LayerCount: 2
Fore
SplineSet
514 -73 m 2
 71 -73 l 1
 40.3330078125 -27.6669921875 25 -2.6669921875 25 2 c 0
 25 6.009765625 27.3330078125 8.009765625 32 8 c 2
 487 7 l 2
 493.666992188 7 499 2.1669921875 503 -7.5 c 0
 507 -17.1669921875 511.333007812 -27 516 -37 c 0
 522 -50.3330078125 525 -60 525 -66 c 0
 525 -70.6669921875 521.333007812 -73 514 -73 c 2
EndSplineSet
Validated: 524289
EndChar

StartChar: grave
Encoding: 96 96 97
Width: 550
GlyphClass: 1
Flags: W
LayerCount: 2
Fore
SplineSet
250 665 m 1
 357 554 l 1
 337 498 l 1
 219 578 l 1
 250 665 l 1
EndSplineSet
Validated: 1
EndChar

StartChar: a
Encoding: 97 97 98
Width: 550
GlyphClass: 1
Flags: W
LayerCount: 2
Fore
SplineSet
325 128 m 0
 321.666992188 122.666992188 315.499023438 116.831054688 306.499023438 110.498046875 c 0
 292.83203125 100.165039062 279.999023438 93.6650390625 267.999023438 90.998046875 c 0
 255.999023438 88.3310546875 245.666015625 86.998046875 236.999023438 86.998046875 c 0
 196.999023438 86.998046875 164.28515625 98.228515625 138.858398438 120.688476562 c 0
 136.28515625 122.228515625 133.33203125 127.33203125 129.999023438 135.999023438 c 2
 129.999023438 141.499023438 l 2
 129.999023438 145.166015625 130.33203125 148.666015625 130.999023438 151.999023438 c 0
 134.999023438 170.666015625 160.33203125 188.333007812 206.999023438 205 c 0
 289.666015625 233.666992188 333.333007812 232.666992188 338 202 c 0
 342 172.666992188 337.666992188 148 325 128 c 0
18.9990234375 166.997070312 m 2
 13.9970703125 149.998046875 l 1
 14.4970703125 125.998046875 l 2
 16.830078125 81.3310546875 36.6630859375 48.6640625 73.99609375 27.9970703125 c 0
 93.3291015625 17.330078125 136.99609375 6.8857421875 204.99609375 -3.3369140625 c 0
 221.663085938 -5.78125 239.330078125 -7.0029296875 257.997070312 -7.0029296875 c 0
 258.6640625 -7.0029296875 291.6640625 16.9970703125 356.997070312 64.9970703125 c 1
 356.997070312 64.9970703125 l 1
 390.997070312 16.9970703125 419.997070312 -7.0029296875 443.997070312 -7.0029296875 c 0
 449.232421875 -7.0029296875 463.232421875 1.9970703125 485.997070312 19.9970703125 c 2
 528.997070312 53.9970703125 l 1
 528.997070312 71.9970703125 l 1
 506.997070312 71.9970703125 490.997070312 76.9970703125 480.997070312 86.9970703125 c 2
 451.997070312 129.997070312 l 1
 451.997070312 372.997070312 l 1
 447.997070312 379.997070312 l 1
 283.997070312 471.997070312 l 1
 218.6640625 436.6640625 161.331054688 403.997070312 111.998046875 373.997070312 c 2
 68.998046875 346.997070312 l 1
 97.546875 323.650390625 l 1
 133.84765625 346.547851562 181.08984375 362.60546875 239.272460938 371.823242188 c 0
 249.08984375 373.272460938 282.33203125 356.330078125 338.999023438 320.997070312 c 1
 337.999023438 292.997070312 l 1
 133.999023438 237.6640625 27.666015625 195.6640625 18.9990234375 166.997070312 c 2
EndSplineSet
Validated: 524325
EndChar

StartChar: b
Encoding: 98 98 99
Width: 550
GlyphClass: 1
Flags: W
LayerCount: 2
Fore
SplineSet
519 235 m 0
 519 191.666992188 492 140.666992188 438 82 c 0
 390 29.3330078125 325.333007812 -3.333984375 244 -16.0009765625 c 1
 71 94.9990234375 l 1
 70 145.999023438 l 1
 72 323.999023438 l 2
 73.48046875 455.795898438 59.1474609375 542.462890625 29 583.999023438 c 0
 26.3330078125 587.33203125 43 598.33203125 79 616.999023438 c 2
 140 649.999023438 l 1
 160 649.999023438 l 1
 160 325.999023438 l 1
 160 325.999023438 l 1
 337 445.098632812 l 2
 337.891601562 445.69921875 347.891601562 445.999023438 367 445.999023438 c 0
 400.333007812 445.999023438 435.333007812 419.999023438 472 367.999023438 c 0
 503.333007812 322.666015625 519 278.333007812 519 235 c 0
442 199 m 0
 442 231 430 261.666992188 406 291 c 0
 382 321 364 336 352 336 c 0
 229.333007812 336 168 294.333007812 168 211 c 0
 168 193.666992188 173 173.666992188 183 151 c 0
 198.333007812 115.666992188 226.666015625 98 267.999023438 98 c 0
 314.666015625 98 348.666015625 100.833007812 369.999023438 106.5 c 0
 391.33203125 112.166992188 406.33203125 119.666992188 414.999023438 129 c 0
 423.666015625 138.333007812 430.333007812 149 435 161 c 0
 439.666992188 173 442 185.666992188 442 199 c 0
EndSplineSet
Validated: 524325
EndChar

StartChar: c
Encoding: 99 99 100
Width: 550
GlyphClass: 1
Flags: W
LayerCount: 2
Fore
SplineSet
224 -7 m 0
 190.666992188 -5.6669921875 148.333984375 16.0009765625 97.0009765625 58.0009765625 c 0
 57.0009765625 90.66796875 37.0009765625 140.000976562 37.0009765625 206.000976562 c 2
 37.0009765625 292.000976562 l 1
 74.333984375 317.333984375 111.833984375 342.833984375 149.500976562 368.500976562 c 0
 227.833984375 422.16796875 280.333984375 456.66796875 307.000976562 472.000976562 c 1
 435.000976562 399.000976562 l 2
 471.000976562 378.333984375 489.000976562 364.666992188 489.000976562 358 c 0
 458.333984375 309.333007812 438.271484375 285 428.813476562 285 c 0
 422.938476562 285 408.40234375 294.389648438 385.205078125 313.168945312 c 0
 336.40234375 352.389648438 289.000976562 369 243.000976562 363 c 0
 217.000976562 359.666992188 188.854492188 338.478515625 158.561523438 299.435546875 c 0
 154.237304688 293.875 152.05078125 290.063476562 152.001953125 288 c 2
 151.001953125 246 l 2
 149.668945312 182 161.955078125 140.23046875 187.861328125 120.690429688 c 0
 251.288085938 72.896484375 327.505859375 68.44140625 416.514648438 107.325195312 c 0
 450.172851562 123.774414062 472.935546875 148.890625 484.802734375 182.674804688 c 1
 484.802734375 182.674804688 l 1
 498.001953125 127.999023438 l 2
 502.001953125 110.666015625 489.728515625 85.09375 461.181640625 51.2822265625 c 0
 427.061523438 11.7607421875 374.66796875 -8 304.000976562 -8 c 0
 277.333984375 -8 250.666992188 -7.6669921875 224 -7 c 0
EndSplineSet
Validated: 524325
EndChar

StartChar: d
Encoding: 100 100 101
Width: 550
GlyphClass: 1
Flags: W
LayerCount: 2
Fore
SplineSet
136 246 m 2
 134.666992188 182.666992188 146.954101562 140.896484375 172.860351562 120.690429688 c 0
 198.287109375 98.23046875 227.666992188 87 261 87 c 0
 269.666992188 87 280 88.3330078125 292 91 c 0
 304 93.6669921875 316.833007812 98.6669921875 330.5 106 c 0
 344.166992188 113.333007812 353.166992188 120.333007812 357.5 127 c 0
 361.833007812 133.666992188 364 143.666992188 364 157 c 2
 364 257 l 1
 362 292 l 1
 357 301 l 1
 353 307 l 1
 299.666992188 349 258 367.666992188 228 363 c 0
 201.333007812 359 173.186523438 337.811523438 143.560546875 299.435546875 c 2
 140 295 l 1
 137 291 l 1
 136 246 l 2
213.000976562 -3.3349609375 m 0
 182.333984375 0.8876953125 138.668945312 21.33203125 82.001953125 57.9990234375 c 0
 42.001953125 83.9990234375 22.001953125 133.33203125 22.001953125 205.999023438 c 2
 22.001953125 291.999023438 l 1
 59.3349609375 317.33203125 96.8349609375 342.83203125 134.501953125 368.499023438 c 0
 212.834960938 422.166015625 265.334960938 456.666015625 292.001953125 471.999023438 c 1
 339.334960938 444.666015625 363.334960938 430.833007812 364.001953125 430.5 c 0
 364.668945312 430.166992188 364.668945312 432.7109375 364.001953125 438.131835938 c 2
 364.001953125 482 l 2
 364.001953125 547.333007812 355.001953125 584.666015625 337.001953125 593.999023438 c 1
 355.001953125 606.666015625 376.001953125 619.666015625 400.001953125 632.999023438 c 0
 435.334960938 652.33203125 455.334960938 660.999023438 460.001953125 658.999023438 c 1
 460.001953125 129.999023438 l 1
 489.001953125 86.9990234375 l 2
 499.001953125 76.9990234375 515.001953125 71.9990234375 537.001953125 71.9990234375 c 1
 537.001953125 53.9990234375 l 1
 494.001953125 19.9990234375 l 2
 471.334960938 1.9990234375 457.334960938 -7.0009765625 452.001953125 -7.0009765625 c 0
 428.001953125 -7.0009765625 399.001953125 16.9990234375 365.001953125 64.9990234375 c 1
 299.668945312 16.9990234375 266.668945312 -7.0009765625 266.001953125 -7.0009765625 c 0
 247.334960938 -7.0009765625 229.66796875 -5.779296875 213.000976562 -3.3349609375 c 0
EndSplineSet
Validated: 524321
EndChar

StartChar: e
Encoding: 101 101 102
Width: 550
GlyphClass: 1
Flags: W
LayerCount: 2
Fore
SplineSet
246 92 m 1
 461.999023438 321.000976562 l 2
 473.999023438 335.000976562 483.666015625 347.333984375 490.999023438 358.000976562 c 0
 490.999023438 364.802734375 472.999023438 378.469726562 436.999023438 399.000976562 c 2
 308.999023438 472.000976562 l 1
 282.33203125 456.66796875 229.83203125 422.16796875 151.499023438 368.500976562 c 0
 113.83203125 342.833984375 76.33203125 317.333984375 38.9990234375 292.000976562 c 1
 38.9990234375 206.000976562 l 2
 38.9990234375 140.000976562 58.9990234375 90.66796875 98.9990234375 58.0009765625 c 0
 150.33203125 16.0009765625 192.665039062 -5.666015625 225.998046875 -6.9990234375 c 0
 252.665039062 -7.666015625 279.33203125 -7.9990234375 305.999023438 -7.9990234375 c 0
 376.666015625 -7.9990234375 429.059570312 11.76171875 463.1796875 51.283203125 c 0
 491.870117188 85.2646484375 504.143554688 110.836914062 500 128 c 2
 486.80078125 182.67578125 l 1
 486.80078125 182.67578125 l 1
 474.93359375 148.891601562 452.170898438 123.775390625 418.512695312 107.326171875 c 0
 353.50390625 79.1083984375 296 74 246 92 c 1
189.999023438 120.000976562 m 1
 189.858398438 120.69140625 l 1
 163.952148438 140.231445312 151.666015625 182.000976562 152.999023438 246.000976562 c 2
 153.999023438 288.000976562 l 2
 153.999023438 290.000976562 156.185546875 293.8125 160.559570312 299.436523438 c 0
 190.852539062 338.479492188 218.999023438 359.66796875 244.999023438 363.000976562 c 0
 290.33203125 369.000976562 335.33203125 354.333984375 379.999023438 319.000976562 c 1
 189.999023438 120.000976562 l 1
EndSplineSet
Validated: 524325
EndChar

StartChar: f
Encoding: 102 102 103
Width: 550
GlyphClass: 1
Flags: W
LayerCount: 2
Fore
SplineSet
121 376 m 2
 89 374.666992188 68.1630859375 371.166992188 58.49609375 365.5 c 0
 48.8291015625 359.833007812 42.99609375 357 40.99609375 357 c 0
 28.99609375 357 24.6630859375 360.333007812 27.99609375 367 c 0
 36.6630859375 385.666992188 43.6630859375 403.333984375 48.99609375 420.000976562 c 0
 52.3291015625 430.66796875 60.078125 435.893554688 72.2421875 435.678710938 c 0
 116.009765625 435.893554688 138.594726562 436.333984375 139.99609375 437.000976562 c 0
 160.663085938 437.66796875 171.334960938 442.74609375 172.01171875 452.236328125 c 0
 172.66796875 462.080078125 165.663085938 474.66796875 150.99609375 490.000976562 c 0
 122.99609375 520.000976562 112.99609375 539.66796875 120.99609375 549.000976562 c 2
 280.99609375 656.000976562 l 1
 393.663085938 656.000976562 460.330078125 642.333984375 480.997070312 615.000976562 c 0
 498.330078125 591.66796875 506.997070312 573.66796875 506.997070312 561.000976562 c 1
 426.997070312 506.000976562 l 1
 423.6640625 511.333984375 420.331054688 517.166992188 416.998046875 523.5 c 0
 405.665039062 545.833007812 392.33203125 564.333007812 376.999023438 579 c 0
 355.666015625 600.333007812 316.333007812 605 259 593 c 1
 233 571 l 1
 232 564 l 1
 272 449 l 2
 274.688476562 442.278320312 281.688476562 438.9453125 293 439 c 2
 499 440 l 1
 505 433 l 1
 479 356 l 1
 473 351.333007812 466.666992188 350 460 352 c 1
 460 352 l 1
 330 372 l 2
 301.333007812 376.666992188 285 377 281 373 c 1
 282 182 l 2
 282 181.333007812 281.833007812 155.833007812 281.5 105.5 c 0
 281.166992188 75.1669921875 280.666992188 40 280 -0 c 0
 280 -4.2568359375 256.666992188 -4.58984375 210 -1 c 0
 208.666992188 -1 195.666992188 0 171 2 c 1
 169 378 l 1
 121 376 l 2
EndSplineSet
Validated: 524325
EndChar

StartChar: g
Encoding: 103 103 104
Width: 550
GlyphClass: 1
Flags: W
LayerCount: 2
Fore
SplineSet
462 321 m 0
 462 310.333007812 463.666992188 294.668945312 467 274.001953125 c 0
 470.333007812 253.334960938 472 237.66796875 472 227.000976562 c 0
 472 210.333984375 461.666992188 191.666992188 441 171 c 0
 420.333007812 150.333007812 410 138.333007812 410 135 c 1
 410 135.666992188 420.666992188 113.833984375 442 69.5009765625 c 0
 463.333007812 25.16796875 474 -10.9990234375 474 -38.9990234375 c 0
 474 -79.666015625 447.333007812 -121.999023438 394 -165.999023438 c 0
 351.333007812 -201.33203125 295 -218.999023438 225 -218.999023438 c 0
 212.333007812 -218.999023438 197 -216.666015625 179 -211.999023438 c 0
 155.666992188 -205.999023438 131 -196.666015625 105 -183.999023438 c 0
 69 -165.999023438 51 -149.666015625 51 -134.999023438 c 0
 51 -128.999023438 61.5 -115.166015625 82.5 -93.4990234375 c 0
 103.5 -71.83203125 117.333007812 -60.9990234375 124 -60.9990234375 c 0
 124.666992188 -60.9990234375 131 -69.4990234375 143 -86.4990234375 c 0
 155 -103.499023438 162 -113.33203125 164 -115.999023438 c 0
 190.666992188 -142.666015625 214 -155.999023438 234 -155.999023438 c 0
 356.666992188 -155.999023438 410.333984375 -121.666015625 395.000976562 -52.9990234375 c 0
 393.66796875 -46.9990234375 378.834960938 -29.9990234375 350.501953125 -1.9990234375 c 0
 321.501953125 26.66796875 293.668945312 41.0009765625 267.001953125 41.0009765625 c 2
 264.001953125 41.0009765625 l 1
 217.334960938 7.0009765625 180.66796875 -9.9990234375 154.000976562 -9.9990234375 c 0
 146.66796875 -9.9990234375 133.66796875 -2.33203125 115.000976562 13.0009765625 c 0
 48.333984375 69.66796875 15.0009765625 128.334960938 15.0009765625 189.001953125 c 0
 15.0009765625 201.001953125 16.0009765625 213.334960938 18.0009765625 226.001953125 c 0
 22.0009765625 252.668945312 62.0009765625 299.3359375 138.000976562 366.002929688 c 0
 204.000976562 424.002929688 257.66796875 453.002929688 299.000976562 453.002929688 c 0
 315.66796875 453.002929688 339.66796875 443.169921875 371.000976562 423.502929688 c 0
 402.333984375 403.8359375 418.666992188 394.002929688 420 394.002929688 c 2
 465 466.002929688 l 1
 474.333007812 465.3359375 485.5 452.668945312 498.5 428.001953125 c 0
 511.5 403.334960938 518 385.334960938 518 374.001953125 c 0
 518 367.334960938 517 363.66796875 515 363.000976562 c 0
 511.983398438 362.360351562 500.31640625 356.693359375 480 346 c 0
 468 340 462 331.666992188 462 321 c 0
383 217.002929688 m 0
 383 259.002929688 366.000976562 291.168945312 332.000976562 313.501953125 c 0
 298.000976562 335.834960938 260.333984375 347.001953125 219.000976562 347.001953125 c 0
 189.000976562 347.001953125 164.000976562 330.001953125 144.000976562 296.001953125 c 0
 123.333984375 260.668945312 113.000976562 236.001953125 113.000976562 222.001953125 c 0
 113.000976562 209.334960938 124.333984375 184.001953125 147.000976562 146.001953125 c 0
 172.333984375 103.334960938 199.666992188 82.001953125 229 82.001953125 c 2
 232 82.001953125 l 1
 325.333007812 140.668945312 373.333007812 173.3359375 376 180.002929688 c 0
 380.666992188 190.669921875 383 203.002929688 383 217.002929688 c 0
EndSplineSet
Validated: 524321
EndChar

StartChar: h
Encoding: 104 104 105
Width: 550
GlyphClass: 1
Flags: W
LayerCount: 2
Fore
SplineSet
169 483 m 0
 171 541 175.000976562 598.000976562 181.000976562 654.000976562 c 1
 158.000976562 654.000976562 l 1
 140.66796875 642.66796875 121.834960938 631.334960938 101.501953125 620.001953125 c 0
 81.1689453125 608.668945312 59.6689453125 596.668945312 37.001953125 584.001953125 c 1
 55.001953125 553.001953125 l 2
 67.001953125 532.334960938 73.001953125 508.66796875 73.001953125 482.000976562 c 2
 73.001953125 -1.9990234375 l 1
 87.337890625 -4.60546875 100.670898438 -5.60546875 113.001953125 -4.9990234375 c 2
 174.001953125 -1.9990234375 l 1
 174.001953125 199.000976562 l 2
 174.001953125 285.000976562 215.001953125 328.000976562 297.001953125 328.000976562 c 0
 338.334960938 328.000976562 368.001953125 316.333984375 386.001953125 293.000976562 c 0
 406.668945312 266.333984375 417.001953125 233.333984375 417.001953125 194.000976562 c 0
 417.001953125 157.333984375 406.334960938 120.333984375 385.001953125 83.0009765625 c 0
 379.668945312 73.66796875 371.001953125 61.66796875 359.001953125 47.0009765625 c 0
 347.001953125 32.333984375 332.334960938 14.6669921875 315.001953125 -6 c 1
 323.668945312 -16 331.668945312 -23.6669921875 339.001953125 -29 c 1
 450.334960938 50.3330078125 506.001953125 138 506.001953125 234 c 0
 506.001953125 282 490.001953125 328.666992188 458.001953125 374 c 0
 404.001953125 451.333007812 363.001953125 476 335.001953125 448 c 0
 334.334960938 447.333007812 318.66796875 436.333007812 288.000976562 415 c 0
 212.000976562 363 174.000976562 338.166992188 174.000976562 340.5 c 1
 167.333984375 336.166992188 165.666992188 383.666992188 169 483 c 0
EndSplineSet
Validated: 524329
EndChar

StartChar: i
Encoding: 105 105 106
Width: 550
GlyphClass: 1
Flags: W
LayerCount: 2
Fore
SplineSet
67 355 m 0
 63.6669921875 348.333007812 67.9990234375 345 79.9990234375 345 c 0
 81.9990234375 345 87.83203125 347.833007812 97.4990234375 353.5 c 0
 107.166015625 359.166992188 116.999023438 362 126.999023438 362 c 0
 203.666015625 372.666992188 246.333007812 346.5 255 283.5 c 0
 257.666992188 265.166992188 262.333984375 226 269.000976562 166 c 0
 270.28515625 161.504882812 270.618164062 158.837890625 270 158 c 0
 275.333007812 114 255.825195312 87.541015625 211.475585938 78.6220703125 c 1
 176.4921875 78.8740234375 132 79 78 79 c 0
 68.6669921875 79 62 73.6669921875 58 63 c 0
 51.3330078125 45.6669921875 46.666015625 33.6669921875 43.9990234375 27 c 0
 36.666015625 9.6669921875 32.9990234375 -1 32.9990234375 -5 c 0
 32.9990234375 -11.6669921875 37.33203125 -15 45.9990234375 -15 c 0
 47.9990234375 -15 53.83203125 -12.6669921875 63.4990234375 -8 c 0
 73.166015625 -3.3330078125 82.9990234375 -1 92.9990234375 -1 c 2
 168.999023438 -1 l 2
 210.999023438 -0.3330078125 251.33203125 0 289.999023438 -0 c 0
 353.999023438 -0.6669921875 395.999023438 -1.333984375 415.999023438 -2.0009765625 c 0
 418.666015625 -2.0009765625 424.666015625 -2.333984375 433.999023438 -3.0009765625 c 0
 441.33203125 -3.66796875 446.999023438 -4.0009765625 450.999023438 -4.0009765625 c 0
 459.666015625 -4.0009765625 466.666015625 3.9990234375 471.999023438 19.9990234375 c 0
 473.33203125 23.9990234375 478.999023438 34.666015625 488.999023438 51.9990234375 c 0
 497.666015625 67.33203125 501.999023438 77.33203125 501.999023438 81.9990234375 c 0
 501.999023438 87.33203125 498.999023438 89.9990234375 492.999023438 89.9990234375 c 0
 488.999023438 89.9990234375 482.33203125 87.9990234375 472.999023438 83.9990234375 c 0
 463.666015625 79.9990234375 455.999023438 77.9990234375 449.999023438 77.9990234375 c 2
 384.419921875 77.9990234375 l 2
 369.47265625 77.9990234375 361.999023438 93.666015625 361.999023438 124.999023438 c 2
 361.999023438 163.999023438 l 1
 358.999023438 443.999023438 l 1
 360.999023438 443.999023438 l 1
 353.666015625 436.666015625 345.022460938 432.541015625 335.068359375 431.624023438 c 0
 235.689453125 422.541015625 161.08203125 418.55859375 111.24609375 419.676757812 c 0
 98.40625 419.854492188 90.6572265625 414.62890625 88 403.999023438 c 0
 86.6669921875 398.666015625 79.6669921875 382.333007812 67 355 c 0
382.999023438 562 m 1
 251.999023438 520 l 1
 251.999023438 591 l 1
 255.999023438 597 273.999023438 607.666992188 305.999023438 623 c 0
 323.999023438 631.666992188 338.166015625 638.5 348.499023438 643.5 c 0
 358.83203125 648.5 365.33203125 652 367.999023438 654 c 2
 382.999023438 654 l 1
 382.999023438 562 l 1
EndSplineSet
Validated: 524325
EndChar

StartChar: j
Encoding: 106 106 107
Width: 550
GlyphClass: 1
Flags: W
LayerCount: 2
Fore
SplineSet
214 -200 m 1
 110.666992188 -200 48.0029296875 -185.001953125 26.0029296875 -155.001953125 c 0
 8.669921875 -131.668945312 0.0029296875 -113.668945312 0.0029296875 -101.001953125 c 1
 80.0029296875 -46.001953125 l 1
 83.3359375 -51.3349609375 86.6689453125 -57.16796875 90.001953125 -63.5009765625 c 0
 101.334960938 -85.833984375 114.66796875 -104.333984375 130.000976562 -119.000976562 c 0
 158.000976562 -147.000976562 214.000976562 -151.66796875 298.000976562 -133.000976562 c 1
 324.491210938 -109.033203125 l 1
 350.90234375 -76.2568359375 363.405273438 -21.24609375 362.000976562 55.9990234375 c 0
 364.653320312 67.271484375 363.986328125 103.938476562 360.000976562 166 c 0
 355.333984375 233.333007812 353.000976562 269.666015625 353.000976562 274.999023438 c 0
 353.000976562 353.19921875 269.000976562 379.69921875 101.000976562 354.499023438 c 0
 94.333984375 353.499023438 82.0009765625 376.999023438 64.0009765625 424.999023438 c 1
 214.66796875 421.666015625 335.357421875 423.874023438 426.069335938 431.624023438 c 0
 436.0234375 432.541015625 444.666992188 436.666015625 452 443.999023438 c 1
 460 443.999023438 l 1
 464 5.9990234375 l 2
 464.666992188 -45.333984375 454 -83.333984375 432 -108.000976562 c 0
 386.666992188 -159.333984375 347 -187.666992188 313 -193 c 2
 298 -196 l 1
 214 -200 l 1
478.002929688 561.998046875 m 1
 347.002929688 519.998046875 l 1
 347.002929688 590.998046875 l 1
 351.002929688 596.998046875 369.002929688 607.665039062 401.002929688 622.998046875 c 0
 419.002929688 631.665039062 433.169921875 638.498046875 443.502929688 643.498046875 c 0
 453.8359375 648.498046875 460.3359375 651.998046875 463.002929688 653.998046875 c 2
 478.002929688 653.998046875 l 1
 478.002929688 561.998046875 l 1
EndSplineSet
Validated: 524321
EndChar

StartChar: k
Encoding: 107 107 108
Width: 550
GlyphClass: 1
Flags: W
LayerCount: 2
Fore
SplineSet
526 -1 m 1
 418 -0.9990234375 l 1
 418 8.333984375 397.666992188 49.6669921875 357 123 c 0
 331.666992188 168.333007812 280.333984375 191 203.000976562 191 c 0
 178.823242188 191 167.823242188 174.666992188 170.000976562 142 c 2
 172.000976562 112 l 1
 173.000976562 90 l 1
 173.000976562 -1 l 1
 66.0009765625 -1 l 1
 66.0009765625 494 l 2
 66.0009765625 508.666992188 52.0009765625 536.666992188 24.0009765625 578 c 1
 109.333984375 632.666992188 161.666992188 659 181 657 c 1
 178.333007812 640.333007812 176.333007812 626.833007812 175 616.5 c 0
 173.666992188 606.166992188 173 598.666992188 173 594 c 2
 173 330 l 1
 180 330 l 2
 187.333007812 330 220 356.666992188 278 410 c 0
 307.333007812 437.333007812 331 451 349 451 c 0
 404.333007812 451 446 430.666992188 474 390 c 0
 499.333007812 352.666992188 512 316 512 280 c 0
 512 265.663085938 501 254.663085938 479 247 c 2
 390 216 l 1
 480.666992188 110 526 37.6669921875 526 -1 c 1
402 300.000976562 m 1
 396 311.333984375 392.500976562 317.334960938 391.500976562 318.001953125 c 0
 387.592773438 322.399414062 379.592773438 327.732421875 367.500976562 334.001953125 c 0
 358.500976562 338.668945312 349.000976562 342.501953125 339.000976562 345.501953125 c 0
 316.076171875 352.37890625 301.409179688 353.87890625 295.000976562 350.001953125 c 0
 215.66796875 301.334960938 176.000976562 269.334960938 176.000976562 254.001953125 c 0
 176.000976562 242.001953125 180.000976562 235.334960938 188.000976562 234.001953125 c 0
 204.265625 232.662109375 262.598632812 249.995117188 363 286.000976562 c 2
 402 300.000976562 l 1
EndSplineSet
Validated: 524321
EndChar

StartChar: l
Encoding: 108 108 109
Width: 550
GlyphClass: 1
Flags: W
LayerCount: 2
Fore
SplineSet
67 575 m 0
 63.6669921875 568.333007812 68.0009765625 565 80.0009765625 565 c 0
 82.0009765625 565 87.833984375 567.833007812 97.5009765625 573.5 c 0
 107.16796875 579.166992188 117.000976562 582 127.000976562 582 c 0
 209.000976562 592.666992188 251.66796875 566.5 255.000976562 503.5 c 0
 259.66796875 391.166992188 264.334960938 278.666992188 269.001953125 166 c 0
 270.286132812 161.504882812 270.619140625 158.837890625 270.000976562 158 c 0
 275.333984375 114 255.826171875 87.541015625 211.4765625 78.6220703125 c 1
 176.493164062 78.8740234375 132.000976562 79 78.0009765625 79 c 0
 68.66796875 79 62.0009765625 73.6669921875 58.0009765625 63 c 0
 51.333984375 45.6669921875 46.6669921875 33.6669921875 44 27 c 0
 36.6669921875 9.6669921875 33 -1 33 -5 c 0
 33 -11.6669921875 37.3330078125 -15 46 -15 c 0
 48 -15 53.8330078125 -12.6669921875 63.5 -8 c 0
 73.1669921875 -3.3330078125 83 -1 93 -1 c 2
 169 -1 l 2
 211 -0.3330078125 251.333007812 0 290 -0 c 0
 354 -0.6669921875 396 -1.333984375 416 -2.0009765625 c 0
 418.666992188 -2.0009765625 424.666992188 -2.333984375 434 -3.0009765625 c 0
 441.333007812 -3.66796875 447 -4.0009765625 451 -4.0009765625 c 0
 459.666992188 -4.0009765625 466.666992188 3.9990234375 472 19.9990234375 c 0
 473.333007812 23.9990234375 479 34.666015625 489 51.9990234375 c 0
 497.666992188 67.33203125 502 77.33203125 502 81.9990234375 c 0
 502 87.33203125 499 89.9990234375 493 89.9990234375 c 0
 489 89.9990234375 482.333007812 87.9990234375 473 83.9990234375 c 0
 463.666992188 79.9990234375 456 77.9990234375 450 77.9990234375 c 2
 384.420898438 77.9990234375 l 2
 369.473632812 77.9990234375 362 93.666015625 362 124.999023438 c 2
 362 163.999023438 l 1
 359 663.999023438 l 1
 361 663.999023438 l 1
 353.666992188 656.666015625 345.0234375 652.541015625 335.069335938 651.624023438 c 0
 235.690429688 642.541015625 161.083007812 638.55859375 111.247070312 639.676757812 c 0
 98.416015625 639.891601562 90.6669921875 634.666015625 88 623.999023438 c 0
 85.3330078125 614.666015625 78.3330078125 598.333007812 67 575 c 0
111.247070312 639.677734375 m 1024
EndSplineSet
Validated: 524325
EndChar

StartChar: m
Encoding: 109 109 110
Width: 550
GlyphClass: 1
Flags: W
LayerCount: 2
Fore
SplineSet
320.6953125 347.6953125 m 1
 417.32421875 452.217773438 l 2
 428.904296875 463.607421875 450.77734375 449.202148438 482.944335938 409.001953125 c 0
 500.95703125 387.561523438 509.963867188 356.741210938 509.963867188 316.541015625 c 2
 509.963867188 -1.0390625 l 1
 409.604492188 -1.0390625 l 1
 410.569335938 257.24609375 l 2
 410.728515625 299.947265625 406.546875 326.077148438 398.024414062 335.635742188 c 0
 381.94140625 352.385742188 372.6171875 359.0859375 370.051757812 355.736328125 c 0
 338.51953125 314.196289062 322.75390625 291.081054688 322.75390625 286.390625 c 2
 322.75390625 -1.0390625 l 1
 222.393554688 -1.0390625 l 1
 223.359375 257.24609375 l 2
 223.518554688 299.947265625 219.336914062 326.077148438 210.814453125 335.635742188 c 0
 194.731445312 352.385742188 185.407226562 359.0859375 182.841796875 355.736328125 c 0
 151.310546875 314.196289062 135.544921875 291.081054688 135.544921875 286.390625 c 2
 135.544921875 -3.048828125 l 1
 43.8701171875 -3.048828125 l 1
 43.8701171875 270.310546875 l 2
 43.8701171875 311.180664062 42.26171875 334.630859375 39.044921875 340.661132812 c 0
 30.0380859375 358.750976562 16.5283203125 367.795898438 -1.4853515625 367.795898438 c 1
 -1.4853515625 375.8359375 l 2
 -1.4853515625 385.885742188 25.212890625 410.67578125 78.6103515625 450.206054688 c 1
 95.3369140625 450.206054688 116.245117188 418.715820312 141.334960938 355.736328125 c 1
 230.115234375 452.215820312 l 2
 241.6953125 463.60546875 263.568359375 449.200195312 295.735351562 409 c 0
 308.6015625 393.58984375 316.921875 373.155273438 320.6953125 347.6953125 c 1
EndSplineSet
Validated: 524321
EndChar

StartChar: n
Encoding: 110 110 111
Width: 550
GlyphClass: 1
Flags: W
LayerCount: 2
Fore
SplineSet
499 6 m 1
 485.376953125 3.275390625 477.375 1.9404296875 474.998046875 1.998046875 c 2
 433.998046875 2.998046875 l 1
 393.998046875 5.998046875 l 1
 393.998046875 264.998046875 l 2
 393.998046875 294.331054688 389.998046875 314.998046875 381.998046875 326.998046875 c 0
 371.998046875 342.331054688 352.998046875 349.998046875 324.998046875 349.998046875 c 0
 313.665039062 349.998046875 297.665039062 346.665039062 276.998046875 339.998046875 c 0
 242.998046875 329.331054688 208.665039062 320.998046875 173.998046875 314.998046875 c 1
 173.998046875 -0.001953125 l 1
 76.998046875 -0.001953125 l 1
 76.998046875 318.998046875 l 2
 76.998046875 336.331054688 70.998046875 348.331054688 58.998046875 354.998046875 c 0
 55.6650390625 356.998046875 50.33203125 359.498046875 42.9990234375 362.498046875 c 0
 35.666015625 365.498046875 26.3330078125 369.331054688 15 373.998046875 c 1
 15 385.998046875 l 1
 122 450.998046875 l 1
 147.276367188 439.025390625 163.609375 422.692382812 171 401.999023438 c 2
 181 373.999023438 l 1
 371 454.999023438 l 1
 417.666992188 441.666015625 448.666992188 428.333007812 464 415 c 0
 487.333007812 395 499 364.666992188 499 324 c 2
 499 6 l 1
EndSplineSet
Validated: 524289
EndChar

StartChar: o
Encoding: 111 111 112
Width: 550
GlyphClass: 1
Flags: W
LayerCount: 2
Fore
SplineSet
404 287.630859375 m 0
 398.666992188 297.876953125 391.400390625 306.391601562 382.203125 313.170898438 c 0
 334.067382812 351.05859375 286.666015625 367.668945312 239.999023438 363.001953125 c 0
 190.666015625 358.334960938 162.51953125 337.146484375 155.559570312 299.436523438 c 0
 153.748046875 289.221679688 151.561523438 268.743164062 149 238.000976562 c 0
 148.284179688 230.123046875 147.951171875 226.123046875 148.000976562 226.000976562 c 0
 144.000976562 174.000976562 159.62109375 135.564453125 194.860351562 110.69140625 c 0
 229.62109375 85.564453125 291.361328125 84.482421875 380.081054688 107.446289062 c 0
 384.02734375 108.482421875 396.509765625 124.276367188 417.528320312 154.828125 c 1
 410 277 l 2
 408 280.333007812 406 283.876953125 404 287.630859375 c 0
503.999023438 322.001953125 m 2
 519.999023438 135.000976562 l 1
 519.999023438 135.000976562 l 1
 519.999023438 128.333984375 495.690429688 100.233398438 447.072265625 50.69921875 c 0
 411.0234375 13.5673828125 361.598632812 -4.9990234375 298.798828125 -4.9990234375 c 0
 227.598632812 -4.9990234375 159.33203125 16.0009765625 93.9990234375 58.0009765625 c 0
 53.9990234375 84.0009765625 33.9990234375 110.000976562 33.9990234375 136.000976562 c 2
 33.9990234375 292.000976562 l 1
 71.33203125 317.333984375 108.83203125 342.833984375 146.499023438 368.500976562 c 0
 224.83203125 422.16796875 277.33203125 456.66796875 303.999023438 472.000976562 c 1
 390.0390625 418.516601562 439.372070312 387.516601562 451.999023438 379.000976562 c 0
 466.666015625 369.000976562 480.999023438 359.333984375 494.999023438 350.000976562 c 0
 496.33203125 346.66796875 499.33203125 337.334960938 503.999023438 322.001953125 c 2
EndSplineSet
Validated: 524325
EndChar

StartChar: p
Encoding: 112 112 113
Width: 550
GlyphClass: 1
Flags: W
LayerCount: 2
Fore
SplineSet
519 250 m 0
 519 188.666992188 501.666015625 132.665039062 466.999023438 81.998046875 c 0
 428.33203125 25.3310546875 373.33203125 -3.001953125 301.999023438 -3.001953125 c 0
 269.33203125 -3.001953125 242.33203125 2.3310546875 220.999023438 12.998046875 c 2
 170.999023438 37.998046875 l 1
 170.999023438 -188.001953125 l 1
 77.9990234375 -188.001953125 l 1
 77.9990234375 -103.001953125 l 2
 77.9990234375 -99.6689453125 77.666015625 -75.001953125 76.9990234375 -29.001953125 c 2
 74.9990234375 109.998046875 l 2
 74.33203125 133.331054688 73.9990234375 154.998046875 73.9990234375 174.998046875 c 2
 73.9990234375 230.998046875 l 1
 73.9990234375 241.998046875 l 2
 73.9990234375 289.998046875 67.9990234375 325.998046875 55.9990234375 349.998046875 c 2
 33.9990234375 381.998046875 l 1
 33.9990234375 389.331054688 52.666015625 402.331054688 89.9990234375 420.998046875 c 2
 158.999023438 454.998046875 l 1
 170.999023438 454.998046875 l 1
 170.999023438 328.998046875 l 1
 179.666015625 337.665039062 216.333007812 367.33203125 281 417.999023438 c 0
 313 442.666015625 331.333007812 454.999023438 336 454.999023438 c 0
 396.666992188 454.999023438 443 431.999023438 475 385.999023438 c 0
 504.333007812 344.666015625 519 299.333007812 519 250 c 0
445.999023438 187.998046875 m 0
 445.999023438 223.331054688 432.33203125 257.6640625 404.999023438 290.997070312 c 0
 377.666015625 324.997070312 352.666015625 341.997070312 329.999023438 341.997070312 c 0
 273.33203125 341.997070312 221.999023438 319.6640625 175.999023438 274.997070312 c 1
 175.999023438 198.997070312 l 2
 175.999023438 171.6640625 193.83203125 145.331054688 229.499023438 119.998046875 c 0
 258.499023438 99.3310546875 291.666015625 88.998046875 328.999023438 88.998046875 c 0
 370.999023438 88.998046875 400.999023438 97.998046875 418.999023438 115.998046875 c 0
 436.999023438 133.998046875 445.999023438 157.998046875 445.999023438 187.998046875 c 0
EndSplineSet
Validated: 524289
EndChar

StartChar: q
Encoding: 113 113 114
Width: 550
GlyphClass: 1
Flags: W
LayerCount: 2
Fore
SplineSet
479 429 m 1
 461.666992188 391 453.000976562 299.666015625 453.000976562 154.999023438 c 0
 453.000976562 137.666015625 453.333984375 112.333007812 454.000976562 79 c 0
 454.000976562 70.1669921875 455.000976562 28.5 457.000976562 -46 c 2
 461.000976562 -195 l 1
 358.000976562 -194 l 1
 359.000976562 32 l 1
 359.000976562 42 l 1
 359.000976562 99 l 1
 346.333984375 97.6669921875 314.833984375 78.1669921875 264.500976562 40.5 c 2
 229.000976562 14 l 2
 205.000976562 -4 189.66796875 -13 183.000976562 -13 c 0
 130.333984375 -13 88.6669921875 9 58 53 c 0
 30.6669921875 92.3330078125 17 139 17 193 c 0
 17 223 36.6669921875 272.333007812 76 341 c 0
 116.666992188 413 151 449 179 449 c 0
 257.666992188 449 327 434.666992188 387 406 c 0
 393.666992188 406 406.666992188 412.333007812 426 425 c 0
 445.333007812 437.666992188 459.333007812 444 468 444 c 1
 479 429 l 1
361.000976562 189.999023438 m 0
 361.000976562 224.666015625 358.333007812 251.999023438 353 271.999023438 c 0
 339.666992188 319.33203125 283 342.999023438 183 342.999023438 c 0
 159.666992188 342.999023438 139.666992188 331.666015625 123 308.999023438 c 0
 106.333007812 287.666015625 98 264.666015625 98 239.999023438 c 0
 98 205.999023438 107.333007812 174.666015625 126 145.999023438 c 0
 146.666992188 113.33203125 173.333984375 96.9990234375 206.000976562 96.9990234375 c 0
 309.333984375 96.9990234375 361.000976562 127.999023438 361.000976562 189.999023438 c 0
EndSplineSet
Validated: 524289
EndChar

StartChar: r
Encoding: 114 114 115
Width: 550
GlyphClass: 1
Flags: W
LayerCount: 2
Fore
SplineSet
257 164 m 1
 256.99609375 124.999023438 l 2
 256.99609375 93.666015625 264.469726562 77.9990234375 279.416992188 77.9990234375 c 2
 434.99609375 77.9990234375 l 2
 440.99609375 77.9990234375 448.663085938 79.9990234375 457.99609375 83.9990234375 c 0
 467.329101562 87.9990234375 473.99609375 89.9990234375 477.99609375 89.9990234375 c 0
 483.99609375 89.9990234375 486.99609375 87.33203125 486.99609375 81.9990234375 c 0
 486.99609375 77.33203125 482.663085938 67.33203125 473.99609375 51.9990234375 c 0
 463.99609375 34.666015625 458.329101562 23.9990234375 456.99609375 19.9990234375 c 0
 451.663085938 3.9990234375 444.663085938 -4.0009765625 435.99609375 -4.0009765625 c 0
 431.99609375 -4.0009765625 426.329101562 -3.66796875 418.99609375 -3.0009765625 c 0
 409.663085938 -2.333984375 403.663085938 -2.0009765625 400.99609375 -2.0009765625 c 0
 394.329101562 -1.333984375 322.329101562 -0.6669921875 184.99609375 0 c 0
 172.99609375 0 145.99609375 -0.3330078125 103.99609375 -1 c 2
 77.99609375 -1 l 2
 67.99609375 -1 58.1630859375 -3.3330078125 48.49609375 -8 c 0
 38.8291015625 -12.6669921875 32.99609375 -15 30.99609375 -15 c 0
 22.3291015625 -15 17.99609375 -11.6669921875 17.99609375 -5 c 0
 17.99609375 -1 21.6630859375 9.6669921875 28.99609375 27 c 0
 31.6630859375 33.6669921875 36.330078125 45.6669921875 42.9970703125 63 c 0
 46.9970703125 73.6669921875 53.6640625 79 62.9970703125 79 c 0
 77.6640625 79 92.15625 78.8740234375 106.473632812 78.6220703125 c 0
 147.490234375 78.8740234375 166.998046875 106.333007812 164.998046875 161 c 0
 164.998046875 187 164.998046875 193.833007812 164.998046875 181.5 c 0
 164.998046875 169.166992188 164.998046875 185.333984375 164.998046875 230.000976562 c 0
 164.998046875 274.000976562 160.665039062 305.333984375 151.998046875 324.000976562 c 0
 141.331054688 346.66796875 120.998046875 362.000976562 90.998046875 370.000976562 c 1
 90.998046875 378.000976562 l 2
 93.6650390625 382.66796875 107.665039062 394.66796875 132.998046875 414.000976562 c 0
 158.331054688 433.333984375 173.331054688 443.000976562 177.998046875 443.000976562 c 0
 193.484375 443.673828125 211.151367188 431.006835938 230.999023438 405 c 2
 259.999023438 367 l 1
 310.666015625 409 377.999023438 434.333007812 461.999023438 443 c 0
 473.999023438 444.333007812 486.33203125 429.666015625 498.999023438 398.999023438 c 0
 508.999023438 373.666015625 513.999023438 353.666015625 513.999023438 338.999023438 c 0
 513.999023438 325.666015625 500.33203125 307.333007812 472.999023438 284 c 0
 445.666015625 260.666992188 425.333007812 246.666992188 412 242 c 1
 408 260.666992188 406.333007812 281.5 407 304.5 c 0
 407.666992188 327.5 408.666992188 343 410 351 c 1
 393 351 l 2
 385.666992188 351 360.987304688 342.495117188 318.9609375 325.484375 c 0
 276.934570312 308.473632812 255.948242188 296.645507812 256.000976562 290 c 1
 251.333984375 287.333007812 251.666992188 245.333007812 257 164 c 1
EndSplineSet
Validated: 524325
EndChar

StartChar: s
Encoding: 115 115 116
Width: 550
GlyphClass: 1
Flags: W
LayerCount: 2
Fore
SplineSet
147 181 m 0
 190.266601562 171.015625 219.430664062 168.515625 234.498046875 173.5 c 0
 238.165039062 173.166992188 258.8203125 180 296.463867188 194 c 0
 300.153320312 195.333007812 317.784179688 191.838867188 349.357421875 183.517578125 c 0
 373.784179688 177.171875 385.998046875 169.33203125 385.998046875 159.999023438 c 0
 385.998046875 157.999023438 383.811523438 154.1875 379.4375 148.563476562 c 0
 349.14453125 109.520507812 323.998046875 88.33203125 303.998046875 84.9990234375 c 0
 245.998046875 74.9990234375 198.596679688 84.9423828125 161.793945312 114.830078125 c 0
 138.596679688 133.609375 124.060546875 142.999023438 118.185546875 142.999023438 c 0
 108.727539062 142.999023438 88.6650390625 118.666015625 57.998046875 69.9990234375 c 1
 57.998046875 57.572265625 75.998046875 43.9052734375 111.998046875 28.9990234375 c 2
 239.998046875 -24.0009765625 l 1
 285.998046875 -12.0009765625 333.998046875 9.9990234375 383.998046875 41.9990234375 c 0
 473.331054688 99.33203125 515.331054688 137.33203125 509.998046875 155.999023438 c 0
 501.998046875 186.666015625 477.331054688 212.999023438 435.998046875 234.999023438 c 0
 386.665039062 260.33203125 347.239257812 268.236328125 317.720703125 258.711914062 c 0
 274.573242188 244.903320312 252.84375 237.999023438 252.533203125 237.999023438 c 0
 247.510742188 235.999023438 229.879882812 239.493164062 199.640625 248.48046875 c 0
 175.213867188 255.493164062 163 263.333007812 163 272 c 0
 163 274 165.186523438 277.811523438 169.560546875 283.435546875 c 0
 199.853515625 322.478515625 225 343.666992188 245 347 c 0
 303.666992188 356.333007812 351.068359375 346.389648438 387.204101562 317.168945312 c 0
 410.401367188 298.389648438 424.9375 289 430.8125 289 c 0
 440.270507812 289 460.333007812 313.333007812 491 362 c 1
 491 374.426757812 473 388.09375 437 403 c 2
 309 456 l 1
 262.333007812 436.666992188 217.333007812 412 174 382 c 0
 93.3330078125 325.333007812 50.166015625 291.333007812 44.4990234375 280 c 0
 42.166015625 275.333007812 41.3330078125 272.333007812 42 271 c 0
 65.3330078125 221.666992188 100.333007812 191.666992188 147 181 c 0
EndSplineSet
Validated: 524329
EndChar

StartChar: t
Encoding: 116 116 117
Width: 550
GlyphClass: 1
Flags: W
LayerCount: 2
Fore
SplineSet
238.013671875 238.112304688 m 0
 237.337890625 86.037109375 298.840820312 42.439453125 422.515625 107.323242188 c 0
 450.173828125 121.772460938 469.75 143.588867188 481.243164062 172.772460938 c 1
 490.483398438 182.897460938 l 1
 499.502929688 146.939453125 503.90234375 128.713867188 503.682617188 128.221679688 c 0
 506.5625 117.405273438 494.918945312 91.287109375 468.750976562 49.8662109375 c 0
 444.918945312 11.953125 392.298828125 -6.8447265625 310.890625 -6.5283203125 c 0
 262.298828125 -6.177734375 216.243164062 15.0849609375 172.72265625 57.259765625 c 0
 147.344726562 81.9765625 134.104492188 107.555664062 133.002929688 133.997070312 c 0
 132.3359375 135.330078125 132.002929688 143.330078125 132.002929688 157.997070312 c 2
 129.002929688 377.997070312 l 1
 122.208984375 377.521484375 l 2
 90.0712890625 376.504882812 69.037109375 372.750976562 59.10546875 366.258789062 c 0
 49.037109375 360.083984375 43.0029296875 356.997070312 41.0029296875 356.997070312 c 0
 29.0029296875 356.997070312 24.669921875 360.330078125 28.0029296875 366.997070312 c 0
 36.669921875 385.6640625 43.669921875 403.331054688 49.0029296875 419.998046875 c 0
 52.3359375 430.665039062 60.0849609375 435.890625 72.2490234375 435.67578125 c 0
 89.41796875 435.890625 98.6689453125 436.331054688 100.001953125 436.998046875 c 0
 122.668945312 438.331054688 134.001953125 443.998046875 134.001953125 453.998046875 c 0
 134.001953125 470.665039062 128.001953125 489.33203125 116.001953125 509.999023438 c 2
 98.001953125 540.999023438 l 2
 99.3349609375 542.33203125 119.16796875 554.33203125 157.500976562 576.999023438 c 0
 175.833984375 587.666015625 195.666992188 598.999023438 217 610.999023438 c 1
 239 610.999023438 l 1
 237 561.666015625 236.333007812 512.333007812 237 463 c 0
 237 447.666992188 242.333007812 439.666992188 253 439 c 2
 509 440 l 1
 515 433 l 1
 489 356 l 1
 483 351.333007812 476.666992188 350 470 352 c 1
 470 352 l 1
 290 383 l 2
 275.333007812 385.666992188 259 378 241 360 c 0
 239 356 238.004882812 315.37109375 238.013671875 238.112304688 c 0
238.016601562 238.110351562 m 1024
EndSplineSet
Validated: 524325
EndChar

StartChar: u
Encoding: 117 117 118
Width: 550
GlyphClass: 1
Flags: W
LayerCount: 2
Fore
SplineSet
525 59 m 0
 525.666992188 55.6669921875 498.000976562 34.333984375 442.000976562 -4.9990234375 c 1
 425.333984375 -4.9990234375 409.666992188 5.0009765625 395 25.0009765625 c 0
 383.666992188 40.333984375 375 58.0009765625 369 78.0009765625 c 1
 255 30.0009765625 l 2
 243 24.0009765625 223 12.333984375 195 -4.9990234375 c 0
 184.333007812 -11.666015625 159 1.333984375 119 34.0009765625 c 0
 83 63.333984375 65 85.6669921875 65 101 c 2
 61 326 l 2
 60.9033203125 331.444335938 54.236328125 341.77734375 41 356.999023438 c 0
 28.3330078125 371.666015625 21.3330078125 381.999023438 20 387.999023438 c 1
 58.6669921875 431.999023438 85 453.999023438 99 453.999023438 c 0
 103 453.999023438 106.666992188 452.33203125 110 448.999023438 c 2
 121 437.999023438 l 1
 147.666992188 417.33203125 164 397.33203125 170 377.999023438 c 0
 171.333007812 372.666015625 172 345.999023438 172 297.999023438 c 2
 172 159.999023438 l 2
 172 141.999023438 180.333007812 126.666015625 197 113.999023438 c 0
 214.333007812 100.666015625 232 93.9990234375 250 93.9990234375 c 0
 276.666992188 93.9990234375 317.666992188 115.666015625 373 158.999023438 c 1
 373 437.999023438 l 1
 423 448.999023438 l 2
 438.151367188 452.33203125 458.151367188 453.999023438 483 453.999023438 c 1
 479 126.999023438 l 2
 478.806640625 111.166015625 486.139648438 96.8330078125 501 83.9990234375 c 0
 516.333007812 70.666015625 524.333007812 62.3330078125 525 59 c 0
EndSplineSet
Validated: 524321
EndChar

StartChar: v
Encoding: 118 118 119
Width: 550
GlyphClass: 1
Flags: W
LayerCount: 2
Fore
SplineSet
284 -9 m 2
 111 319 l 2
 90.3330078125 353.666992188 63.666015625 366 30.9990234375 356 c 1
 34.33203125 364 43.33203125 379.833007812 57.9990234375 403.5 c 0
 76.666015625 433.833007812 89.3330078125 450 96 452 c 0
 122 460 151 440.333007812 183 393 c 1
 328 130 l 1
 386 208.666992188 414.666992188 255.833984375 414 271.500976562 c 0
 413.333007812 289.833984375 407.333007812 309.500976562 396 330.500976562 c 0
 376.666992188 367.500976562 356 380.66796875 334 370.000976562 c 1
 338 378.000976562 347.666992188 392.333984375 363 413.000976562 c 0
 387 445.000976562 401.666992188 462.333984375 407 465.000976562 c 0
 428.333007812 475.000976562 453.666015625 459.000976562 482.999023438 417.000976562 c 0
 497.666015625 396.333984375 504.333007812 364.666992188 503 322 c 0
 501.666992188 276 471 214.333007812 411 137 c 0
 369.56640625 82.869140625 328.899414062 32.869140625 289 -13 c 0
 287.666992188 -14.3330078125 286 -13 284 -9 c 2
EndSplineSet
Validated: 524321
EndChar

StartChar: w
Encoding: 119 119 120
Width: 550
GlyphClass: 1
Flags: W
LayerCount: 2
Fore
SplineSet
215 379 m 1
 222.001953125 365.999023438 l 2
 256.001953125 295.999023438 273.001953125 252.666015625 273.001953125 235.999023438 c 1
 236.001953125 167.999023438 l 1
 144.001953125 405.999023438 l 2
 122.001953125 455.999023438 93.001953125 475.666015625 57.001953125 464.999023438 c 0
 50.3349609375 462.999023438 37.66796875 446.83203125 19.0009765625 416.499023438 c 0
 4.333984375 392.83203125 -4.666015625 376.999023438 -7.9990234375 368.999023438 c 1
 32.66796875 383.666015625 59.3349609375 371.333007812 72.001953125 332 c 0
 118.001953125 188.666992188 158.001953125 78 192.001953125 0 c 1
 226.668945312 58 255.668945312 108.833007812 279.001953125 152.5 c 0
 285.668945312 164.833007812 290.668945312 172.333007812 294.001953125 175 c 1
 334.001953125 78 l 1
 368.001953125 -1 l 1
 384.001953125 10.3330078125 419.668945312 56.3330078125 475.001953125 137 c 0
 506.334960938 182.333007812 525.334960938 244 532.001953125 322 c 0
 535.334960938 361.333007812 528.66796875 393 512.000976562 417 c 0
 483.333984375 459.666992188 458.000976562 475.666992188 436.000976562 465 c 0
 430.66796875 462.333007812 416.000976562 445 392.000976562 413 c 0
 376.66796875 392.333007812 367.000976562 378 363.000976562 370 c 1
 385.000976562 380.666992188 405.66796875 367.5 425.000976562 330.5 c 0
 432.333984375 316.833007812 437.666992188 300 441 280 c 0
 445 253.333007812 427.666992188 213.333007812 389 160 c 1
 272 458 l 1
 254 432 235 405.666992188 215 379 c 1
EndSplineSet
Validated: 524329
EndChar

StartChar: x
Encoding: 120 120 121
Width: 550
GlyphClass: 1
Flags: W
LayerCount: 2
Fore
SplineSet
533 372 m 2
 474.000976562 315.000976562 l 2
 466.66796875 311.000976562 456.000976562 312.333984375 442.000976562 319.000976562 c 0
 440.66796875 319.66796875 426.66796875 325.334960938 400.000976562 336.001953125 c 0
 340.66796875 360.001953125 311.000976562 334.001953125 311.000976562 258.001953125 c 0
 311.000976562 214.001953125 320.000976562 181.834960938 338.000976562 161.501953125 c 0
 355.979492188 141.192382812 377.979492188 129.025390625 404.000976562 125.001953125 c 2
 501.000976562 110.001953125 l 1
 501.000976562 95.001953125 l 1
 473.66796875 49.001953125 441.66796875 14.6689453125 405.000976562 -7.998046875 c 1
 260.000976562 95.001953125 l 1
 93.0009765625 4.001953125 l 1
 68.0009765625 -4.998046875 l 1
 17.0009765625 56.001953125 l 1
 72.0009765625 68.001953125 l 2
 93.333984375 76.001953125 113.666992188 86.001953125 133 98.001953125 c 0
 152.333007812 110.001953125 166 120.668945312 174 130.001953125 c 0
 200.666992188 161.334960938 214 194.66796875 214 230.000976562 c 0
 214 235.333984375 192.333007812 258.333984375 149 299.000976562 c 0
 139 308.333984375 119.666992188 317.333984375 91 326.000976562 c 0
 62.3330078125 335.333984375 43.3330078125 343.666992188 34 351 c 1
 93 453 l 1
 104 453 l 1
 267 342 l 1
 439 460 l 1
 451 452.666992188 469.666992188 437 495 413 c 0
 520.333007812 389 533 375.333007812 533 372 c 2
EndSplineSet
Validated: 524321
EndChar

StartChar: y
Encoding: 121 121 122
Width: 550
GlyphClass: 1
Flags: W
LayerCount: 2
Fore
SplineSet
323 130 m 1
 376.333007812 203.333007812 403.000976562 250.501953125 403.000976562 271.501953125 c 0
 402.293945312 289.790039062 396.293945312 309.45703125 385.000976562 330.502929688 c 0
 365.66796875 367.502929688 345.000976562 380.669921875 323.000976562 370.002929688 c 1
 327.000976562 378.002929688 336.66796875 392.3359375 352.000976562 413.002929688 c 0
 376.000976562 445.002929688 390.66796875 462.3359375 396.000976562 465.002929688 c 0
 417.333984375 475.002929688 442.666992188 459.002929688 472 417.002929688 c 0
 486.666992188 396.3359375 493.333984375 364.668945312 492.000976562 322.001953125 c 0
 490.66796875 271.334960938 462.000976562 209.66796875 406.000976562 137.000976562 c 0
 359.333984375 76.333984375 315.666992188 22.333984375 275 -24.9990234375 c 0
 239 -67.666015625 194.333007812 -122.333007812 141 -189 c 1
 61 -189 l 1
 55 -185 l 1
 55 -182 l 1
 247 50 l 1
 106 319 l 2
 85.3330078125 353.666992188 58.666015625 366 25.9990234375 356 c 1
 29.33203125 364 38.33203125 379.833007812 52.9990234375 403.5 c 0
 71.666015625 433.833007812 84.3330078125 450 91 452 c 0
 117 460 146 440.333007812 178 393 c 1
 323 130 l 1
EndSplineSet
Validated: 524321
EndChar

StartChar: z
Encoding: 122 122 123
Width: 550
GlyphClass: 1
Flags: W
LayerCount: 2
Fore
SplineSet
24 18 m 1
 315.998046875 307.999023438 l 1
 323.998046875 314.999023438 l 2
 331.998046875 324.999023438 323.998046875 332.33203125 299.998046875 336.999023438 c 1
 202.998046875 337.999023438 l 2
 171.665039062 337.999023438 145.33203125 335.33203125 123.999023438 329.999023438 c 0
 121.33203125 329.33203125 117.499023438 327.33203125 112.499023438 323.999023438 c 0
 107.499023438 320.666015625 100.666015625 316.333007812 91.9990234375 311 c 0
 79.33203125 302.333007812 65.9990234375 296.333007812 51.9990234375 293 c 1
 51.9990234375 312 l 1
 62.666015625 330.666992188 80.666015625 373 105.999023438 439 c 1
 500.999023438 439 l 1
 500.999023438 420 l 1
 310.999023438 230 211.999023438 130.666992188 203.999023438 122 c 0
 191.999023438 108.666992188 206.33203125 101 246.999023438 99 c 0
 279.666015625 97 316.833007812 97.5 358.5 100.5 c 0
 375.5 101.5 388.666992188 102.666992188 398 104 c 0
 430 108.666992188 460.666992188 122.666992188 490 146 c 1
 498 146 l 1
 498 135 l 2
 498 122.333007812 482 78 450 2 c 1
 393 -3 l 1
 24 -3 l 1
 24 18 l 1
EndSplineSet
Validated: 524321
EndChar

StartChar: braceleft
Encoding: 123 123 124
Width: 550
GlyphClass: 1
Flags: W
LayerCount: 2
Fore
SplineSet
449 695 m 1
 397.666992188 663.666992188 366.33203125 615.666992188 354.999023438 551 c 0
 346.999023438 501.666992188 338.999023438 452 330.999023438 402 c 1
 311.666015625 354 264.333007812 327 189 321 c 1
 208.333007812 319 229 312.666992188 251 302 c 0
 295 280.666992188 322.666992188 243.666992188 334 191 c 0
 341.333007812 143.666992188 348.333007812 96 355 48 c 1
 368.333007812 -8 398.666015625 -50 445.999023438 -78 c 1
 437.33203125 -88 419.999023438 -93 393.999023438 -93 c 0
 360.666015625 -93 329.999023438 -82.8330078125 301.999023438 -62.5 c 0
 273.999023438 -42.1669921875 254.33203125 -16.333984375 242.999023438 14.9990234375 c 0
 236.33203125 33.666015625 232.33203125 59.3330078125 230.999023438 92 c 0
 228.999023438 127.333007812 225.999023438 152 221.999023438 166 c 0
 214.666015625 192 199.666015625 213.666992188 176.999023438 231 c 0
 159.666015625 242.333007812 142.666015625 253.666015625 125.999023438 264.999023438 c 0
 102.666015625 281.666015625 90.9990234375 296.666015625 90.9990234375 309.999023438 c 0
 90.9990234375 323.999023438 102.666015625 338.666015625 125.999023438 353.999023438 c 0
 143.999023438 364.666015625 161.999023438 374.999023438 179.999023438 384.999023438 c 0
 204.666015625 400.999023438 220.666015625 417.999023438 227.999023438 435.999023438 c 0
 233.999023438 450.666015625 236.999023438 473.333007812 236.999023438 504 c 2
 236.999023438 528 l 2
 236.999023438 579.333007812 251.499023438 622.5 280.499023438 657.5 c 0
 309.499023438 692.5 348.999023438 710 398.999023438 710 c 0
 423.666015625 710 440.333007812 705 449 695 c 1
EndSplineSet
Validated: 524289
EndChar

StartChar: bar
Encoding: 124 124 125
Width: 550
GlyphClass: 1
Flags: W
LayerCount: 2
Fore
SplineSet
317 735 m 0
 322.333007812 735 324.999023438 727.334960938 324.999023438 712.001953125 c 2
 324.999023438 -82.998046875 l 2
 324.999023438 -93.6650390625 317.999023438 -101.998046875 303.999023438 -107.998046875 c 0
 292.666015625 -112.665039062 281.666015625 -117.665039062 270.999023438 -122.998046875 c 0
 255.666015625 -129.665039062 244.333007812 -132.998046875 237 -132.998046875 c 0
 225.666992188 -132.998046875 220 -125.665039062 220 -110.998046875 c 0
 220 -105.665039062 220.666992188 -97.83203125 222 -87.4990234375 c 0
 223.333007812 -77.166015625 224 -69.3330078125 224 -64 c 2
 224 678 l 1
 280 716 311 735 317 735 c 0
EndSplineSet
Validated: 524289
EndChar

StartChar: braceright
Encoding: 125 125 126
Width: 550
GlyphClass: 1
Flags: W
LayerCount: 2
Fore
SplineSet
103 695 m 1
 111 705 128.333007812 710.001953125 155 710.001953125 c 0
 204.333007812 710.001953125 243.666015625 691.668945312 272.999023438 655.001953125 c 0
 300.33203125 621.001953125 313.999023438 578.668945312 313.999023438 528.001953125 c 2
 313.999023438 504.001953125 l 2
 313.999023438 473.334960938 316.999023438 450.66796875 322.999023438 436.000976562 c 0
 330.999023438 418.000976562 346.999023438 401.000976562 370.999023438 385.000976562 c 0
 388.999023438 375.000976562 406.999023438 364.66796875 424.999023438 354.000976562 c 0
 448.999023438 338.66796875 460.999023438 324.000976562 460.999023438 310.000976562 c 0
 460.999023438 296.66796875 449.33203125 281.66796875 425.999023438 265.000976562 c 2
 373.999023438 231.000976562 l 2
 351.999023438 213.66796875 336.999023438 192.000976562 328.999023438 166.000976562 c 0
 324.999023438 152.000976562 322.33203125 127.333984375 320.999023438 92.0009765625 c 0
 318.999023438 59.333984375 314.666015625 33.6669921875 307.999023438 15 c 0
 296.666015625 -17 276.833007812 -43 248.5 -63 c 0
 220.166992188 -83 189 -93 155 -93 c 0
 130.333007812 -93 114 -88 106 -78 c 1
 152.666992188 -50 182.666992188 -8 196 48 c 0
 203.333007812 96 210.333007812 143.666992188 217 191 c 1
 229 243.666992188 257 280.666992188 301 302 c 0
 322.333007812 312.666992188 342.666015625 319 361.999023438 321 c 1
 287.33203125 327 240.33203125 354 220.999023438 402 c 1
 212.999023438 451.333007812 204.999023438 501 196.999023438 551 c 0
 185.666015625 615.666992188 154.333007812 663.666992188 103 695 c 1
EndSplineSet
Validated: 524289
EndChar

StartChar: asciitilde
Encoding: 126 126 127
Width: 550
GlyphClass: 1
Flags: W
LayerCount: 2
Fore
SplineSet
454 566 m 2
 451.999023438 563.999023438 l 1
 441.999023438 547.999023438 418.999023438 513.666015625 382.999023438 460.999023438 c 0
 376.33203125 450.33203125 366.33203125 435.999023438 352.999023438 417.999023438 c 1
 348.33203125 419.999023438 340.999023438 422.666015625 330.999023438 425.999023438 c 0
 316.999023438 431.999023438 297.999023438 439.999023438 273.999023438 449.999023438 c 0
 249.999023438 459.999023438 215.666015625 475.33203125 170.999023438 495.999023438 c 1
 123.666015625 449.33203125 98.666015625 425.999023438 95.9990234375 425.999023438 c 0
 93.9990234375 425.999023438 90.83203125 429.666015625 86.4990234375 436.999023438 c 0
 82.166015625 444.33203125 79.9990234375 448.999023438 79.9990234375 450.999023438 c 0
 79.9990234375 452.999023438 82.33203125 456.666015625 86.9990234375 461.999023438 c 0
 124.999023438 502.666015625 163.999023438 544.333007812 203.999023438 587 c 1
 210.666015625 587.666992188 265.333007812 561.666992188 368 509 c 1
 403.333007812 557 423.333007812 581 428 581 c 0
 430 581 434.833007812 579 442.5 575 c 0
 450.166992188 571 454 568 454 566 c 2
EndSplineSet
Validated: 524321
EndChar

StartChar: Zcaron
Encoding: 142 142 143
Width: 550
GlyphClass: 1
Flags: W
LayerCount: 2
Fore
SplineSet
535 155 m 1
 535.001953125 185.001953125 l 1
 511.001953125 185.001953125 l 2
 510.334960938 184.334960938 493.001953125 171.66796875 459.001953125 147.000976562 c 0
 421.668945312 120.333984375 391.668945312 107.000976562 369.001953125 107.000976562 c 0
 323.561523438 107.000976562 283.561523438 112.333984375 249.001953125 123.000976562 c 2
 168.001953125 148.000976562 l 1
 524.001953125 634.000976562 l 1
 524.001953125 664.000976562 l 1
 522.001953125 662.66796875 507.334960938 656.66796875 480.001953125 646.000976562 c 0
 446.001953125 632.66796875 421.001953125 626.000976562 405.001953125 626.000976562 c 0
 393.001953125 626.000976562 364.668945312 632.333984375 320.001953125 645.000976562 c 0
 276.001953125 657.66796875 241.334960938 664.000976562 216.001953125 664.000976562 c 0
 171.334960938 664.000976562 130.001953125 642.333984375 92.001953125 599.000976562 c 0
 59.3349609375 562.333984375 36.3349609375 519.666992188 23.001953125 471 c 1
 37.001953125 475 61.001953125 488.666992188 95.001953125 512 c 0
 122.334960938 531.333007812 149.66796875 541 177.000976562 541 c 0
 216.556640625 541 253.889648438 537 289.000976562 529 c 2
 368.000976562 511 l 1
 11.0009765625 22 l 1
 19.0009765625 7.3330078125 28.66796875 -4.6669921875 40.0009765625 -14 c 1
 78.0009765625 3 l 2
 108.000976562 16.3330078125 126.66796875 22.666015625 134.000976562 21.9990234375 c 0
 139.333984375 21.33203125 167.000976562 16.33203125 217.000976562 6.9990234375 c 0
 240.333984375 2.33203125 264.166992188 -1.16796875 288.5 -3.5009765625 c 0
 312.833007812 -5.833984375 331 -7.0009765625 343 -7.0009765625 c 0
 371.666992188 -7.0009765625 398.666992188 1.33203125 424 17.9990234375 c 0
 449.823242188 35.21484375 473.823242188 60.8818359375 496 95 c 2
 535 155 l 1
292.001953125 792.001953125 m 1
 379.001953125 852.001953125 l 1
 400.001953125 796.001953125 l 1
 293.001953125 684.001953125 l 1
 186.001953125 794.001953125 l 1
 207.001953125 851.001953125 l 1
 292.001953125 792.001953125 l 1
EndSplineSet
Validated: 2621481
EndChar

StartChar: zcaron
Encoding: 158 158 159
Width: 550
GlyphClass: 1
Flags: W
LayerCount: 2
Fore
SplineSet
393 420 m 1
 228.333007812 241.333007812 146 142 146 122 c 0
 146 106.666992188 160.333007812 99 189 99 c 0
 213 99 233.5 99.5 250.5 100.5 c 0
 267.5 101.5 280.666992188 102.666992188 290 104 c 0
 324 110 354.666992188 124 382 146 c 1
 390 146 l 1
 390 135 l 2
 390 122.333007812 374 78 342 2 c 1
 285 -3 l 1
 -4 -3 l 1
 -4 18 l 1
 5.3330078125 26 21.5 42.6669921875 44.5 68 c 0
 67.5 93.3330078125 97.6669921875 127.333007812 135 170 c 0
 209 256 246 304.333007812 246 315 c 0
 246 326.333007812 238 333.666015625 222 336.999023438 c 2
 185 337.999023438 l 2
 150.333007812 338.666015625 124 335.999023438 106 329.999023438 c 0
 103.333007812 329.33203125 99.5 327.33203125 94.5 323.999023438 c 0
 89.5 320.666015625 82.6669921875 316.333007812 74 311 c 0
 61.3330078125 302.333007812 48 296.333007812 34 293 c 1
 34 312 l 1
 44.6669921875 330.666992188 62.6669921875 373 88 439 c 1
 393 439 l 1
 393 420 l 1
220 606 m 1
 307 666 l 1
 327 609 l 1
 221 498 l 1
 114 608 l 1
 134 665 l 1
 220 606 l 1
EndSplineSet
Validated: 2621473
EndChar

StartChar: exclamdown
Encoding: 161 161 162
Width: 550
GlyphClass: 1
Flags: W
LayerCount: 2
Fore
SplineSet
46 -6 m 1
 46 68.6669921875 47.8310546875 136.83203125 51.498046875 198.499023438 c 0
 55.1650390625 260.166015625 60.6650390625 315.999023438 67.998046875 365.999023438 c 0
 71.998046875 393.33203125 75.6650390625 412.33203125 78.998046875 422.999023438 c 1
 95.6650390625 428.33203125 111.33203125 440.33203125 125.999023438 458.999023438 c 0
 144.666015625 481.666015625 158.333007812 497.333007812 167 506 c 1
 164 469.5 l 2
 162 445.166992188 158.666992188 408.333984375 154 359.000976562 c 0
 151.333007812 332.333984375 149.5 308.666992188 148.5 288 c 0
 147.5 267.333007812 147 249.333007812 147 234 c 0
 147 203.333007812 152 139 162 41 c 1
 46 -6 l 1
35.998046875 583.998046875 m 0
 35.998046875 589.331054688 44.3310546875 601.331054688 60.998046875 619.998046875 c 0
 67.6650390625 627.331054688 73.6650390625 633.998046875 78.998046875 639.998046875 c 0
 84.3310546875 645.998046875 89.3310546875 650.665039062 93.998046875 653.998046875 c 1
 142.665039062 614.665039062 167.998046875 588.998046875 169.998046875 576.998046875 c 1
 134.665039062 529.665039062 110.998046875 505.998046875 98.998046875 505.998046875 c 0
 86.998046875 505.998046875 73.6650390625 515.998046875 58.998046875 535.998046875 c 0
 43.6650390625 556.665039062 35.998046875 572.665039062 35.998046875 583.998046875 c 0
EndSplineSet
Validated: 524289
EndChar

StartChar: cent
Encoding: 162 162 163
Width: 550
GlyphClass: 1
Flags: W
LayerCount: 2
Fore
SplineSet
316 99 m 0
 316 91 314.665039062 87.001953125 311.998046875 87.001953125 c 2
 302.998046875 89.001953125 l 2
 284.998046875 93.001953125 256.331054688 95.001953125 216.998046875 95.001953125 c 0
 204.998046875 95.001953125 198.998046875 90.3349609375 198.998046875 81.001953125 c 2
 198.998046875 0.001953125 l 2
 198.998046875 -4.6650390625 196.998046875 -6.998046875 192.998046875 -6.998046875 c 0
 192.331054688 -6.998046875 189.1640625 -5.998046875 183.497070312 -3.998046875 c 0
 177.830078125 -1.998046875 174.330078125 -0.998046875 172.997070312 -0.998046875 c 0
 172.330078125 -0.998046875 168.830078125 -1.998046875 162.497070312 -3.998046875 c 0
 156.1640625 -5.998046875 152.331054688 -6.998046875 150.998046875 -6.998046875 c 0
 136.331054688 -6.998046875 128.998046875 1.6689453125 128.998046875 19.001953125 c 2
 128.998046875 73.001953125 l 2
 128.998046875 84.3349609375 125.665039062 90.001953125 118.998046875 90.001953125 c 0
 77.6650390625 95.3349609375 47.6650390625 133.66796875 28.998046875 205.000976562 c 0
 16.3310546875 251.000976562 9.998046875 304.000976562 9.998046875 364.000976562 c 0
 9.998046875 420.66796875 15.998046875 469.000976562 27.998046875 509.000976562 c 0
 47.3310546875 572.333984375 78.3310546875 600.666992188 120.998046875 594 c 0
 130.331054688 592.666992188 134.998046875 596.666992188 134.998046875 606 c 2
 134.998046875 666 l 2
 134.998046875 673.333007812 136.665039062 677 139.998046875 677 c 2
 154.998046875 674 l 2
 155.665039062 674 157.83203125 674.333007812 161.499023438 675 c 0
 165.166015625 675.666992188 168.833007812 676.5 172.5 677.5 c 0
 176.166992188 678.5 179.666992188 679.333007812 183 680 c 0
 186.333007812 680.666992188 188.333007812 681 189 681 c 0
 197.666992188 681 202 677.333007812 202 670 c 2
 202 610 l 2
 202 598.666992188 206 593 214 593 c 0
 232.666992188 593 241.333984375 593.333007812 240.000976562 594 c 1
 269.333984375 588.666992188 284.000976562 562.666992188 284.000976562 516 c 0
 284.000976562 436 265.66796875 381.666992188 229.000976562 353 c 0
 224.333984375 349.666992188 219.333984375 348 214.000976562 348 c 0
 207.333984375 348 201.333984375 350.5 196.000976562 355.5 c 0
 190.66796875 360.5 189.000976562 366 191.000976562 372 c 0
 191.66796875 375.333007812 192.16796875 379.833007812 192.500976562 385.5 c 0
 192.833984375 391.166992188 193.000976562 398.333984375 193.000976562 407.000976562 c 0
 193.000976562 453.66796875 180.333984375 477.000976562 155.000976562 477.000976562 c 0
 137.000976562 477.000976562 123.66796875 464.000976562 115.000976562 438.000976562 c 0
 108.333984375 420.000976562 105.000976562 399.66796875 105.000976562 377.000976562 c 0
 105.000976562 307.66796875 125.000976562 254.66796875 165.000976562 218.000976562 c 0
 170.333984375 212.66796875 177.166992188 207.66796875 185.5 203.000976562 c 0
 193.833007812 198.333984375 203.333007812 193.666992188 214 189 c 0
 258.666992188 169.666992188 288.666992188 148.666992188 304 126 c 0
 312 114 316 105 316 99 c 0
EndSplineSet
Validated: 524321
EndChar

StartChar: sterling
Encoding: 163 163 164
Width: 550
GlyphClass: 1
Flags: W
LayerCount: 2
Fore
SplineSet
425 17 m 2
 425 3 411.669921875 -4.0009765625 385.002929688 -4.0009765625 c 0
 364.3359375 -4.0009765625 334.668945312 -2.0009765625 296.001953125 1.9990234375 c 0
 276.668945312 4.666015625 259.501953125 6.4990234375 244.501953125 7.4990234375 c 0
 229.501953125 8.4990234375 217.001953125 8.9990234375 207.001953125 8.9990234375 c 0
 199.668945312 8.9990234375 190.501953125 8.4990234375 179.501953125 7.4990234375 c 2
 141.001953125 3.9990234375 l 2
 126.334960938 2.666015625 113.66796875 1.4990234375 103.000976562 0.4990234375 c 0
 92.333984375 -0.5009765625 83.333984375 -1.0009765625 76.0009765625 -1.0009765625 c 0
 47.333984375 -1.0009765625 33.0009765625 5.666015625 33.0009765625 18.9990234375 c 0
 33.0009765625 26.9990234375 39.333984375 38.666015625 52.0009765625 53.9990234375 c 0
 92.0009765625 104.666015625 112.000976562 160.666015625 112.000976562 221.999023438 c 0
 112.000976562 225.33203125 111.500976562 230.665039062 110.500976562 237.998046875 c 0
 109.500976562 245.331054688 108.333984375 254.331054688 107.000976562 264.998046875 c 1
 74.0009765625 261.998046875 l 2
 65.333984375 261.998046875 57.1669921875 263.998046875 49.5 267.998046875 c 0
 41.8330078125 271.998046875 35 277.331054688 29 283.998046875 c 0
 23 290.665039062 18.3330078125 298.33203125 15 306.999023438 c 0
 11.6669921875 315.666015625 10 324.333007812 10 333 c 0
 10 339 12.6669921875 342 18 342 c 1
 12 342 16.3330078125 339.666992188 31 335 c 0
 47.6669921875 331 57.6669921875 329 61 329 c 0
 70.3330078125 329 79 330.333007812 87 333 c 1
 73 384 l 2
 65 412.666992188 61 438.333984375 61 461.000976562 c 0
 61 533.000976562 93.6669921875 582.66796875 159 610.000976562 c 0
 183 620.000976562 208.666992188 625.000976562 236 625.000976562 c 0
 280 625.000976562 316.333007812 613.66796875 345 591.000976562 c 0
 377.666992188 566.333984375 394 532.666992188 394 490 c 0
 394 450.666992188 385.666992188 431 369 431 c 0
 364.333007812 431 360.666015625 432.333007812 357.999023438 435 c 2
 342.999023438 463 l 2
 328.33203125 491.666992188 299.33203125 506 255.999023438 506 c 0
 221.999023438 506 195.499023438 496 176.499023438 476 c 0
 157.499023438 456 147.999023438 428.666992188 147.999023438 394 c 0
 147.999023438 390 148.499023438 383.833007812 149.499023438 375.5 c 0
 150.499023438 367.166992188 151.666015625 356.666992188 152.999023438 344 c 1
 163.666015625 346.666992188 173.666015625 348.5 182.999023438 349.5 c 0
 192.33203125 350.5 200.999023438 351 208.999023438 351 c 0
 226.33203125 351 241.665039062 344.333007812 254.998046875 331 c 0
 272.998046875 311.666992188 281.998046875 294.666992188 281.998046875 280 c 0
 281.998046875 272.666992188 278.998046875 269 272.998046875 269 c 0
 272.331054688 269 265.998046875 271 253.998046875 275 c 0
 242.665039062 279 235.33203125 281 231.999023438 281 c 0
 229.33203125 281 222.499023438 280.333007812 211.499023438 279 c 0
 200.499023438 277.666992188 185.33203125 275.666992188 165.999023438 273 c 1
 167.999023438 235 l 2
 170.666015625 183.666992188 155.333007812 128 122 68 c 1
 157.333007812 93.3330078125 194.333007812 106 233 106 c 2
 246 106 l 1
 243.333007812 106 243 106 245 106 c 0
 247.666992188 106 252.666992188 105.666992188 260 105 c 2
 323 102 l 2
 346.333007812 100.666992188 361 111 367 133 c 0
 369 139.666992188 370 153.666992188 370 175 c 0
 370 192.333007812 376.333007812 201 389 201 c 0
 401 201 408.333007812 180.666992188 411 140 c 0
 411.666992188 122.666992188 413.666992188 96.6669921875 417 62 c 2
 425 17 l 2
EndSplineSet
Validated: 524325
EndChar

StartChar: currency
Encoding: 164 164 165
Width: 550
GlyphClass: 1
Flags: W
LayerCount: 2
Fore
SplineSet
418 111 m 0
 418 102.333007812 413.333007812 98.6669921875 404 100 c 2
 381 101 l 1
 339 96 l 2
 333 96 322.333007812 105.666992188 307 125 c 0
 303.666992188 129.666992188 299.5 135.333984375 294.5 142.000976562 c 0
 289.5 148.66796875 283.666992188 156.334960938 277 165.001953125 c 1
 245 141.001953125 223.333007812 129.001953125 212 129.001953125 c 0
 198.666992188 129.001953125 176.666992188 138.334960938 146 157.001953125 c 1
 105 100.001953125 l 2
 102.333007812 97.3349609375 97.666015625 96.001953125 90.9990234375 96.001953125 c 2
 57.9990234375 100.001953125 l 1
 45.9990234375 101.001953125 l 1
 37.9990234375 100.001953125 l 1
 24.9990234375 100.001953125 l 2
 15.666015625 100.001953125 10.9990234375 103.668945312 10.9990234375 111.001953125 c 0
 10.9990234375 115.001953125 15.33203125 120.334960938 23.9990234375 127.001953125 c 0
 34.666015625 135.668945312 46.166015625 146.001953125 58.4990234375 158.001953125 c 0
 70.83203125 170.001953125 83.9990234375 184.001953125 97.9990234375 200.001953125 c 1
 65.33203125 236.668945312 48.9990234375 277.668945312 48.9990234375 323.001953125 c 0
 48.9990234375 362.334960938 62.666015625 397.66796875 89.9990234375 429.000976562 c 1
 67.33203125 458.333984375 46.9990234375 479.000976562 28.9990234375 491.000976562 c 0
 17.666015625 499.000976562 11.9990234375 505.333984375 11.9990234375 510.000976562 c 0
 11.9990234375 517.333984375 16.666015625 521.000976562 25.9990234375 521.000976562 c 2
 36.9990234375 520.000976562 l 1
 52.9990234375 519.000976562 l 2
 62.9990234375 518.333984375 73.9990234375 520.000976562 85.9990234375 524.000976562 c 2
 93.9990234375 527.000976562 l 2
 96.666015625 527.000976562 99.666015625 525.333984375 102.999023438 522.000976562 c 2
 145.999023438 464.000976562 l 1
 152.666015625 466.000976562 158.333007812 467.000976562 163 467.000976562 c 2
 184 464.000976562 l 1
 202 462.000976562 l 2
 208 462.000976562 218.666992188 463.333984375 234 466.000976562 c 2
 259 470.000976562 l 2
 265.666992188 470.000976562 273.666992188 467.333984375 283 462.000976562 c 1
 322 517.000976562 l 2
 326.666992188 523.000976562 331.333984375 526.333984375 336.000976562 527.000976562 c 2
 345.000976562 524.000976562 l 2
 357.66796875 520.000976562 368.000976562 518.333984375 376.000976562 519.000976562 c 2
 404.000976562 521.000976562 l 2
 413.333984375 522.333984375 418.000976562 518.666992188 418.000976562 510 c 0
 418.000976562 505.333007812 412.333984375 499 401.000976562 491 c 0
 381.000976562 477.666992188 357.66796875 453 331.000976562 417 c 1
 355.66796875 388.333007812 368.000976562 355.666015625 368.000976562 318.999023438 c 0
 368.000976562 280.33203125 353.333984375 245.33203125 324.000976562 213.999023438 c 1
 337.333984375 189.33203125 364.666992188 160.33203125 406 126.999023438 c 0
 414 119.666015625 418 114.333007812 418 111 c 0
311 280.000976562 m 0
 311 327.333984375 290.333007812 367.66796875 249 401.000976562 c 0
 227.666992188 418.333984375 205 427.000976562 181 427.000976562 c 0
 134.333007812 427.000976562 111 405.66796875 111 363.000976562 c 0
 111 343.000976562 114 324.333984375 120 307.000976562 c 0
 126 289.66796875 134.666992188 274.500976562 146 261.500976562 c 0
 157.333007812 248.500976562 171 238.333984375 187 231.000976562 c 0
 203 223.66796875 221 220.000976562 241 220.000976562 c 0
 287.666992188 220.000976562 311 240.000976562 311 280.000976562 c 0
EndSplineSet
Validated: 524321
EndChar

StartChar: yen
Encoding: 165 165 166
Width: 550
GlyphClass: 1
Flags: W
LayerCount: 2
Fore
SplineSet
429 239 m 0
 429 232.333007812 426.333984375 229.00390625 421.000976562 229.00390625 c 0
 419.66796875 229.00390625 417.16796875 229.670898438 413.500976562 231.00390625 c 0
 409.833984375 232.336914062 405.833984375 233.669921875 401.500976562 235.002929688 c 0
 397.16796875 236.3359375 392.66796875 237.502929688 388.000976562 238.502929688 c 0
 383.333984375 239.502929688 379.666992188 240.002929688 377 240.002929688 c 2
 330 237.002929688 l 1
 312 235.002929688 l 1
 298 213.669921875 282.333007812 199.002929688 265 191.002929688 c 1
 267 166.002929688 l 1
 313 170.002929688 l 2
 329 171.3359375 344.333007812 164.668945312 359 150.001953125 c 0
 375 134.668945312 383 119.668945312 383 105.001953125 c 0
 383 99.001953125 380 96.001953125 374 96.001953125 c 0
 372.666992188 96.001953125 370.166992188 96.6689453125 366.5 98.001953125 c 0
 362.833007812 99.3349609375 358.833007812 100.66796875 354.5 102.000976562 c 0
 350.166992188 103.333984375 345.833984375 104.500976562 341.500976562 105.500976562 c 0
 337.16796875 106.500976562 334.000976562 107.000976562 332.000976562 107.000976562 c 2
 276.000976562 103.000976562 l 1
 278.66796875 79.66796875 281.66796875 64.66796875 285.000976562 58.0009765625 c 0
 290.333984375 47.333984375 300.333984375 35.6669921875 315.000976562 23 c 0
 321.000976562 17.6669921875 324.000976562 13 324.000976562 9 c 0
 324.66796875 3 320.66796875 0 312.000976562 0 c 2
 295.000976562 -0 l 2
 282.333984375 1.3330078125 270.333984375 2.5 259.000976562 3.5 c 0
 247.66796875 4.5 236.334960938 5 225.001953125 5 c 0
 217.668945312 5 208.8359375 4.5 198.502929688 3.5 c 0
 188.169921875 2.5 176.002929688 1.3330078125 162.002929688 0 c 2
 148.002929688 -2 l 2
 138.002929688 -2 133.002929688 1 133.002929688 7 c 0
 133.002929688 13.6669921875 139.002929688 21 151.002929688 29 c 0
 169.669921875 41 179.002929688 62.3330078125 179.002929688 93 c 1
 163.002929688 91 l 1
 134.002929688 89 l 2
 117.3359375 88.3330078125 102.668945312 96 90.001953125 112 c 2
 77.001953125 134 l 1
 71.001953125 154 l 2
 71.001953125 159.333007812 73.3349609375 162 78.001953125 162 c 0
 78.6689453125 162 84.6689453125 160 96.001953125 156 c 0
 106.668945312 152 113.3359375 150 116.002929688 150 c 0
 123.3359375 150 132.502929688 150.5 143.502929688 151.5 c 0
 154.502929688 152.5 167.669921875 154.333007812 183.002929688 157 c 1
 184.002929688 186 l 1
 164.669921875 189.333007812 145.336914062 203 126.00390625 227 c 1
 105.00390625 225 l 1
 76.00390625 223 l 2
 68.00390625 222.333007812 60.3369140625 223.833007812 53.00390625 227.5 c 0
 45.6708984375 231.166992188 39.1708984375 236 33.50390625 242 c 0
 27.8369140625 248 23.169921875 255 19.5029296875 263 c 0
 15.8359375 271 14.0029296875 279 14.0029296875 287 c 0
 14.0029296875 292.333007812 16.669921875 295 22.0029296875 295 c 0
 44.0029296875 287.666992188 56.3359375 284 59.0029296875 284 c 2
 100.002929688 287 l 1
 96.669921875 305 89.669921875 357.333007812 79.0029296875 444 c 0
 69.669921875 517.333007812 52.0029296875 564.666015625 26.0029296875 585.999023438 c 0
 15.3359375 594.666015625 10.0029296875 602.333007812 10.0029296875 609 c 0
 10.0029296875 619.666992188 16.0029296875 625 28.0029296875 625 c 0
 33.3359375 625 41.6689453125 623.833007812 53.001953125 621.5 c 0
 64.3349609375 619.166992188 73.001953125 618 79.001953125 618 c 0
 97.001953125 618 114.334960938 620.333007812 131.001953125 625 c 2
 143.001953125 626 l 2
 162.334960938 627.333007812 175.001953125 608.333007812 181.001953125 569 c 0
 183.668945312 545 184.668945312 517.666992188 184.001953125 487 c 2
 174.001953125 295 l 2
 172.001953125 250.333007812 188.668945312 228 224.001953125 228 c 0
 248.001953125 228 267.668945312 252.666992188 283.001953125 302 c 0
 306.334960938 381.333007812 318.001953125 452 318.001953125 514 c 0
 318.001953125 542 308.001953125 565.666992188 288.001953125 585 c 0
 278.668945312 594.333007812 274.001953125 602 274.001953125 608 c 0
 274.001953125 619.333007812 281.001953125 625 295.001953125 625 c 0
 300.334960938 625 306.66796875 624 314.000976562 622 c 0
 332.66796875 620 345.66796875 619 353.000976562 619 c 0
 359.66796875 619 377.000976562 621 405.000976562 625 c 1
 411.000976562 625 l 2
 423.000976562 625 429.000976562 614.333007812 429.000976562 593 c 0
 429.000976562 521 402.000976562 423.666992188 348.000976562 301 c 1
 368.000976562 301 l 2
 381.333984375 301 394.666992188 294 408 280 c 0
 422 266 429 252.333007812 429 239 c 0
EndSplineSet
Validated: 524321
EndChar

StartChar: brokenbar
Encoding: 166 166 167
Width: 550
GlyphClass: 1
Flags: W
LayerCount: 2
Fore
SplineSet
109 328 m 1
 11 328 l 1
 11 667 l 1
 109 667 l 1
 109 328 l 1
109 -164 m 1
 11 -164 l 1
 11 153 l 1
 109 153 l 1
 109 -164 l 1
EndSplineSet
Validated: 1
EndChar

StartChar: section
Encoding: 167 167 168
Width: 550
GlyphClass: 1
Flags: W
LayerCount: 2
Fore
SplineSet
169 255 m 1
 229.998046875 349.995117188 l 1
 310.665039062 344.662109375 361.665039062 326.662109375 382.998046875 295.995117188 c 0
 400.998046875 268.662109375 409.998046875 220.662109375 409.998046875 151.995117188 c 0
 409.998046875 86.662109375 403.331054688 28.9951171875 389.998046875 -21.0048828125 c 1
 328.665039062 -50.337890625 282.998046875 -79.337890625 252.998046875 -108.004882812 c 1
 233.665039062 -106.671875 215.998046875 -105.504882812 199.998046875 -104.504882812 c 0
 183.998046875 -103.504882812 169.331054688 -103.004882812 155.998046875 -103.004882812 c 0
 131.998046875 -103.004882812 88.6650390625 -105.004882812 25.998046875 -109.004882812 c 1
 36.6650390625 -89.671875 45.6650390625 -72.671875 52.998046875 -58.0048828125 c 0
 60.3310546875 -43.337890625 65.998046875 -31.0048828125 69.998046875 -21.0048828125 c 1
 310.998046875 -24.0048828125 l 1
 314.331054688 -4.0048828125 316.998046875 20.162109375 318.998046875 48.4951171875 c 0
 320.998046875 76.828125 321.998046875 109.328125 321.998046875 145.995117188 c 0
 321.998046875 187.995117188 318.665039062 215.662109375 311.998046875 228.995117188 c 1
 285.331054688 195.662109375 261.998046875 158.329101562 241.998046875 116.99609375 c 1
 152.665039062 134.329101562 101.33203125 159.99609375 87.9990234375 193.99609375 c 0
 81.9990234375 208.663085938 78.9990234375 232.99609375 78.9990234375 266.99609375 c 0
 78.9990234375 327.663085938 83.33203125 379.330078125 91.9990234375 421.997070312 c 1
 110.666015625 434.6640625 133.333007812 452.331054688 160 474.998046875 c 0
 178 490.331054688 193 503.1640625 205 513.497070312 c 0
 217 523.830078125 225.666992188 532.330078125 231 538.997070312 c 1
 257.666992188 532.330078125 286.833984375 527.997070312 318.500976562 525.997070312 c 0
 350.16796875 523.997070312 384.334960938 523.6640625 421.001953125 524.997070312 c 1
 422.334960938 515.6640625 424.16796875 503.331054688 426.500976562 487.998046875 c 0
 428.833984375 472.665039062 431.666992188 454.33203125 435 432.999023438 c 1
 178 453.999023438 l 1
 173.333007812 433.33203125 169.833007812 411.83203125 167.5 389.499023438 c 0
 165.166992188 367.166015625 164 343.333007812 164 318 c 0
 164 306.666992188 164.5 295.666992188 165.5 285 c 0
 166.5 274.333007812 167.666992188 264.333007812 169 255 c 1
174.998046875 243.995117188 m 1
 198.998046875 215.995117188 223.665039062 201.995117188 248.998046875 201.995117188 c 0
 257.665039062 201.995117188 267.998046875 204.328125 279.998046875 208.995117188 c 1
 305.998046875 237.995117188 l 1
 281.998046875 261.995117188 259.331054688 273.995117188 237.998046875 273.995117188 c 0
 225.998046875 273.995117188 209.665039062 268.662109375 188.998046875 257.995117188 c 1
 174.998046875 243.995117188 l 1
EndSplineSet
Validated: 524321
EndChar

StartChar: dieresis
Encoding: 168 168 169
Width: 550
GlyphClass: 1
Flags: W
LayerCount: 2
Fore
SplineSet
184 580 m 1
 122 498 l 1
 50 580 l 1
 127 653 l 1
 184 580 l 1
352 580 m 1
 290 498 l 1
 218 580 l 1
 295 653 l 1
 352 580 l 1
EndSplineSet
Validated: 1
EndChar

